<svg width="115" height="103" fill="none" xmlns="http://www.w3.org/2000/svg"><mask id="a" fill="#fff"><path d="M108.388 58.01L88.61 92.053a14.48 14.48 0 01-4.879 4.577 14.598 14.598 0 01-6.43 1.91H37.67a14.627 14.627 0 01-6.437-1.91 14.51 14.51 0 01-4.887-4.577L6.567 58.01a14.264 14.264 0 010-12.988l19.778-34.03a14.435 14.435 0 014.878-4.602 14.552 14.552 0 016.446-1.915H77.27c2.273.122 4.486.776 6.456 1.909a14.404 14.404 0 014.883 4.607l19.778 34.03a14.443 14.443 0 011.544 6.495c0 2.254-.529 4.478-1.544 6.494zm4.851-13.6L91.613 7.112a15.827 15.827 0 00-5.375-5.038A15.956 15.956 0 0079.148 0H35.777a15.911 15.911 0 00-7.051 2.087 15.783 15.783 0 00-5.34 5.026L1.702 44.394a15.702 15.702 0 000 14.212l21.686 37.28a15.811 15.811 0 005.34 5.024 15.93 15.93 0 007.05 2.09h43.371a15.99 15.99 0 007.083-2.067 15.869 15.869 0 005.382-5.016L113.3 58.636a15.707 15.707 0 001.7-7.106c0-2.468-.583-4.902-1.701-7.106"/></mask><path d="M88.61 92.054l3.337 2.205.063-.096.058-.1-3.458-2.009zM77.3 98.541v4h.114l.114-.006-.228-3.994zm-39.632 0l-.228 3.994.114.006h.114v-4zm-11.324-6.487l-3.458 2.01.058.101.065.098 3.335-2.209zM6.567 58.01l-3.562 1.82.05.096.053.093 3.459-2.01zm0-12.988l-3.459-2.01-.054.093-.049.096 3.562 1.82zm19.778-34.03L23 8.798l-.058.09-.054.091 3.458 2.01zM37.67 4.473v-4h-.112l-.111.006.223 3.994zm39.602 0l.215-3.995-.107-.005h-.108v4zM88.61 10.99l3.458-2.01-.053-.09-.057-.087-3.348 2.187zm19.778 34.03l3.573-1.798-.054-.108-.06-.103-3.459 2.01zM91.613 7.114l3.46-2.006-.057-.099-.062-.095-3.34 2.2zM79.148 0l.205-3.995L79.251-4h-.103v4zM35.777 0v-4h-.11l-.11.006.22 3.994zm-12.39 7.113L20.042 4.92l-.059.09-.054.093 3.458 2.011zM1.7 44.394l-3.458-2.011-.057.1-.052.101 3.567 1.81zM0 51.5h-4 4zm1.7 7.106l-3.566 1.81.052.102.057.099 3.458-2.011zm21.687 37.28l-3.458 2.012.055.095.06.092 3.343-2.198zM35.777 103l-.223 3.994.111.006h.112v-4zm43.371 0v4h.103l.103-.005-.206-3.995zm12.465-7.083l3.332 2.213.066-.1.06-.102-3.458-2.011zM113.3 58.636l3.458 2.01.057-.098.052-.102-3.567-1.81zm1.7-7.106h-4 4zM104.93 56L85.15 90.045l6.918 4.019 19.779-34.045-6.917-4.02zM85.272 89.85a10.481 10.481 0 01-3.531 3.312l3.98 6.939a18.481 18.481 0 006.226-5.842l-6.675-4.41zm-3.531 3.312a10.598 10.598 0 01-4.668 1.386l.456 7.987a18.602 18.602 0 008.193-2.434l-3.981-6.94zm-4.44 1.38H37.67v7.999H77.3v-8zm-39.404.006a10.628 10.628 0 01-4.676-1.387l-3.977 6.941a18.636 18.636 0 008.197 2.433l.456-7.987zM33.22 93.16a10.51 10.51 0 01-3.54-3.315l-6.67 4.417a18.507 18.507 0 006.233 5.839l3.977-6.941zm-3.417-3.116L10.025 56l-6.917 4.019 19.779 34.045 6.917-4.02zM10.128 56.188a10.263 10.263 0 01-1.126-4.673h-8c0 2.89.686 5.74 2.003 8.315l7.123-3.642zm-1.126-4.673c0-1.623.385-3.224 1.126-4.673L3.005 43.2a18.264 18.264 0 00-2.003 8.315h8zm1.023-4.484L29.804 13l-6.917-4.02L3.108 43.01l6.917 4.02zm19.667-33.85a10.435 10.435 0 013.526-3.325l-3.99-6.934a18.434 18.434 0 00-6.23 5.877l6.694 4.383zm3.526-3.325a10.552 10.552 0 014.674-1.389L37.445.48a18.553 18.553 0 00-8.217 2.442l3.99 6.934zm4.45-1.382h39.603v-8H37.67v8zm39.388-.006c1.649.089 3.252.563 4.678 1.383l3.986-6.936A18.522 18.522 0 0077.486.479l-.43 7.989zm4.678 1.383c1.426.82 2.634 1.96 3.527 3.327l6.697-4.375a18.403 18.403 0 00-6.238-5.888L81.734 9.85zM85.15 13l19.779 34.03 6.917-4.02-19.78-34.03L85.152 13zm19.664 33.818a10.437 10.437 0 011.117 4.696h8c0-2.88-.675-5.72-1.971-8.293l-7.146 3.597zm1.117 4.696a10.44 10.44 0 01-1.117 4.696l7.146 3.597a18.437 18.437 0 001.971-8.293h-8zm10.767-9.112L95.074 5.107 88.153 9.12l21.626 37.296 6.92-4.013zM94.954 4.913A19.828 19.828 0 0088.22-1.4l-3.965 6.948a11.829 11.829 0 014.017 3.765l6.68-4.401zM88.22-1.4a19.957 19.957 0 00-8.868-2.596l-.41 7.99c1.871.096 3.691.629 5.313 1.554L88.22-1.4zM79.148-4H35.777v8h43.371v-8zm-43.59.006a19.911 19.911 0 00-8.824 2.612l3.983 6.938a11.911 11.911 0 015.278-1.562l-.437-7.988zm-8.824 2.612a19.783 19.783 0 00-6.692 6.3l6.69 4.39a11.782 11.782 0 013.985-3.752l-3.983-6.938zM19.93 5.102L-1.757 42.383l6.915 4.023L26.844 9.124 19.93 5.102zM-1.866 42.584A19.702 19.702 0 00-4 51.5h8c0-1.838.434-3.652 1.268-5.296l-7.134-3.62zM-4 51.5c0 3.098.731 6.152 2.134 8.916l7.134-3.62A11.702 11.702 0 014 51.5h-8zm2.243 9.117L19.93 97.898l6.915-4.022L5.158 56.594l-6.915 4.023zm21.802 37.468a19.815 19.815 0 006.691 6.294l3.983-6.938a11.812 11.812 0 01-3.99-3.752l-6.684 4.396zm6.691 6.294a19.935 19.935 0 008.818 2.615l.445-7.988a11.94 11.94 0 01-5.28-1.565l-3.983 6.938zm9.04 2.621h43.372v-8H35.777v8zm43.578-.005a20.01 20.01 0 008.853-2.584l-3.952-6.955a12.002 12.002 0 01-5.312 1.55l.411 7.989zm8.853-2.584a19.876 19.876 0 006.738-6.281l-6.664-4.426a11.874 11.874 0 01-4.026 3.752l3.952 6.955zm6.864-6.483l21.686-37.281-6.915-4.023-21.686 37.281 6.915 4.023zm21.795-37.482A19.696 19.696 0 00119 51.53h-8c0 1.838-.434 3.652-1.268 5.296l7.134 3.62zM119 51.53c0-3.098-.731-6.152-2.134-8.916l-7.134 3.62A11.704 11.704 0 01111 51.53h8z" fill="#727272" mask="url(#a)"/></svg>