<svg width="9" height="9" fill="none" xmlns="http://www.w3.org/2000/svg"><g clip-path="url(#clip0)" fill="#AA1D26"><path d="M8.825 7.156l-.997-.665L6.94 5.9a.393.393 0 00-.528.086l-.549.705a.39.39 0 01-.499.104c-.372-.207-.812-.402-1.784-1.375S2.413 4.008 2.206 3.635a.39.39 0 01.103-.499l.706-.549A.393.393 0 003.1 2.06l-.573-.86L1.844.175a.393.393 0 00-.529-.119L.527.529a.963.963 0 00-.437.566c-.216.785-.26 2.519 2.519 5.297C5.387 9.17 7.12 9.126 7.906 8.91a.963.963 0 00.566-.437l.472-.789a.393.393 0 00-.119-.529zM5.12 1.397a2.64 2.64 0 012.64 2.637.155.155 0 00.31 0 2.951 2.951 0 00-2.948-2.948.155.155 0 000 .31z"/><path d="M5.12 2.328a1.709 1.709 0 011.707 1.706.155.155 0 00.31 0 2.02 2.02 0 00-2.016-2.017.155.155 0 000 .31z"/><path d="M5.12 3.259c.429 0 .776.347.777.775a.155.155 0 00.31 0c0-.6-.487-1.085-1.086-1.086a.155.155 0 000 .31z"/></g><defs><clipPath id="clip0"><path fill="#fff" d="M0 0h9v9H0z"/></clipPath></defs></svg>