<svg width="23" height="24" fill="none" xmlns="http://www.w3.org/2000/svg"><g clip-path="url(#clip0)"><path d="M11.5.394c-4.593 0-8.33 3.736-8.33 8.33 0 5.7 7.454 14.067 7.772 14.42a.75.75 0 001.116 0c.317-.353 7.772-8.72 7.772-14.42 0-4.594-3.737-8.33-8.33-8.33zm0 12.52a4.195 4.195 0 01-4.191-4.19 4.196 4.196 0 014.19-4.192c2.312 0 4.192 1.88 4.192 4.191s-1.88 4.191-4.191 4.191z" fill="#fff"/></g><defs><clipPath id="clip0"><path fill="#fff" transform="translate(0 .394)" d="M0 0h23v23H0z"/></clipPath></defs></svg>