<svg width="23" height="24" fill="none" xmlns="http://www.w3.org/2000/svg"><g clip-path="url(#clip0)" fill="#fff"><path d="M22.553 18.682l-2.55-1.7-2.266-1.51a1.004 1.004 0 00-1.348.218l-1.403 1.803a.999.999 0 01-1.275.265c-.952-.53-2.078-1.028-4.56-3.514-2.484-2.487-2.985-3.609-3.515-4.56a.999.999 0 01.265-1.276l1.803-1.402c.414-.323.51-.911.219-1.349L6.458 3.46 4.712.84A1.004 1.004 0 003.36.538L1.346 1.745A2.46 2.46 0 00.228 3.19c-.55 2.01-.661 6.44 6.438 13.538 7.1 7.1 11.529 6.988 13.537 6.438a2.46 2.46 0 001.446-1.118l1.208-2.014a1.004 1.004 0 00-.304-1.352zM13.086 3.963a6.749 6.749 0 016.741 6.74.397.397 0 10.793 0 7.543 7.543 0 00-7.534-7.534.397.397 0 000 .794z"/><path d="M13.086 6.342a4.367 4.367 0 014.362 4.362.397.397 0 00.793 0 5.161 5.161 0 00-5.155-5.155.397.397 0 000 .793z"/><path d="M13.086 8.72a1.985 1.985 0 011.983 1.984.396.396 0 10.793 0 2.779 2.779 0 00-2.776-2.776.397.397 0 000 .793z"/></g><defs><clipPath id="clip0"><path fill="#fff" transform="translate(0 .394)" d="M0 0h23v23H0z"/></clipPath></defs></svg>