<svg width="133" height="81" fill="none" xmlns="http://www.w3.org/2000/svg"><path d="M18.062 16.446a1.27 1.27 0 001.314.047c.19-.105.35-.257.467-.44l2.313-3.793a1.318 1.318 0 00-.417-1.78 1.295 1.295 0 00-1.78.416l-2.313 3.77a1.272 1.272 0 00.393 1.78m-3.029-1.294h.324a1.272 1.272 0 001.248-.994l2.891-11.91a1.299 1.299 0 00-2.52-.625l-2.891 11.933a1.273 1.273 0 00.948 1.55m114.567 42.412h-5.25l5.25-3.446v3.446zm-9.944-16.327l8.603 4.487v6.036l-8.603 4.394V41.19zm-2.452 15.865h-8.279V40.405h8.279v16.65zm-3.469 7.654h-2.89a10.033 10.033 0 00-8.661-4.964 10.038 10.038 0 00-8.66 4.964H71.09a1.226 1.226 0 00-1.226 1.226v1.735h-1.04a10.06 10.06 0 00-19.797.878h-8.464L40.38 42.81a1.202 1.202 0 00-.555-1.018l-4.093-2.752a1.25 1.25 0 00-.694-.23h-17.83v-4.163h22.317l3.445 4.255v18.847a1.226 1.226 0 001.226 1.226h3.932a1.226 1.226 0 001.225-1.226V42.347h1.92v7.84a1.226 1.226 0 001.226 1.226H68.06l1.874 2.012v8.464a1.226 1.226 0 001.225 1.226h20.814a1.201 1.201 0 001.225-1.226V51.482h5.227v1.11a1.248 1.248 0 00.532.995l8.117 5.781c.212.146.461.226.717.232h2.66l3.26 3.445v1.665zm-11.563 12.72a7.632 7.632 0 110-15.263 7.632 7.632 0 010 15.263zm-43.153 0a7.632 7.632 0 110-15.263 7.632 7.632 0 010 15.263zm-23.913-9.76v-9.712h3.007v10.221l-3.007-.508zm-2.312-26.456h1.85l3.26 2.313v12.188H34.83l-2.058-14.5zm-3.215 31.73a9.527 9.527 0 01-9.065-1.457c-3.353-2.498-1.92-6.73.647-12.928 1.689-4.093 3.307-7.979 2.313-11.147-1.272-4.255-6.36-3.77-10.846-3.353-4.88.486-8.164.601-9.112-1.873a4.302 4.302 0 01-.254-2.683l6.013 2.313c.145.021.293.021.439 0 .183-.003.364-.042.532-.116a1.178 1.178 0 00.647-.763L11.772 38h2.96v1.92a1.226 1.226 0 001.226 1.225h14.5l2.128 15.24c.003.118.044.23.116.324v12.025a1.249 1.249 0 001.04 1.226h.393a12.21 12.21 0 01-4.44 2.868l-.139.115zM14.964 19.405L8.882 39.064l-4.186-1.642 10.268-18.016zm67.412 31.868a4.278 4.278 0 014.279-4.278h.485a3.515 3.515 0 013.446 3.515v9.99h-8.21v-9.227zm18.386-5.642l5.689-4.024v14.315l-5.689-4.047v-6.244zm30.619 5.018a1.25 1.25 0 00-.694-.139v-5.573a1.204 1.204 0 00-.671-1.087l-11.054-5.782a1.087 1.087 0 00-.555-.115h-10.731a1.205 1.205 0 00-.901.416l-7.933 5.643a1.249 1.249 0 00-.532.994v3.955H92.9a5.943 5.943 0 00-5.759-4.418h-.485a6.753 6.753 0 00-6.73 6.73v9.459h-7.608v-7.77a1.18 1.18 0 00-.324-.833l-1.712-1.85a.928.928 0 000-.347v-6.337h4.487v12.627a1.226 1.226 0 002.451 0V42.347a1.226 1.226 0 00-1.225-1.225h-6.938a1.226 1.226 0 00-1.226 1.225v6.591H53.584v-7.816a1.226 1.226 0 00-1.156-1.203h-4.301a1.203 1.203 0 00-1.226 1.226v15.402h-1.48V38.462c0-.275-.09-.543-.255-.763l-4.116-5.041a1.18 1.18 0 00-.948-.463h-24.12a1.226 1.226 0 00-1.226 1.226v.462h-1.642l4.625-14.777a1.226 1.226 0 00-.67-1.48l-2.082-.925a1.249 1.249 0 00-1.55.532L2.707 35.942a6.152 6.152 0 00-1.457 1.78 6.221 6.221 0 00-.116 5.343c1.689 4.393 6.938 3.885 11.563 3.445 4.626-.44 7.609-.555 8.28 1.62.67 2.173-.81 5.966-2.313 9.504-2.313 5.62-4.972 12.002.162 15.818a12.048 12.048 0 007.261 2.52 11.887 11.887 0 004.371-.716 14.616 14.616 0 006.499-4.625l2.312.37h9.69a10.061 10.061 0 1020.097-1.018h2.035a1.226 1.226 0 001.226-1.225v-1.665h20.142a10.084 10.084 0 1019.403 0h3.099a1.227 1.227 0 001.226-1.226v-3.33a1.184 1.184 0 00-.347-.856l-1.85-1.92 16.789.209a1.16 1.16 0 00.879-.347 1.27 1.27 0 00.37-.879v-6.938a1.227 1.227 0 00-.647-1.087" fill="#AF1917"/><path d="M58.996 72.436a2.613 2.613 0 112.636-2.613 2.636 2.636 0 01-2.636 2.613zm0-7.678a5.064 5.064 0 105.087 5.065 5.088 5.088 0 00-5.087-5.065zm43.153 7.678a2.615 2.615 0 01-1.817-4.47 2.614 2.614 0 014.453 1.857 2.634 2.634 0 01-2.636 2.613zm0-7.678a5.063 5.063 0 00-4.941 6.067 5.064 5.064 0 0010.029-1.002 5.086 5.086 0 00-5.088-5.065z" fill="#AF1917"/></svg>