<svg width="17" height="20" fill="none" xmlns="http://www.w3.org/2000/svg"><path d="M13.478 12.588c-.318 0-.478.243-.479.73v.488h.955v-.483c0-.493-.16-.735-.476-.735z" fill="#fff"/><path d="M15.81 9.91a1.994 1.994 0 00-1.706-1.553c-1.958-.218-3.94-.22-5.913-.218-1.974.002-3.955 0-5.913.218A1.995 1.995 0 00.57 9.91c-.276 1.196-.276 2.5-.276 3.732 0 1.232 0 2.537.276 3.733a1.995 1.995 0 001.704 1.553c1.958.22 3.94.22 5.913.22 1.974 0 3.955 0 5.913-.22a1.994 1.994 0 001.707-1.552c.276-1.196.276-2.5.276-3.732 0-1.232.002-2.537-.274-3.733zM4.798 10.986H3.654v6.07h-1.06v-6.07H1.47v-.994h3.327v.994zm2.883 6.07h-.955v-.576c-.38.436-.74.647-1.091.647-.308 0-.519-.124-.614-.392a2.665 2.665 0 01-.084-.782v-4.16h.953v3.875a2.69 2.69 0 00.01.37c.022.148.095.224.222.224.192 0 .392-.148.604-.447v-4.022h.955v5.262zm3.625-1.582c.013.357-.02.713-.096 1.061-.128.392-.383.592-.763.592-.339 0-.667-.188-.986-.582v.51h-.954V9.992h.954v2.307c.308-.379.635-.57.986-.57.38 0 .635.2.763.594.078.347.11.703.095 1.06v2.092zm3.601-.878h-1.908v.934c0 .487.16.73.487.73.235 0 .373-.128.426-.383.02-.215.026-.43.021-.647h.974v.138a7.4 7.4 0 01-.02.615c-.03.205-.106.4-.223.572a1.317 1.317 0 01-1.154.57 1.364 1.364 0 01-1.155-.539c-.203-.263-.306-.678-.306-1.241v-1.836c0-.563.092-.974.295-1.241a1.354 1.354 0 011.142-.541 1.324 1.324 0 011.126.54c.2.267.295.678.295 1.242v1.087z" fill="#fff"/><path d="M9.935 12.588a.69.69 0 00-.474.231v3.21a.679.679 0 00.474.236c.276 0 .414-.236.414-.712v-2.247c.003-.476-.138-.718-.414-.718z" fill="#fff"/><path fill-rule="evenodd" clip-rule="evenodd" d="M6.536.047h-1.08l-.73 2.803L3.967.047H2.843c.225.66.46 1.327.69 1.989.268.737.486 1.491.652 2.258V7.19h1.07V4.294L6.534.047zM9.394 5.46V3.599c0-.569-.098-.984-.3-1.253a1.43 1.43 0 00-2.246 0c-.206.27-.303.69-.303 1.253V5.46c0 .565.097.985.303 1.25a1.43 1.43 0 002.247 0c.2-.264.299-.683.299-1.25zm-.966.182c0 .492-.149.738-.46.738-.312 0-.46-.246-.46-.738V3.406c0-.493.15-.737.46-.737.31 0 .46.244.46.737v2.237zm4.529 1.54V1.865h-.966V5.93c-.214.302-.414.451-.608.451-.13 0-.206-.076-.226-.225a2.119 2.119 0 01-.013-.375V1.865h-.965v4.207a2.66 2.66 0 00.085.79c.095.276.31.396.621.396.35 0 .717-.214 1.104-.654v.58h.968z" fill="#fff"/></svg>