<svg width="141" height="80" fill="none" xmlns="http://www.w3.org/2000/svg"><path d="M4.24 70.86l3.779-5.045 1.877 1.08a1.408 1.408 0 001.878-.446l1.173-1.878 4.037-4.694c4.693 5.422 5.304 5.422 5.914 5.422.847-.06 1.687-.194 2.51-.4l4.859 2.63.727 3.355-26.754-.023zm27.904-5.491l-5.89-3.192a1.361 1.361 0 00-1.01-.117c-.68.164-1.548.352-2.041.422a70.21 70.21 0 01-5.163-5.632 1.455 1.455 0 00-1.033-.493c-.4.012-.779.18-1.056.47l-5.116 5.914-.14.164-.517.845-1.784-1.056a1.385 1.385 0 00-1.807.375L.392 71.424a1.384 1.384 0 001.126 2.206h31.19a1.362 1.362 0 001.08-.516 1.408 1.408 0 00.28-1.174l-1.22-5.632a1.502 1.502 0 00-.704-.939z" fill="#AF1917"/><path d="M17.876 64.688a1.412 1.412 0 10-2.347 1.572l1.713 2.464a1.43 1.43 0 001.127.587c.288.009.57-.083.798-.258a1.385 1.385 0 00.352-1.925l-1.643-2.44zM83.587 48.87H77.25a1.385 1.385 0 000 2.746h6.337a1.384 1.384 0 000-2.746zm-33.654-4.435a1.385 1.385 0 00-1.948 0 1.361 1.361 0 000 1.924l8.12 8.566a1.361 1.361 0 00.986.422 1.291 1.291 0 00.938-.375 1.337 1.337 0 000-1.925l-8.096-8.612zm63.647 26.801a2.136 2.136 0 112.112-2.112 2.113 2.113 0 01-2.112 2.112zm0-7.04a4.858 4.858 0 100 9.716 4.858 4.858 0 000-9.716zm-47.055 7.04a2.135 2.135 0 11.447-4.247 2.135 2.135 0 01-.447 4.247zm0-7.04a4.858 4.858 0 100 9.716 4.858 4.858 0 000-9.716z" fill="#AF1917"/><path d="M137.235 64.337l-6.078 3.285a1.332 1.332 0 00-.704 1.197v7.04h-3.755v-6.148a1.358 1.358 0 00-1.361-1.361h-1.221a10.559 10.559 0 00-10.56-10.561 10.562 10.562 0 00-10.561 10.56l-25.933-.187a10.279 10.279 0 00-.915-3.403h6.125a1.36 1.36 0 001.315-1.29v-7.323a1.315 1.315 0 00-.423-.986 1.268 1.268 0 00-.986-.375l-6.101.117-3.028-2.558-.704-5.75h7.04c.266.006.528-.067.752-.21.24-.162.428-.39.54-.658l.68-1.783 2.887-7.37v-.187h6.383l-3.966 22.389a1.383 1.383 0 001.361 1.619h5.89a1.338 1.338 0 001.174-.68l6.243-10.538h7.815v2.018a1.363 1.363 0 00.834 1.279c.167.07.346.106.527.106h17.319a1.455 1.455 0 001.08-.517 1.413 1.413 0 00.258-1.173 5.89 5.89 0 01.61-4.412 3.357 3.357 0 013.051-.704 4.695 4.695 0 013.755 2.018 7.815 7.815 0 01-.61 6.102 1.384 1.384 0 00.258 1.596l1.009 1.009v7.839zm-23.656 12.626a7.859 7.859 0 01-7.282-4.843 7.858 7.858 0 011.7-8.579 7.855 7.855 0 018.578-1.7 7.859 7.859 0 014.843 7.283 7.864 7.864 0 01-7.839 7.839zm-47.054 0a7.862 7.862 0 110-15.724 7.862 7.862 0 010 15.724zm-9.387-3.169h-4.694v-5.116a1.36 1.36 0 00-.634-1.15 1.384 1.384 0 00-1.314 0l-4.107 1.878v-4.107l3.685 1.009a1.36 1.36 0 001.197-.235 1.383 1.383 0 00.54-1.08v-9.387a1.408 1.408 0 00-.259-.798l-9.035-12.837-14.715-18.14 1.15-1.503a1.315 1.315 0 00.141-1.431l-1.033-2.019a1.339 1.339 0 00-.962-.727l-1.854-.376-1.971-5.444.798-4.107 2.722-2.957 3.239 3.59-1.408 7.158a1.314 1.314 0 00.305 1.174l3.027 3.379-1.337.399a1.409 1.409 0 00-.94 1.009 1.43 1.43 0 00.423 1.314l30.509 27.763 8.636 7.862a10.794 10.794 0 00-2.769-.375 10.608 10.608 0 00-10.584 10.584 10.373 10.373 0 001.103 4.694l.14-.024zM76.992 36.41h4.412l-1.103 2.793-1.83 4.694h-5.469l3.99-7.487zm62.52 18.493l-.681-.821a9.88 9.88 0 00.164-7.698 7.037 7.037 0 00-5.82-3.473 5.89 5.89 0 00-5.421 1.596 7.03 7.03 0 00-1.478 5.186h-14.41v-1.948a1.358 1.358 0 00-1.361-1.36h-9.951a1.315 1.315 0 00-1.173.656l-6.243 10.538h-3.497l3.943-22.272a1.385 1.385 0 00-.305-1.126 1.407 1.407 0 00-1.056-.493H76.218a1.36 1.36 0 00-1.197.727l-5.398 10.021a1.408 1.408 0 00-.164.822l.985 8.002c.034.347.203.667.47.892l3.825 3.239c.264.2.584.315.915.328l5.234-.117v4.46h-4.13L33.692 22.89l1.103-.352a1.361 1.361 0 00.61-2.206l-3.966-4.459 1.431-7.04a1.455 1.455 0 00-.328-1.197l-4.694-5.21a1.385 1.385 0 00-1.009-.446 1.291 1.291 0 00-1.01.422l-1.055 1.103L21.982.714a1.362 1.362 0 10-1.924 1.924l2.84 2.863-1.08 1.15a1.268 1.268 0 00-.352.68l-.939 4.882a1.527 1.527 0 000 .728l2.347 6.5a1.408 1.408 0 001.033.892l1.947.376.352.727-1.29 1.666a1.338 1.338 0 000 1.69l15.348 18.916 8.66 12.368v7.228l-3.685-1.01a1.385 1.385 0 00-1.197.235 1.362 1.362 0 00-.352.94v7.978a1.43 1.43 0 00.61 1.15 1.455 1.455 0 001.315 0l4.107-1.877v4.482a1.363 1.363 0 001.384 1.362h7.51c.132.021.267.021.4 0a10.467 10.467 0 007.603 3.262 10.608 10.608 0 0010.443-8.848l26.191.117a10.59 10.59 0 0010.319 8.696 10.586 10.586 0 0010.474-8.508v6.172a1.387 1.387 0 001.361 1.385h6.501a1.385 1.385 0 001.361-1.385V69.64l6.078-3.309a1.31 1.31 0 00.705-1.197v-9.387a1.366 1.366 0 00-.399-.962" fill="#AF1917"/></svg>