<svg width="138" height="53" fill="none" xmlns="http://www.w3.org/2000/svg"><path d="M64.94 13.478H10.156V7.35h12.696v3.145a.926.926 0 00.925.902h41.165v2.081zm1.828.902v-3.931a.903.903 0 00-.902-.925H24.701V6.54a.925.925 0 00-.925-.925H9.23a.925.925 0 00-.902.925v8.002a.925.925 0 00.902.925h56.636a.903.903 0 00.902-.925" fill="#AF1917"/><path d="M28.47 2.54h42.645v3.607H28.47V2.54zm-.925 5.457H72.04a.902.902 0 00.902-.925V1.614A.902.902 0 0072.04.69H27.545a.925.925 0 00-.925.926v5.457a.925.925 0 00.925.925zM67 45.669a3.1 3.1 0 110-6.198 3.1 3.1 0 010 6.198zm0-8.048a4.949 4.949 0 100 9.898 4.949 4.949 0 000-9.898zm14.637-12.187l-6.175 2.127V15.12h6.175v10.314zm.925-12.142H74.56a.88.88 0 00-.901.902v14.662a.903.903 0 001.202.856l8.025-2.752a.878.878 0 00.601-.856v-11.91a.879.879 0 00-.902-.902m24.214 32.377a3.095 3.095 0 01-2.846-1.929 3.1 3.1 0 012.273-4.21 3.098 3.098 0 11.573 6.139zm0-8.048a4.945 4.945 0 00-4.572 3.055 4.945 4.945 0 001.073 5.394 4.948 4.948 0 008.448-3.5 4.92 4.92 0 00-3.051-4.578 4.93 4.93 0 00-1.898-.37z" fill="#AF1917"/><path d="M112.303 34.568h-.532l-.208-.277-.509-.278-.277-.139-.486-.208-.37-.115-.463-.162-.416-.116h-1.341a10.12 10.12 0 00-1.873 0h-.162l-.81.139a9.711 9.711 0 00-4.162 2.012h-.116a.858.858 0 00-.486-.185h-4.417v-.231l4.279-9.25h35.914v.161l.185 8.765-23.75-.116zm15.263 6.406h-4.44a.902.902 0 00-.925.902v5.273h-3.261v-5.227a.999.999 0 00-.277-.67.86.86 0 00-.671-.255h-1.735v-.185c0-.231 0-.485-.161-.763 0-.254-.139-.486-.232-.74 0-.231-.185-.462-.277-.694l-.347-.67.116-.14h-.139a11.92 11.92 0 00-.717-1.04l-.208-.277h21.738l-8.464 4.486zm-20.813 9.25a7.794 7.794 0 01-7.77-7.77v-.231a6.525 6.525 0 01.184-1.503c.115-.45.262-.89.44-1.319v-.138c.16-.356.354-.697.578-1.018a.986.986 0 01.185-.254 4.76 4.76 0 01.555-.648l.462-.462.625-.486.532-.347.832-.462.393-.14a5.794 5.794 0 011.18-.37h.139a7.722 7.722 0 012.913 0c.46.097.909.236 1.342.417.434.17.852.38 1.249.625.41.257.79.56 1.133.901.36.32.685.677.971 1.064.282.395.53.812.74 1.25.439.886.691 1.855.74 2.844v.393a7.793 7.793 0 01-7.793 7.77l.37-.116zm-9.62-10.568v.809a6.82 6.82 0 000 .671v.208h-9.968l.185-1.943a.879.879 0 00-.231-.716.9.9 0 00-.671-.301H75.972a9.62 9.62 0 00-18.131.763l-1.064 3.469a1.14 1.14 0 000 .278v4.301h-3.284V30.452h3.215v1.526a.901.901 0 00.555.856.926.926 0 00.994-.208l1.11-1.11h6.267a.902.902 0 00.902-.902v-3.261a.902.902 0 00-.624-.856l-16.073-5.62h-.254l-8.765-.462v-2.081h28.468a.925.925 0 00.925-.925v-6.244h18.062v7.539a.925.925 0 00.925.925h4.625a.925.925 0 00.925-.925v-1.527h10.291v1.596a.927.927 0 00.925.925h16.327l9.922 4.116H99.491a.902.902 0 00-.832.532L93.386 35.54a.855.855 0 000 .88.855.855 0 00.763.439h4.833l-.185.254a10.339 10.339 0 00-1.225 2.544h-.44zM66.998 50.34a7.77 7.77 0 117.77-7.77A7.793 7.793 0 0167 50.34zm70.928-14.847l-.208-10.638a.84.84 0 000-.324l-.139-.23a.821.821 0 00-.231-.186l-14.408-5.943a.925.925 0 00-.347 0h-15.795v-1.92a.885.885 0 00-.257-.645.884.884 0 00-.645-.257h-12.14a.879.879 0 00-.902.902v1.596h-2.752v-7.54a.925.925 0 00-.902-.924H69.288a.925.925 0 00-.925.925v6.175H39.872a.925.925 0 00-.925.925v3.885a.925.925 0 00.879.925l9.527.44 15.333 5.249v1.757h-6.151v-.323a.925.925 0 00-.925-.925h-5.02a.925.925 0 00-.925.925v18.5a.925.925 0 00.925.903h5.019a.925.925 0 00.925-.902v-.926l.323.51a9.597 9.597 0 0017.761-5.088c-.01-.7-.087-1.397-.231-2.082v-.208h9.042l-.115 1.156-.208.625a.855.855 0 00.138.81.855.855 0 00.74.392h11.24v.51a9.622 9.622 0 0019.171-.37v-.163h.694v5.157a.924.924 0 00.925.902h5.111a.903.903 0 00.902-.902v-5.365h3.908c.145.031.295.031.44 0l9.134-5.018a.967.967 0 00.486-.833v-1.226" fill="#AF1917"/><path d="M65.865 19.26a.925.925 0 00-.925.925v3.422a.925.925 0 101.827 0v-3.422a.925.925 0 00-.902-.925zm-6.197.231a.925.925 0 00-.902.925v2.058a.925.925 0 001.827 0v-2.058a.925.925 0 00-.925-.925zM6.87 8.506a.925.925 0 00-.115-.694.833.833 0 00-.555-.416h-.231a.832.832 0 00-.463.139L1.39 9.847a.879.879 0 00-.463.763.833.833 0 00.417.787l4.116 2.752a.925.925 0 001.415-.945.902.902 0 00-.397-.582l-2.891-1.92L6.43 9.016a.902.902 0 00.44-.555" fill="#AF1917"/></svg>