<svg width="90" height="67" fill="none" xmlns="http://www.w3.org/2000/svg"><path d="M75.922 63.736a11.331 11.331 0 1111.332-11.332 11.355 11.355 0 01-11.332 11.332zM62.046 50.161h-7.608v-.278a13.876 13.876 0 00-10.222-10.938h-.324l1.457-5.643h23.196a1.249 1.249 0 001.087-.648l6.73-11.308h8.394v9.25h-4.625a1.295 1.295 0 000 2.59h4.625v8.51l-.532-.392a13.736 13.736 0 00-8.302-2.799 13.875 13.875 0 00-13.69 11.378l-.186.278zM40.654 63.736a11.331 11.331 0 1111.332-11.332 11.355 11.355 0 01-11.331 11.332zm-14.87-24.421l3.886-6.105h12.88l-1.317 5.295h-.555a13.875 13.875 0 00-9.32 3.654l-5.574-2.844zm-6.082 4.625v-1.064a7.331 7.331 0 00-2.312-4.926l-.209-.185 3.793-5.85.3.208a5.55 5.55 0 003.308 1.087h2.104l-6.984 10.73zm-2.613 9.551a4.74 4.74 0 01-4.625 4.764h-6.29l5.503-19.75h.671a4.764 4.764 0 014.625 4.764l.116 10.222zm7.493-29.162h18.084c.282-.003.557-.092.787-.254l3.561-2.73h26.34l-5.55 9.251h-2.728v-3.122a1.319 1.319 0 00-1.295-1.295 1.295 1.295 0 00-1.295 1.295v3.122H57.86v-3.122a1.295 1.295 0 10-2.59 0v3.122h-4.787v-3.122a1.296 1.296 0 10-2.567 0v3.122H24.582a3.146 3.146 0 010-6.29v.023zM57.86 2.96h11.401v15.75H53.813L57.86 2.96zm13.992 0h2.798v.255c1.226 4.764 2.798 11.563 3.63 15.078v.416h-6.428V2.96zm15.54 41.628v-24.56a1.295 1.295 0 00-1.295-1.295h-4.995v-.255c-.624-2.66-2.729-11.771-4.14-17.113a1.318 1.318 0 00-1.318-.833H53.767a1.295 1.295 0 000 2.567h1.341l-4.047 15.75h-4.625a1.25 1.25 0 00-.578.184l-3.562 2.752H24.582a5.735 5.735 0 00-5.712 5.712c-.009.713.125 1.42.393 2.082v.162l-4.348 6.706h-.254a7.792 7.792 0 00-2.313-.393h-1.642a1.318 1.318 0 00-1.249.948L3.491 58.348H1.5a1.295 1.295 0 000 2.59h10.847a7.377 7.377 0 007.331-7.354v-4.857l5.365-8.28-.624 1.227 5.041 2.59a13.875 13.875 0 1025.139 8.81v-.323h7.446v.324a13.88 13.88 0 0027.752-.67 13.876 13.876 0 00-2.313-7.725" fill="#AF1917"/><path d="M40.724 56.497a4.093 4.093 0 11-.046-8.186 4.093 4.093 0 01.046 8.186zm0-10.73a6.66 6.66 0 10-.045 13.321 6.66 6.66 0 00.045-13.321zm35.198 10.73a4.094 4.094 0 11-.046-8.188 4.094 4.094 0 01.046 8.188zm0-10.73a6.66 6.66 0 100 13.32 6.66 6.66 0 000-13.32z" fill="#AF1917"/></svg>