<svg width="19" height="19" fill="none" xmlns="http://www.w3.org/2000/svg"><path d="M9.498 2.143c2.398 0 2.68.009 3.628.053a4.98 4.98 0 011.667.309 2.96 2.96 0 011.702 1.702 4.99 4.99 0 01.309 1.666c.044.948.052 1.23.052 3.626s-.008 2.68-.052 3.628a4.977 4.977 0 01-.31 1.666 2.96 2.96 0 01-1.701 1.702 4.98 4.98 0 01-1.667.31c-.946.043-1.23.052-3.627.052-2.398 0-2.68-.009-3.627-.053a4.98 4.98 0 01-1.666-.309 2.962 2.962 0 01-1.702-1.702 4.979 4.979 0 01-.31-1.666c-.043-.948-.052-1.23-.052-3.628 0-2.397.009-2.678.053-3.626a4.979 4.979 0 01.309-1.666 2.961 2.961 0 011.702-1.702 4.98 4.98 0 011.666-.31c.948-.043 1.23-.052 3.627-.052zm0-1.617C7.063.526 6.756.536 5.8.58a6.565 6.565 0 00-2.178.413 4.58 4.58 0 00-2.62 2.621 6.582 6.582 0 00-.417 2.179C.541 6.75.53 7.057.53 9.493c0 2.435.011 2.743.055 3.7.014.744.154 1.48.414 2.178a4.579 4.579 0 002.621 2.62 6.564 6.564 0 002.178.415c.957.044 1.264.055 3.7.055 2.435 0 2.743-.011 3.7-.055a6.564 6.564 0 002.178-.414 4.578 4.578 0 002.621-2.621c.26-.697.4-1.434.414-2.178.044-.957.055-1.263.055-3.7 0-2.438-.01-2.743-.055-3.7a6.563 6.563 0 00-.414-2.178 4.577 4.577 0 00-2.62-2.62A6.565 6.565 0 0013.198.58C12.242.537 11.936.526 9.5.526z" fill="#fff"/><path d="M9.499 4.892a4.609 4.609 0 100 9.217 4.609 4.609 0 000-9.217zm0 7.599a2.991 2.991 0 110-5.983 2.991 2.991 0 010 5.983zm4.791-6.703a1.077 1.077 0 100-2.155 1.077 1.077 0 000 2.155z" fill="#fff"/></svg>