<svg width="141" height="47" fill="none" xmlns="http://www.w3.org/2000/svg"><path d="M46.399 35.71a3.26 3.26 0 11-.047-6.522 3.26 3.26 0 01.047 6.522zm0-9.089a5.828 5.828 0 100 11.656 5.828 5.828 0 000-11.656zm70.813 9.089a3.26 3.26 0 11-.047-6.52 3.26 3.26 0 01.047 6.52zm0-9.089a5.827 5.827 0 00-1.137 11.544 5.827 5.827 0 101.137-11.544zm-87.094-1.895H24.52V11.15h5.597v13.575zm1.295-16.189h-8.187a1.318 1.318 0 00-1.295 1.295v16.189a1.318 1.318 0 001.295 1.295h8.187a1.318 1.318 0 001.295-1.295V9.832a1.318 1.318 0 00-1.295-1.295z" fill="#AF1917"/><path d="M137.516 19.221a9.25 9.25 0 00-4.625 1.874l-8.881-6.476a1.247 1.247 0 00-.763-.23h-17.853a1.275 1.275 0 00-1.018.485L88.188 35.572a1.157 1.157 0 00-.231.716l-8.626.37c0-4.116-.833-16.35-6.106-23.935h57.931l6.36 6.175v.323zm-8.256 6.753a13.574 13.574 0 00-22.503-1.838 13.577 13.577 0 00-2.936 8.221 85.911 85.911 0 00-12.164 3.191l14.546-18.5h16.605l8.048 6.012a14.282 14.282 0 00-1.712 3.03l.116-.116zM117.211 43.55a10.988 10.988 0 01-10.088-6.803 10.989 10.989 0 012.374-11.933 10.99 10.99 0 0111.924-2.424 10.987 10.987 0 016.845 10.06 10.986 10.986 0 01-10.985 10.984l-.07.116zm-48.056-6.892h-9.852a13.09 13.09 0 00.671-4.162 13.575 13.575 0 10-26.526 3.862l-14.5-.162L2.76 33.883v-.693l3.191-.232a1.342 1.342 0 001.18-1.202l.925-12.604h11.679a1.272 1.272 0 00.925-.37 1.32 1.32 0 00.37-.902V9.763a1.295 1.295 0 00-1.25-1.295h-2.636l.162-1.04 20.328.161 1.665 7.91a1.295 1.295 0 001.272 1.04l26.665-.162.6 16.951a1.295 1.295 0 001.296 1.25h7.632c0 .832 0 1.572.115 2.127l-7.724-.047zM46.4 43.434a10.985 10.985 0 110-21.97 10.985 10.985 0 010 21.97zM16.543 11.059c.1.01.2.01.3 0h1.435v5.55h-2.66l.925-5.55zm58.81 14.176a61.19 61.19 0 011.064 6.938h-6.198l-.231-6.938h5.365zm-1.573-5.573c.37.971.671 1.966.948 2.983h-4.833v-2.983h3.885zM87.31 4.05l3.537 3.977a1.342 1.342 0 001.041.44 1.341 1.341 0 00.994-.555l2.706-3.885a1.295 1.295 0 001.85-.185l.763-.949 12.026 4.21c.278.091.578.091.856 0l3.469-1.226a109.412 109.412 0 0111.817 4.255H74.913L87.31 4.05zm52.519 13.505l-7.216-7.053a1.365 1.365 0 00-.902-.37h-.601c-2.197-2.428-10.916-5.273-16.188-6.938a1.366 1.366 0 00-.81 0l-3.445 1.364L98.201.12a1.272 1.272 0 00-1.433.417l-.51.624-.16-.139a1.342 1.342 0 00-1.019-.3 1.365 1.365 0 00-.878.531l-2.613 3.724-3.1-3.492a1.318 1.318 0 00-1.549-.301l-14.8 7.4a1.317 1.317 0 00-.671.833l-3.955-1.711a1.295 1.295 0 00-1.087 2.312 14.361 14.361 0 016.175 6.938h-3.007v-1.989a1.295 1.295 0 00-1.295-1.249l-26.849.093-1.665-7.886a1.272 1.272 0 00-1.249-1.018l-22.479-.185a1.319 1.319 0 00-1.295 1.087l-1.757 10.615-6.29-.139a1.318 1.318 0 00-1.226.925.44.44 0 000 .186.67.67 0 010 .208l-.902 12.51-3.26.255A1.295 1.295 0 00.123 31.64v3.007a1.341 1.341 0 00.948 1.595l17.506 2.544h.162l15.703.162a13.551 13.551 0 0023.68.231l10.963.116h8.857l11.933-.509a.993.993 0 00.44 0 74.888 74.888 0 0113.413-3.746 13.573 13.573 0 0023.377 6.649 13.574 13.574 0 003.541-9.147c.009-.776-.061-1.55-.208-2.313 1.804-8.996 7.424-8.464 7.655-8.44a1.293 1.293 0 001.434-.972l.509-2.012a1.344 1.344 0 00-.37-1.249" fill="#AF1917"/><path d="M30.58 28.217H11.57a1.318 1.318 0 00-1.295 1.295 1.318 1.318 0 001.295 1.295h19.01a1.295 1.295 0 001.295-1.295 1.318 1.318 0 00-1.295-1.295zm-17.945-1.388a1.294 1.294 0 001.063-.578l2.66-3.955a1.302 1.302 0 10-2.174-1.433l-2.636 3.954a1.27 1.27 0 00.37 1.78c.206.156.459.237.717.232zM84.326 14.04a1.294 1.294 0 00-1.804.37L79.4 19.036a1.294 1.294 0 00.347 1.803 1.318 1.318 0 001.804-.37l3.122-4.625a1.272 1.272 0 00-.347-1.804zm3.514.37l-3.145 4.626a1.295 1.295 0 001.087 2.012 1.248 1.248 0 001.064-.578l3.145-4.626a1.295 1.295 0 00-.37-1.804 1.272 1.272 0 00-1.78.37z" fill="#AF1917"/></svg>