<svg width="66" height="66" fill="none" xmlns="http://www.w3.org/2000/svg"><path d="M50.906 50.827H23.829a.974.974 0 000 1.948h27.076a.974.974 0 100-1.948zm0-6.842H23.829a.974.974 0 000 1.948h27.076a.974.974 0 000-1.948zm-28.051-5.873c0 .539.436.975.974.975h17.23a.974.974 0 100-1.948h-17.23a.974.974 0 00-.974.973z" fill="#AA1D26"/><path d="M61.187 12.779l-1.756-1.907V4.054A4.065 4.065 0 0055.365 0H11.794a4.065 4.065 0 00-4.066 4.054v7.691H5.946a3.89 3.89 0 00-3.883 3.886v11.792a3.89 3.89 0 003.883 3.886h1.782v27.174a4.065 4.065 0 004.066 4.054h2.226A3.953 3.953 0 0017.938 66h41.919a3.955 3.955 0 003.953-3.948V19.974c0-3.443-.104-4.457-2.623-7.195zm.634 5.19h-7.297a2.004 2.004 0 01-2.005-1.998l.007-8.47c1.28.094 1.623.473 2.746 1.722.186.207.39.433.615.679l1.862 2.02.02.022 1.985 2.154c1.547 1.682 1.958 2.388 2.067 3.872zM9.676 4.055c0-1.161.95-2.106 2.118-2.106h43.57c1.168 0 2.119.945 2.119 2.106v4.704l-.162-.177c-.222-.239-.419-.459-.6-.66-1.601-1.781-2.301-2.397-5.168-2.397H17.938a3.953 3.953 0 00-3.95 3.948v2.273H9.677V4.054zm52.185 57.998c0 1.102-.899 2-2.004 2H17.938a2.003 2.003 0 01-2.001-2V47.936a.974.974 0 00-1.948 0v12.653h-2.195a2.114 2.114 0 01-2.118-2.106V31.31h4.313v12.167a.974.974 0 001.948 0V31.309h5.057a.974.974 0 000-1.948H5.946a1.939 1.939 0 01-1.935-1.938V15.631c0-1.069.868-1.938 1.935-1.938H31.6c1.07 0 1.94.87 1.94 1.938v11.792a1.94 1.94 0 01-1.94 1.938h-6.144a.974.974 0 100 1.948H31.6a3.891 3.891 0 003.887-3.886V15.631a3.891 3.891 0 00-3.887-3.886H15.937V9.472c0-1.103.898-2 2.001-2h32.64l-.007 8.499a3.955 3.955 0 003.953 3.948h7.337v42.133z" fill="#AA1D26"/><path d="M11.814 17.355H9.48c-.286 0-.53.1-.73.302-.2.2-.3.447-.3.742v6.898a.98.98 0 00.294.724c.196.197.43.296.7.296.27 0 .503-.099.7-.296a.954.954 0 00.295-.699v-2h1.498c.909 0 1.637-.273 2.186-.817.548-.544.822-1.258.822-2.142 0-.892-.29-1.616-.871-2.173-.582-.556-1.335-.835-2.26-.835zm.725 3.867a1.143 1.143 0 01-.835.356h-1.265v-2.442h1.277c.336 0 .616.12.841.361.225.242.338.535.338.878 0 .328-.119.61-.356.847zm10.571-1.528a3.84 3.84 0 00-1.222-1.528c-.729-.532-1.67-.798-2.824-.798h-2.051a.965.965 0 00-.725.307.983.983 0 00-.295.7v6.837a.98.98 0 00.283.724c.204.18.454.27.749.27h2.21c1.195 0 2.154-.323 2.874-.97.958-.875 1.437-2.033 1.437-3.473 0-.745-.146-1.435-.436-2.069zm-2.254 3.996c-.426.482-.99.724-1.695.724h-1.178v-5.242h1.068c.754 0 1.35.233 1.787.7.438.466.657 1.096.657 1.89 0 .803-.213 1.445-.639 1.928zm4.977 2.651a.951.951 0 00.706-.295.966.966 0 00.289-.7v-2.638h1.891c.27 0 .495-.088.675-.264a.852.852 0 00.27-.633.856.856 0 00-.276-.644.934.934 0 00-.669-.264h-1.891v-1.73h2.235c.254 0 .467-.09.638-.27a.877.877 0 00.258-.627.89.89 0 00-.264-.656.862.862 0 00-.632-.264h-3.218a.966.966 0 00-.724.307.998.998 0 00-.295.712v6.972c0 .27.102.503.307.7a.985.985 0 00.7.294z" fill="#AA1D26"/></svg>