<svg width="245" height="222" fill="none" xmlns="http://www.w3.org/2000/svg"><mask id="a" fill="#fff"><path d="M230.914 124.985l-42.137 73.144a30.963 30.963 0 01-10.393 9.833 30.912 30.912 0 01-13.699 4.104H80.251a30.97 30.97 0 01-13.713-4.103 31.023 31.023 0 01-10.411-9.834L13.99 124.985a30.858 30.858 0 010-27.906l42.137-73.112a30.956 30.956 0 0110.398-9.876A30.908 30.908 0 0180.25 9.967h84.37a30.843 30.843 0 0113.748 4.11 30.895 30.895 0 0110.408 9.89l42.137 73.112a31.238 31.238 0 010 27.906zm10.334-29.22l-46.072-80.128a33.839 33.839 0 00-11.451-10.824A33.785 33.785 0 00168.62.355h-92.4a33.689 33.689 0 00-15.021 4.483 33.742 33.742 0 00-11.375 10.8l-46.2 80.096a33.967 33.967 0 000 30.533l46.2 80.096a33.796 33.796 0 0011.378 10.792 33.744 33.744 0 0015.018 4.49h92.4a33.861 33.861 0 0015.089-4.44 33.926 33.926 0 0011.467-10.778l46.2-80.096a33.964 33.964 0 000-30.533"/></mask><path d="M231.892 125.549a1.128 1.128 0 10-1.956-1.128l1.956 1.128zm-43.115 72.58l.944.619.018-.027.016-.028-.978-.564zm-10.393 9.833l-.566-.977.566.977zm-13.699 4.104v1.129h.033l.032-.002-.065-1.127zm-84.434 0l-.065 1.127.032.002h.033v-1.129zm-13.713-4.103l-.565.977.565-.977zm-10.411-9.834l-.978.564.016.028.018.028.944-.62zM13.99 124.985l-1.007.511.014.026.015.027.978-.564zm0-27.906l-.978-.563-.015.026-.014.027 1.007.51zm42.137-73.112l-.946-.616-.017.026-.015.027.978.563zm10.398-9.876l.566.977-.566-.977zM80.25 9.967v-1.13h-.033l-.032.002.065 1.128zm84.37 0l.063-1.128-.031-.001h-.032v1.129zm24.156 14l.978-.563-.015-.027-.016-.025-.947.615zm42.137 73.112l1.01-.504-.015-.03-.017-.03-.978.564zm-1.01 27.402a1.128 1.128 0 102.02 1.008l-2.02-1.008zm10.366-28.152a1.128 1.128 0 101.957-1.126l-1.957 1.126zm-45.094-80.692l.979-.562-.016-.028-.018-.027-.945.617zm-11.45-10.824l.563-.978-.563.978zM168.62.355l.059-1.128-.029-.001h-.03V.355zm-92.4 0v-1.13h-.031l-.032.003.063 1.127zM49.824 15.637l-.946-.615-.017.025-.015.026.978.564zm-46.2 80.097l-.978-.564-.016.028-.015.028 1.009.508zM0 111h-1.129H0zm3.624 15.267l-1.009.507.015.029.016.028.978-.564zm46.2 80.096l-.978.564.015.027.017.026.946-.617zm11.378 10.792l-.565.977.565-.977zm15.018 4.49l-.064 1.128.032.001h.032v-1.129zm92.4 0v1.129h.03l.029-.001-.059-1.128zm15.089-4.44l-.561-.979.561.979zm11.467-10.778l.943.621.018-.028.017-.029-.978-.564zm46.2-80.096l.978.564.016-.028.015-.029-1.009-.507zm1.009-31.04a1.129 1.129 0 10-2.017 1.014l2.017-1.015zm-2.461-4.094a1.13 1.13 0 00-1.958 1.125l1.958-1.125zm-6.565-6.888a1.129 1.129 0 101.957-1.125l-1.957 1.125zm-2.65-9.138a1.13 1.13 0 00-1.958 1.125l1.958-1.125zm-6.565-6.887a1.13 1.13 0 001.958-1.126l-1.958 1.126zm-2.649-9.139a1.13 1.13 0 00-1.958 1.126l1.958-1.126zm-6.565-6.887a1.128 1.128 0 101.957-1.126l-1.957 1.126zm-2.65-9.139a1.129 1.129 0 10-1.957 1.126l1.957-1.125zm-6.565-6.887a1.13 1.13 0 001.958-1.125l-1.958 1.125zm-2.649-9.138a1.13 1.13 0 00-1.958 1.125l1.958-1.125zm-6.565-6.887a1.129 1.129 0 101.957-1.126l-1.957 1.126zm-2.823-8.487a1.129 1.129 0 10-1.733 1.448l1.733-1.448zm-7.306-3.82a1.13 1.13 0 001.349-1.812L186.372 7.9zM180.617 2a1.13 1.13 0 00-.889 2.076L180.617 2zm-8.24-.094a1.129 1.129 0 10.381-2.226l-.381 2.226zM164-.774a1.13 1.13 0 000 2.258V-.774zm-9.24 2.258a1.129 1.129 0 100-2.258v2.258zm-9.24-2.258a1.13 1.13 0 000 2.258V-.774zm-9.24 2.258a1.129 1.129 0 100-2.258v2.258zm-9.24-2.258a1.129 1.129 0 100 2.258V-.774zm-9.24 2.258a1.129 1.129 0 100-2.258v2.258zm-9.24-2.258a1.129 1.129 0 100 2.258V-.774zm-9.24 2.258a1.13 1.13 0 100-2.258v2.258zM90.08-.774a1.129 1.129 0 000 2.258V-.774zm-9.24 2.258a1.129 1.129 0 000-2.258v2.258zM72.098-.308a1.129 1.129 0 10.388 2.225l-.388-2.225zm-6.92 4.406a1.129 1.129 0 10-.896-2.073l.895 2.073zm-7.956 2.015a1.129 1.129 0 001.352 1.808l-1.352-1.808zm-4.183 7.064a1.13 1.13 0 10-1.735-1.445l1.735 1.445zm-6.503 5.901a1.129 1.129 0 101.956 1.128l-1.956-1.128zm-2.664 9.138a1.13 1.13 0 10-1.956-1.128l1.956 1.128zm-6.576 6.881a1.13 1.13 0 001.956 1.129l-1.956-1.129zm-2.664 9.138a1.13 1.13 0 00-1.956-1.128l1.956 1.128zm-6.576 6.882a1.13 1.13 0 001.956 1.128l-1.956-1.128zm-2.664 9.138a1.129 1.129 0 10-1.956-1.129l1.956 1.129zm-6.576 6.88a1.129 1.129 0 101.956 1.13l-1.956-1.13zm-2.664 9.139a1.129 1.129 0 10-1.956-1.128l1.956 1.128zm-6.576 6.881a1.129 1.129 0 101.956 1.128l-1.956-1.128zm-2.664 9.138a1.129 1.129 0 10-1.956-1.128l1.956 1.128zM.994 98.98a1.129 1.129 0 102.121.773L.994 98.98zm.358 8.203a1.13 1.13 0 00-2.243-.263l2.243.263zm-2.243 7.899a1.13 1.13 0 002.243-.263l-2.243.263zm4.006 7.167a1.13 1.13 0 00-2.121.774l2.121-.774zm1.84 8.587a1.128 1.128 0 101.957-1.128l-1.956 1.128zm6.577 6.882a1.129 1.129 0 10-1.956 1.128l1.956-1.128zm2.664 9.138a1.13 1.13 0 001.956-1.128l-1.956 1.128zm6.576 6.881a1.13 1.13 0 00-1.956 1.128l1.956-1.128zm2.664 9.138a1.13 1.13 0 001.956-1.128l-1.956 1.128zm6.576 6.881a1.128 1.128 0 10-1.956 1.129l1.956-1.129zm2.664 9.138a1.129 1.129 0 101.956-1.128l-1.956 1.128zm6.576 6.882a1.129 1.129 0 10-1.956 1.128l1.956-1.128zm2.664 9.138a1.129 1.129 0 101.956-1.129l-1.956 1.129zm6.576 6.881a1.13 1.13 0 00-1.956 1.128l1.956-1.128zm2.815 8.472a1.13 1.13 0 001.734-1.445l-1.734 1.445zm7.271 3.807a1.129 1.129 0 10-1.352 1.808l1.352-1.808zm5.707 5.896a1.13 1.13 0 00.895-2.073l-.895 2.073zm8.203.112a1.129 1.129 0 10-.39 2.224l.39-2.224zm8.352 2.693a1.129 1.129 0 100-2.258v2.258zm9.24-2.258a1.13 1.13 0 000 2.258v-2.258zm9.24 2.258a1.129 1.129 0 100-2.258v2.258zm9.24-2.258a1.129 1.129 0 000 2.258v-2.258zm9.24 2.258a1.128 1.128 0 100-2.258v2.258zm9.24-2.258a1.129 1.129 0 000 2.258v-2.258zm9.24 2.258a1.128 1.128 0 100-2.258v2.258zm9.24-2.258a1.13 1.13 0 000 2.258v-2.258zm9.24 2.258a1.128 1.128 0 100-2.258v2.258zm9.24-2.258a1.13 1.13 0 000 2.258v-2.258zm8.752 1.805a1.129 1.129 0 10-.38-2.226l.38 2.226zm6.964-4.387a1.13 1.13 0 00.886 2.077l-.886-2.077zm7.987-1.992a1.13 1.13 0 00-1.344-1.815l1.344 1.815zm4.236-7.061a1.13 1.13 0 001.729 1.454l-1.729-1.454zm6.525-5.895a1.129 1.129 0 10-1.956-1.128l1.956 1.128zm2.664-9.138a1.13 1.13 0 001.956 1.129l-1.956-1.129zm6.576-6.881a1.129 1.129 0 10-1.956-1.128l1.956 1.128zm2.664-9.138a1.13 1.13 0 001.956 1.128l-1.956-1.128zm6.576-6.881a1.129 1.129 0 10-1.956-1.128l1.956 1.128zm2.664-9.138a1.13 1.13 0 001.956 1.128l-1.956-1.128zm6.576-6.882a1.129 1.129 0 10-1.956-1.128l1.956 1.128zm2.664-9.137a1.13 1.13 0 001.956 1.128l-1.956-1.128zm6.576-6.882a1.128 1.128 0 10-1.956-1.128l1.956 1.128zm2.664-9.138a1.13 1.13 0 001.956 1.129l-1.956-1.129zm5.918-6.685a1.13 1.13 0 00-2.121-.774l2.121.774zm-.358-8.204a1.13 1.13 0 002.243.263l-2.243-.263zm2.243-7.898a1.13 1.13 0 10-2.243.262l2.243-.262zm-4.006-7.168a1.128 1.128 0 102.121-.773l-2.121.773zm-14.056 28.263a1.129 1.129 0 001.957 1.127l-1.957-1.127zm-2.257 8.441a1.13 1.13 0 00-1.957-1.127l1.957 1.127zm-6.17 6.187a1.128 1.128 0 101.956 1.128l-1.956-1.128zm-2.258 8.442a1.129 1.129 0 10-1.956-1.127l1.956 1.127zm-6.17 6.187a1.13 1.13 0 001.957 1.127l-1.957-1.127zm-2.257 8.442a1.129 1.129 0 10-1.957-1.127l1.957 1.127zm-6.17 6.187a1.129 1.129 0 101.956 1.127l-1.956-1.127zm-2.257 8.442a1.13 1.13 0 00-1.957-1.128l1.957 1.128zm-6.171 6.187a1.13 1.13 0 001.957 1.127l-1.957-1.127zm-2.257 8.441a1.13 1.13 0 00-1.956-1.127l1.956 1.127zm-6.1 5.267a1.13 1.13 0 101.732 1.449l-1.732-1.449zm-3.691 6.58a1.129 1.129 0 10-1.35-1.81l1.35 1.81zm-7.356 1.664a1.13 1.13 0 10.896 2.073l-.896-2.073zm-6.253 4.215a1.13 1.13 0 00-.391-2.224l.391 2.224zm-7.999-1.824a1.129 1.129 0 000 2.258v-2.258zm-8.443 2.258a1.13 1.13 0 000-2.258v2.258zm-8.443-2.258a1.13 1.13 0 100 2.258v-2.258zm-8.444 2.258a1.129 1.129 0 000-2.258v2.258zm-8.443-2.258a1.128 1.128 0 100 2.258v-2.258zm-8.444 2.258a1.129 1.129 0 000-2.258v2.258zm-8.443-2.258a1.128 1.128 0 100 2.258v-2.258zm-8.444 2.258a1.13 1.13 0 100-2.258v2.258zm-8.443-2.258a1.129 1.129 0 100 2.258v-2.258zm-8.443 2.258a1.13 1.13 0 000-2.258v2.258zm-7.611-2.658a1.129 1.129 0 10-.391 2.224l.39-2.224zm-7.546.083a1.129 1.129 0 00.894-2.074l-.894 2.074zm-5.12-5.548a1.129 1.129 0 10-1.349 1.811l1.35-1.811zm-6.78-3.32a1.128 1.128 0 101.73-1.45l-1.73 1.45zm-2.418-7.844a1.13 1.13 0 00-1.956 1.127l1.956-1.127zm-6.17-6.187a1.13 1.13 0 001.957-1.127l-1.957 1.127zm-2.257-8.442a1.128 1.128 0 10-1.957 1.128l1.957-1.128zm-6.17-6.187a1.13 1.13 0 001.956-1.127l-1.956 1.127zm-2.257-8.441a1.129 1.129 0 10-1.957 1.127l1.957-1.127zm-6.17-6.188a1.129 1.129 0 101.956-1.127l-1.957 1.127zm-2.258-8.441a1.13 1.13 0 00-1.956 1.127l1.956-1.127zm-6.17-6.187a1.128 1.128 0 101.957-1.128l-1.957 1.128zm-2.257-8.442a1.13 1.13 0 00-1.957 1.127l1.957-1.127zm-6.17-6.187a1.128 1.128 0 001.956-1.127l-1.957 1.127zm-1.513-7.927a1.13 1.13 0 00-2.12.778l2.12-.778zm-3.86-6.503a1.13 1.13 0 102.243-.265l-2.243.265zm2.243-7.223a1.129 1.129 0 00-2.243-.264l2.243.264zm-.503-7.546a1.13 1.13 0 102.12.778l-2.12-.778zm5.589-6.02a1.13 1.13 0 00-1.956-1.127l1.956 1.128zm2.257-8.438a1.13 1.13 0 001.957 1.127l-1.957-1.127zm6.17-6.184a1.13 1.13 0 00-1.956-1.127l1.956 1.127zm2.258-8.439a1.13 1.13 0 001.956 1.128l-1.956-1.128zm6.17-6.183a1.13 1.13 0 00-1.957-1.128l1.957 1.128zm2.257-8.439a1.13 1.13 0 001.957 1.128l-1.957-1.128zm6.17-6.184a1.13 1.13 0 00-1.956-1.127l1.956 1.127zm2.258-8.438a1.13 1.13 0 001.956 1.127l-1.956-1.127zm6.17-6.184a1.13 1.13 0 00-1.957-1.128l1.957 1.128zm2.257-8.439a1.13 1.13 0 001.956 1.128l-1.956-1.128zm6.1-5.279a1.13 1.13 0 00-1.735-1.444l1.735 1.445zm3.69-6.598a1.129 1.129 0 101.354 1.808l-1.354-1.808zM70.2 13.5a1.13 1.13 0 00-.898-2.072L70.2 13.5zm6.265-4.225a1.13 1.13 0 00.393 2.224l-.393-2.223zm8.004 1.822a1.129 1.129 0 000-2.258v2.258zm8.438-2.258a1.129 1.129 0 100 2.258V8.838zm8.436 2.258a1.13 1.13 0 100-2.258v2.258zm8.437-2.258a1.13 1.13 0 000 2.258V8.838zm8.437 2.258a1.13 1.13 0 100-2.258v2.258zm8.438-2.258a1.13 1.13 0 100 2.258V8.838zm8.437 2.258a1.13 1.13 0 000-2.258v2.258zm8.437-2.258a1.13 1.13 0 100 2.258V8.838zm8.437 2.258a1.13 1.13 0 000-2.258v2.258zm8.437-2.258a1.13 1.13 0 100 2.258V8.838zm7.618 2.654a1.13 1.13 0 10.389-2.224l-.389 2.224zm7.564-.079a1.129 1.129 0 10-.895 2.073l.895-2.073zm5.128 5.564a1.128 1.128 0 101.353-1.807l-1.353 1.807zm6.784 3.354a1.13 1.13 0 10-1.736 1.444l1.736-1.444zm2.409 7.856a1.129 1.129 0 101.956-1.128l-1.956 1.128zm6.17 6.183a1.13 1.13 0 00-1.957 1.128l1.957-1.128zm2.257 8.44a1.129 1.129 0 101.956-1.128l-1.956 1.127zm6.17 6.183a1.129 1.129 0 10-1.956 1.127l1.956-1.127zm2.257 8.439a1.13 1.13 0 001.957-1.128l-1.957 1.128zm6.171 6.183a1.13 1.13 0 00-1.957 1.128l1.957-1.128zm2.257 8.439a1.129 1.129 0 101.956-1.128l-1.956 1.128zm6.17 6.184a1.129 1.129 0 10-1.956 1.127l1.956-1.127zm2.257 8.438a1.13 1.13 0 001.957-1.127l-1.957 1.127zm6.17 6.184a1.129 1.129 0 10-1.956 1.128l1.956-1.128zm1.492 7.925a1.13 1.13 0 002.123-.768l-2.123.768zm3.838 6.509a1.129 1.129 0 10-2.243.261l2.243-.261zm-2.243 7.216a1.13 1.13 0 002.243.26l-2.243-.26zm.528 7.538a1.13 1.13 0 00-2.123-.769l2.123.769zm8.827-26.845l-2.303-4.006-1.958 1.125 2.304 4.007 1.957-1.126zm-6.911-12.02l-4.607-8.012-1.958 1.125 4.608 8.013 1.957-1.125zm-9.214-16.025l-4.607-8.013-1.958 1.126 4.607 8.013 1.958-1.126zm-9.215-16.026l-4.607-8.012-1.957 1.125 4.607 8.013 1.957-1.126zm-9.214-16.025l-4.607-8.013-1.958 1.125 4.607 8.013 1.958-1.125zm-9.215-16.026l-2.303-4.006-1.958 1.125 2.304 4.007 1.957-1.126zm-2.337-4.061a34.963 34.963 0 00-2.443-3.3l-1.733 1.448c.82.98 1.583 2.011 2.286 3.087l1.89-1.235zm-8.4-8.932a35.085 35.085 0 00-3.433-2.253l-1.126 1.957a32.678 32.678 0 013.21 2.108l1.349-1.812zm-3.433-2.253A34.966 34.966 0 00180.617 2l-.889 2.076a32.686 32.686 0 013.434 1.716l1.126-1.957zM172.758-.32a34.894 34.894 0 00-4.079-.453l-.117 2.255a32.85 32.85 0 013.815.424l.381-2.226zm-4.138-.454H164v2.258h4.62V-.774zm-13.86 0h-9.24v2.258h9.24V-.774zm-18.48 0h-9.24v2.258h9.24V-.774zm-18.48 0h-9.24v2.258h9.24V-.774zm-18.48 0h-9.24v2.258h9.24V-.774zm-18.48 0h-4.62v2.258h4.62V-.774zm-4.683.002a34.81 34.81 0 00-4.059.464l.388 2.225a32.548 32.548 0 013.796-.435l-.125-2.254zM64.282 2.025a34.834 34.834 0 00-3.65 1.836l1.132 1.954a32.59 32.59 0 013.413-1.717l-.895-2.073zm-3.65 1.836a34.854 34.854 0 00-3.41 2.252l1.352 1.808a32.596 32.596 0 013.19-2.106l-1.131-1.954zm-9.328 7.871a34.892 34.892 0 00-2.426 3.29l1.892 1.231a32.656 32.656 0 012.27-3.076l-1.736-1.445zm-2.458 3.341l-2.31 4.005 1.956 1.128 2.31-4.005-1.956-1.128zm-6.93 12.015l-4.62 8.01 1.956 1.128 4.62-8.01-1.956-1.128zm-9.24 16.019l-4.62 8.01 1.956 1.128 4.62-8.01-1.956-1.128zm-9.24 16.02l-4.62 8.009 1.956 1.128 4.62-8.01-1.956-1.128zm-9.24 16.019l-4.62 8.01 1.956 1.127 4.62-8.01-1.956-1.127zm-9.24 16.019l-2.31 4.005 1.956 1.128 2.31-4.005-1.956-1.128zm-2.34 4.061A35.077 35.077 0 00.993 98.98l2.121.773a32.827 32.827 0 011.517-3.51l-2.017-1.016zM-.892 106.92A35.112 35.112 0 00-1.13 111h2.258c0-1.279.075-2.554.223-3.818l-2.243-.263zM-1.13 111c0 1.367.08 2.73.238 4.081l2.243-.263A32.844 32.844 0 011.129 111h-2.258zm2.123 12.022a35.054 35.054 0 001.621 3.752l2.017-1.015a32.835 32.835 0 01-1.517-3.511l-2.121.774zm1.652 3.809l2.31 4.004 1.956-1.128-2.31-4.005-1.956 1.129zm6.93 12.014l4.62 8.01 1.956-1.128-4.62-8.01-1.956 1.128zm9.24 16.019l4.62 8.01 1.956-1.128-4.62-8.01-1.956 1.128zm9.24 16.02l4.62 8.009 1.956-1.128-4.62-8.01-1.956 1.129zm9.24 16.019l4.62 8.01 1.956-1.129-4.62-8.009-1.956 1.128zm9.24 16.019l2.31 4.005 1.956-1.128-2.31-4.005-1.956 1.128zm2.342 4.058a34.88 34.88 0 002.428 3.286l1.735-1.445a32.707 32.707 0 01-2.271-3.075l-1.892 1.234zm8.348 8.901a34.809 34.809 0 003.41 2.251l1.132-1.954a32.667 32.667 0 01-3.19-2.105l-1.352 1.808zm3.41 2.251a34.797 34.797 0 003.65 1.837l.894-2.073a32.702 32.702 0 01-3.412-1.718l-1.131 1.954zm11.462 4.173c1.34.234 2.694.391 4.058.468l.127-2.255a32.735 32.735 0 01-3.795-.437l-.39 2.224zm4.122.469h4.62v-2.258h-4.62v2.258zm13.86 0h9.24v-2.258h-9.24v2.258zm18.48 0h9.24v-2.258h-9.24v2.258zm18.48 0h9.24v-2.258h-9.24v2.258zm18.48 0h9.24v-2.258h-9.24v2.258zm18.48 0h4.62v-2.258H164v2.258zm4.679-.001a35.062 35.062 0 004.073-.452l-.38-2.226c-1.257.215-2.53.356-3.81.423l.117 2.255zm11.923-2.762a34.995 34.995 0 003.669-1.826l-1.123-1.959a32.82 32.82 0 01-3.432 1.708l.886 2.077zm3.669-1.826a35.116 35.116 0 003.432-2.243l-1.344-1.815a32.792 32.792 0 01-3.211 2.099l1.123 1.959zm9.397-7.85a35.102 35.102 0 002.451-3.287l-1.886-1.242a32.782 32.782 0 01-2.294 3.075l1.729 1.454zm2.486-3.344l2.31-4.005-1.956-1.128-2.31 4.005 1.956 1.128zm6.93-12.014l4.62-8.01-1.956-1.128-4.62 8.009 1.956 1.129zm9.24-16.02l4.62-8.009-1.956-1.128-4.62 8.009 1.956 1.128zm9.24-16.019l4.62-8.01-1.956-1.128-4.62 8.01 1.956 1.128zm9.24-16.019l4.62-8.01-1.956-1.128-4.62 8.01 1.956 1.128zm9.24-16.019l2.31-4.005-1.956-1.129-2.31 4.005 1.956 1.129zm2.341-4.062a35.168 35.168 0 001.621-3.752l-2.121-.774a32.837 32.837 0 01-1.517 3.511l2.017 1.015zm3.506-11.693c.158-1.351.238-2.714.238-4.081h-2.258c0 1.28-.075 2.554-.223 3.818l2.243.263zm.238-4.081c0-1.367-.08-2.729-.238-4.08l-2.243.262c.148 1.264.223 2.539.223 3.818h2.258zm-2.123-12.021a35.192 35.192 0 00-1.621-3.753l-2.017 1.015a32.827 32.827 0 011.517 3.511l2.121-.773zm-14.07 25.378l-2.107 3.658 1.957 1.127 2.106-3.657-1.956-1.128zm-6.321 10.972l-4.213 7.314 1.956 1.128 4.214-7.315-1.957-1.127zm-8.427 14.629l-4.214 7.314 1.957 1.127 4.213-7.314-1.956-1.127zm-8.428 14.629l-4.213 7.314 1.956 1.127 4.214-7.314-1.957-1.127zm-8.427 14.628l-4.214 7.315 1.957 1.127 4.214-7.314-1.957-1.128zm-8.427 14.629l-2.107 3.657 1.956 1.128 2.107-3.658-1.956-1.127zm-2.073 3.602a29.915 29.915 0 01-2.071 2.792l1.732 1.449a32.166 32.166 0 002.227-3.003l-1.888-1.238zm-7.112 7.562a29.679 29.679 0 01-2.903 1.913l1.131 1.955a32.166 32.166 0 003.122-2.058l-1.35-1.81zm-2.903 1.913a29.61 29.61 0 01-3.103 1.561l.896 2.073a32.05 32.05 0 003.338-1.679l-1.131-1.955zm-9.747 3.552c-1.139.2-2.291.335-3.451.402l.13 2.254a32.198 32.198 0 003.712-.432l-.391-2.224zm-3.386.4h-4.222v2.258h4.222v-2.258zm-12.665 0h-8.443v2.258h8.443v-2.258zm-16.887 0h-8.443v2.258h8.443v-2.258zm-16.887 0h-8.443v2.258h8.443v-2.258zm-16.887 0h-8.443v2.258h8.443v-2.258zm-16.886 0H80.25v2.258h4.222v-2.258zm-4.157.002a29.973 29.973 0 01-3.454-.402l-.391 2.224c1.225.215 2.466.36 3.715.432l.13-2.254zm-10.106-2.393a29.744 29.744 0 01-3.107-1.561l-1.13 1.955c1.084.626 2.2 1.187 3.343 1.68l.894-2.074zm-3.107-1.561a29.821 29.821 0 01-2.906-1.913l-1.35 1.811a32.127 32.127 0 003.126 2.057l1.13-1.955zm-7.956-6.683a29.984 29.984 0 01-2.076-2.793l-1.888 1.24a32.143 32.143 0 002.233 3.003l1.73-1.45zm-2.042-2.737l-2.107-3.657-1.956 1.127 2.107 3.658 1.956-1.128zm-6.32-10.971l-4.214-7.315-1.957 1.128 4.214 7.314 1.957-1.127zm-8.428-14.629l-4.213-7.314-1.957 1.127 4.214 7.314 1.956-1.127zm-8.427-14.629l-4.214-7.314-1.956 1.127 4.213 7.314 1.957-1.127zm-8.427-14.629l-4.214-7.314-1.957 1.127 4.214 7.315 1.957-1.128zm-8.428-14.628l-2.107-3.658-1.956 1.128 2.106 3.657 1.957-1.127zm-2.078-3.605a29.62 29.62 0 01-1.391-3.195l-2.12.778c.43 1.172.93 2.32 1.497 3.439l2.014-1.022zm-3.008-9.963a29.718 29.718 0 01-.205-3.479H9.526c0 1.254.074 2.504.22 3.744l2.243-.265zm-.205-3.479c0-1.166.069-2.327.205-3.479l-2.243-.264a31.987 31.987 0 00-.22 3.743h2.258zm1.822-10.247a30.07 30.07 0 011.39-3.195l-2.013-1.021a31.997 31.997 0 00-1.497 3.438l2.12.778zm1.362-3.142l2.107-3.655-1.956-1.128-2.107 3.656 1.956 1.127zm6.32-10.967l4.214-7.31-1.956-1.128-4.214 7.31 1.957 1.128zm8.428-14.622l4.214-7.311-1.957-1.128-4.213 7.311 1.956 1.128zm8.428-14.622l4.213-7.312-1.956-1.127-4.214 7.311 1.957 1.128zm8.427-14.623l4.214-7.311-1.957-1.128-4.214 7.312 1.957 1.127zm8.427-14.622l2.107-3.656-1.956-1.127-2.107 3.655 1.956 1.128zm2.075-3.603a29.871 29.871 0 012.069-2.803l-1.735-1.445a32.087 32.087 0 00-2.226 3.015l1.892 1.233zm7.113-7.594a29.789 29.789 0 012.905-1.922l-1.133-1.953a32.048 32.048 0 00-3.126 2.067l1.354 1.808zm2.905-1.922a29.787 29.787 0 013.109-1.569l-.898-2.072a32.037 32.037 0 00-3.344 1.688l1.133 1.953zm9.767-3.57a29.782 29.782 0 013.458-.404l-.13-2.255a32.03 32.03 0 00-3.721.435l.393 2.224zm3.393-.402h4.218V8.838H80.25v2.258zm12.655 0h8.437V8.838h-8.437v2.258zm16.874 0h8.437V8.838h-8.437v2.258zm16.875 0h8.437V8.838h-8.437v2.258zm16.874 0h8.437V8.838h-8.437v2.258zm16.874 0h4.218V8.838h-4.218v2.258zm4.155-.002a29.67 29.67 0 013.463.398l.389-2.224a31.935 31.935 0 00-3.726-.429l-.126 2.255zm10.132 2.392c1.064.46 2.104.984 3.113 1.569l1.132-1.954a31.907 31.907 0 00-3.35-1.688l-.895 2.073zm3.113 1.569a29.743 29.743 0 012.91 1.922l1.353-1.807a32.03 32.03 0 00-3.131-2.07l-1.132 1.955zm7.958 6.72a29.78 29.78 0 012.069 2.808l1.894-1.231a32.07 32.07 0 00-2.227-3.021l-1.736 1.444zm2.038 2.756l2.107 3.656 1.956-1.128-2.107-3.655-1.956 1.127zm6.32 10.967l4.214 7.311 1.956-1.127-4.213-7.312-1.957 1.128zm8.428 14.622l4.213 7.312 1.957-1.128-4.214-7.311-1.956 1.127zm8.427 14.623l4.214 7.311 1.956-1.128-4.213-7.31-1.957 1.127zm8.428 14.622l4.213 7.311 1.957-1.127-4.214-7.311-1.956 1.127zm8.427 14.623l2.107 3.655 1.956-1.127-2.107-3.656-1.956 1.128zm2.075 3.596a30.28 30.28 0 011.373 3.201l2.123-.768a32.188 32.188 0 00-1.476-3.442l-2.02 1.009zm2.968 9.971c.134 1.151.202 2.312.202 3.477h2.258c0-1.252-.073-2.5-.217-3.738l-2.243.261zm.202 3.477c0 1.165-.068 2.326-.202 3.478l2.243.26c.144-1.237.217-2.485.217-3.738h-2.258zm-1.797 10.247a30.353 30.353 0 01-1.373 3.202l2.02 1.008a32.147 32.147 0 001.476-3.441l-2.123-.769zm1.594 4.833a2.259 2.259 0 00-3.914-2.254l3.914 2.254zm-44.094 72.017l1.889 1.237.035-.054.033-.056-1.957-1.127zm-10.393 9.833l-1.131-1.954 1.131 1.954zm-13.699 4.104v2.258h.065l.065-.004-.13-2.254zm-84.434 0l-.13 2.254.065.004h.065v-2.258zm-13.713-4.103l-1.13 1.955 1.13-1.955zm-10.411-9.834l-1.957 1.127.033.057.036.055 1.888-1.239zM13.99 124.985l-2.014 1.021.027.054.03.052 1.957-1.127zm0-27.906l-1.957-1.127-.03.052-.027.054 2.014 1.021zm42.137-73.112l-1.892-1.232-.034.051-.03.054 1.956 1.127zm10.398-9.876l1.133 1.953-1.133-1.953zM80.25 9.967V7.708h-.065l-.066.004.131 2.255zm84.37 0l.126-2.255-.063-.004h-.063v2.259zm24.156 14l1.956-1.127-.03-.053-.033-.05-1.893 1.23zm42.137 73.112l2.02-1.008-.03-.06-.034-.06-1.956 1.128zm-2.02 26.897a2.258 2.258 0 004.04 2.018l-4.04-2.018zm10.397-27.085a2.258 2.258 0 103.915-2.25l-3.915 2.25zm-44.115-81.254l1.958-1.125-.032-.056-.036-.053-1.89 1.234zm-11.45-10.824l1.126-1.957-1.126 1.957zM168.62.355l.117-2.255-.058-.003h-.059V.355zm-92.4 0v-2.258h-.063l-.062.003.125 2.255zM49.824 15.637l-1.893-1.231-.033.05-.03.053 1.956 1.128zm-46.2 80.097l-1.956-1.128-.033.055-.028.058 2.017 1.015zM0 111h-2.258H0zm3.624 15.267l-2.017 1.014.028.058.033.056 1.956-1.128zm46.2 80.096l-1.956 1.128.03.054.034.051 1.892-1.233zm11.378 10.792l-1.131 1.954 1.131-1.954zm15.018 4.49l-.127 2.255.063.003h.064v-2.258zm92.4 0v2.258h.059l.058-.003-.117-2.255zm15.089-4.44l-1.122-1.959 1.122 1.959zm11.467-10.778l1.886 1.242.037-.056.033-.058-1.956-1.128zm46.2-80.096l1.956 1.128.033-.056.028-.057-2.017-1.015zm2.017-31.548a2.258 2.258 0 10-4.034 2.03l4.034-2.03zm-2.491-4.15a2.258 2.258 0 10-3.915 2.252l3.915-2.251zm-8.522-5.76a2.258 2.258 0 003.915-2.252l-3.915 2.251zm-.692-10.265a2.258 2.258 0 10-3.915 2.251l3.915-2.25zm-8.523-5.762a2.259 2.259 0 003.916-2.25l-3.916 2.25zm-.692-10.264a2.258 2.258 0 10-3.915 2.252l3.915-2.252zm-8.522-5.761a2.258 2.258 0 003.915-2.251l-3.915 2.25zm-.692-10.264a2.258 2.258 0 00-3.915 2.25l3.915-2.25zm-8.522-5.762a2.258 2.258 0 103.915-2.251l-3.915 2.251zm-.693-10.264a2.258 2.258 0 10-3.915 2.251l3.915-2.25zm-8.522-5.762a2.258 2.258 0 103.915-2.25l-3.915 2.25zm-.978-9.773a2.257 2.257 0 10-3.465 2.896l3.465-2.896zm-8.846-2.19a2.259 2.259 0 002.697-3.623l-2.697 3.623zM181.061.962a2.257 2.257 0 00-1.778 4.152l1.778-4.152zm-8.874 2.057a2.258 2.258 0 10.761-4.452l-.761 4.452zM164-1.903a2.258 2.258 0 000 4.516v-4.516zm-9.24 4.516a2.258 2.258 0 000-4.516v4.516zm-9.24-4.516a2.258 2.258 0 000 4.516v-4.516zm-9.24 4.516a2.258 2.258 0 000-4.516v4.516zm-9.24-4.516a2.258 2.258 0 000 4.516v-4.516zm-9.24 4.516a2.258 2.258 0 000-4.516v4.516zm-9.24-4.516a2.258 2.258 0 000 4.516v-4.516zm-9.24 4.516a2.258 2.258 0 100-4.516v4.516zm-9.24-4.516a2.258 2.258 0 000 4.516v-4.516zm-9.24 4.516a2.258 2.258 0 100-4.516v4.516zM71.904-1.42a2.258 2.258 0 00.776 4.449l-.776-4.45zm-6.28 6.555a2.258 2.258 0 00-1.79-4.146l1.79 4.146zm-9.078.074a2.258 2.258 0 102.704 3.617l-2.705-3.617zm-2.639 8.69a2.258 2.258 0 10-3.471-2.889l3.471 2.889zm-8.349 4.615a2.258 2.258 0 103.912 2.256l-3.912-2.256zM44.85 28.78a2.258 2.258 0 10-3.912-2.256l3.912 2.256zm-8.532 5.753a2.258 2.258 0 003.912 2.257l-3.912-2.257zM35.61 44.8a2.258 2.258 0 00-3.912-2.256L35.61 44.8zm-8.532 5.754a2.258 2.258 0 003.912 2.256l-3.912-2.256zM26.37 60.82a2.258 2.258 0 10-3.912-2.257l3.912 2.257zm-8.532 5.753a2.258 2.258 0 003.912 2.256l-3.912-2.256zm-.708 10.266a2.258 2.258 0 00-3.912-2.257l3.912 2.257zM8.598 82.59a2.258 2.258 0 003.912 2.257L8.598 82.59zM7.89 92.857a2.258 2.258 0 10-3.912-2.256l3.912 2.256zm-7.957 5.735a2.258 2.258 0 004.243 1.547l-4.243-1.547zm2.54 8.721a2.258 2.258 0 00-4.485-.525l4.485.525zm-4.485 7.899a2.258 2.258 0 104.485-.525l-4.485.525zm6.188 6.65a2.258 2.258 0 10-4.243 1.546l4.243-1.546zm-.198 9.538a2.258 2.258 0 003.912-2.257L3.978 131.4zm8.532 5.753a2.258 2.258 0 10-3.912 2.256l3.912-2.256zm.708 10.266a2.259 2.259 0 003.912-2.257l-3.912 2.257zm8.532 5.753a2.259 2.259 0 00-3.912 2.256l3.912-2.256zm.708 10.266a2.258 2.258 0 003.912-2.256l-3.912 2.256zm8.532 5.753a2.257 2.257 0 10-3.912 2.257l3.912-2.257zm.708 10.266a2.258 2.258 0 103.912-2.256l-3.912 2.256zm8.532 5.754a2.258 2.258 0 10-3.912 2.256l3.912-2.256zm.708 10.266a2.257 2.257 0 103.912-2.257l-3.912 2.257zm8.532 5.753a2.259 2.259 0 00-3.912 2.256l3.912-2.256zm.97 9.759a2.258 2.258 0 103.468-2.891l-3.469 2.891zm8.814 2.179a2.259 2.259 0 00-2.704 3.618l2.704-3.618zm4.584 7.837a2.258 2.258 0 001.79-4.146l-1.79 4.146zm8.845-2.037a2.259 2.259 0 00-.78 4.449l.78-4.449zm8.157 4.935a2.258 2.258 0 000-4.516v4.516zm9.24-4.516a2.258 2.258 0 000 4.516v-4.516zm9.24 4.516a2.258 2.258 0 100-4.516v4.516zm9.24-4.516a2.258 2.258 0 000 4.516v-4.516zm9.24 4.516a2.258 2.258 0 000-4.516v4.516zm9.24-4.516a2.258 2.258 0 000 4.516v-4.516zm9.24 4.516a2.258 2.258 0 000-4.516v4.516zm9.24-4.516a2.258 2.258 0 000 4.516v-4.516zm9.24 4.516a2.258 2.258 0 000-4.516v4.516zm9.24-4.516a2.258 2.258 0 000 4.516v-4.516zm8.942 4.047a2.257 2.257 0 10-.76-4.452l.76 4.452zm6.331-6.538a2.258 2.258 0 101.772 4.154l-1.772-4.154zm9.102-.047a2.259 2.259 0 00-2.688-3.629l2.688 3.629zm2.7-8.695a2.26 2.26 0 003.457 2.907l-3.457-2.907zm8.367-4.604a2.258 2.258 0 00-3.912-2.256l3.912 2.256zm.708-10.266a2.26 2.26 0 003.912 2.257l-3.912-2.257zm8.532-5.753a2.257 2.257 0 10-3.912-2.256l3.912 2.256zm.708-10.266a2.258 2.258 0 003.912 2.256l-3.912-2.256zm8.532-5.753a2.257 2.257 0 10-3.912-2.257l3.912 2.257zm.708-10.266a2.258 2.258 0 003.912 2.256l-3.912-2.256zm8.532-5.753a2.258 2.258 0 10-3.912-2.257l3.912 2.257zm.708-10.267a2.26 2.26 0 003.912 2.257l-3.912-2.257zm8.532-5.753a2.258 2.258 0 10-3.912-2.256l3.912 2.256zm.708-10.266a2.258 2.258 0 003.912 2.257l-3.912-2.257zm7.957-5.735a2.259 2.259 0 10-4.243-1.546l4.243 1.546zm-2.54-8.721a2.258 2.258 0 004.485.525l-4.485-.525zm4.485-7.899a2.258 2.258 0 00-4.485.525l4.485-.525zm-6.188-6.649a2.258 2.258 0 104.243-1.547l-4.243 1.547zm-13.973 27.312a2.257 2.257 0 103.913 2.254l-3.913-2.254zm-.301 9.569a2.258 2.258 0 10-3.913-2.255l3.913 2.255zm-8.127 5.06a2.259 2.259 0 003.913 2.254l-3.913-2.254zm-.3 9.569a2.258 2.258 0 00-3.914-2.255l3.914 2.255zm-8.127 5.06a2.257 2.257 0 103.913 2.254l-3.913-2.254zm-.301 9.568a2.257 2.257 0 10-3.913-2.254l3.913 2.254zm-8.127 5.06a2.258 2.258 0 003.914 2.255l-3.914-2.255zm-.3 9.569a2.259 2.259 0 00-3.913-2.254l3.913 2.254zm-8.127 5.06a2.258 2.258 0 103.913 2.255l-3.913-2.255zm-.301 9.569a2.257 2.257 0 10-3.913-2.254l3.913 2.254zm-7.944 3.979a2.259 2.259 0 003.464 2.897l-3.464-2.897zm-2.15 8.209a2.258 2.258 0 00-2.701-3.62l2.701 3.62zm-8.479-.277a2.258 2.258 0 001.791 4.146l-1.791-4.146zm-5.609 6.363a2.259 2.259 0 00-.783-4.448l.783 4.448zm-8.195-4.065a2.258 2.258 0 000 4.516v-4.516zm-8.443 4.516a2.258 2.258 0 000-4.516v4.516zm-8.443-4.516a2.258 2.258 0 100 4.516v-4.516zm-8.444 4.516a2.258 2.258 0 000-4.516v4.516zm-8.443-4.516a2.258 2.258 0 000 4.516v-4.516zm-8.444 4.516a2.258 2.258 0 000-4.516v4.516zm-8.443-4.516a2.258 2.258 0 000 4.516v-4.516zm-8.444 4.516a2.258 2.258 0 100-4.516v4.516zm-8.443-4.516a2.258 2.258 0 100 4.516v-4.516zm-8.443 4.516a2.258 2.258 0 000-4.516v4.516zm-7.415-4.899a2.258 2.258 0 10-.783 4.448l.782-4.448zm-8.19 2.231a2.258 2.258 0 101.79-4.146l-1.79 4.146zm-3.997-7.489a2.258 2.258 0 10-2.698 3.621l2.698-3.621zm-8.32-1.69a2.258 2.258 0 103.46-2.9l-3.46 2.9zm-.574-9.132a2.258 2.258 0 10-3.913 2.254l3.913-2.254zm-8.127-5.06a2.258 2.258 0 003.913-2.255l-3.913 2.255zm-.3-9.569a2.258 2.258 0 10-3.914 2.254l3.913-2.254zm-8.128-5.06a2.258 2.258 0 003.914-2.255l-3.914 2.255zm-.3-9.569a2.257 2.257 0 10-3.913 2.254l3.913-2.254zm-8.127-5.06a2.257 2.257 0 103.913-2.254l-3.913 2.254zm-.3-9.569a2.258 2.258 0 00-3.914 2.255l3.914-2.255zm-8.127-5.06a2.258 2.258 0 103.913-2.254l-3.913 2.254zm-.3-9.569a2.258 2.258 0 00-3.914 2.255l3.913-2.255zm-8.128-5.06a2.258 2.258 0 103.913-2.254l-3.913 2.254zm.526-8.879a2.259 2.259 0 00-4.24 1.556l4.24-1.556zm-6.041-5.982a2.258 2.258 0 004.485-.529l-4.485.529zm4.485-7.223a2.259 2.259 0 00-4.485-.528l4.485.528zm-2.684-8.067a2.258 2.258 0 004.24 1.557l-4.24-1.557zm7.627-5.067a2.258 2.258 0 00-3.913-2.255l3.913 2.255zm.301-9.566a2.258 2.258 0 003.913 2.255l-3.913-2.255zm8.127-5.056a2.258 2.258 0 10-3.913-2.255l3.913 2.255zm.3-9.566a2.258 2.258 0 003.913 2.255l-3.912-2.255zm8.127-5.056a2.258 2.258 0 10-3.913-2.256l3.913 2.255zm.3-9.567a2.258 2.258 0 003.914 2.255l-3.913-2.255zm8.127-5.056a2.258 2.258 0 00-3.912-2.255l3.912 2.255zm.301-9.566a2.258 2.258 0 003.913 2.255l-3.913-2.255zm8.127-5.056a2.258 2.258 0 00-3.913-2.255l3.913 2.255zm.3-9.566a2.258 2.258 0 003.913 2.255l-3.912-2.256zm7.947-3.993a2.258 2.258 0 00-3.471-2.89l3.47 2.89zm2.145-8.224a2.258 2.258 0 102.707 3.614l-2.707-3.614zm8.494.256a2.258 2.258 0 00-1.796-4.144l1.796 4.144zm5.62-6.372a2.258 2.258 0 00.785 4.447l-.786-4.447zm8.2 4.062a2.258 2.258 0 000-4.517v4.517zm8.438-4.517a2.258 2.258 0 100 4.517V7.708zm8.436 4.517a2.258 2.258 0 100-4.517v4.517zm8.437-4.517a2.258 2.258 0 000 4.517V7.708zm8.437 4.517a2.258 2.258 0 100-4.517v4.517zm8.438-4.517a2.258 2.258 0 100 4.517V7.708zm8.437 4.517a2.258 2.258 0 000-4.517v4.517zm8.437-4.517a2.258 2.258 0 100 4.517V7.708zm8.437 4.517a2.258 2.258 0 000-4.517v4.517zm8.437-4.517a2.258 2.258 0 100 4.517V7.708zm7.424 4.896a2.258 2.258 0 00.778-4.448l-.778 4.448zm8.206-2.227a2.257 2.257 0 10-1.791 4.146l1.791-4.146zm4.003 7.504a2.258 2.258 0 002.707-3.615l-2.707 3.615zm8.33 1.728a2.258 2.258 0 00-3.473 2.888l3.473-2.888zm.561 9.141a2.258 2.258 0 003.913-2.255l-3.913 2.255zm8.127 5.057a2.258 2.258 0 00-3.913 2.255l3.913-2.255zm.301 9.566a2.258 2.258 0 003.913-2.255l-3.913 2.255zm8.126 5.056a2.258 2.258 0 10-3.912 2.255l3.912-2.255zm.301 9.566a2.258 2.258 0 003.913-2.255l-3.913 2.255zm8.127 5.056a2.258 2.258 0 00-3.913 2.255l3.913-2.255zm.301 9.567a2.258 2.258 0 103.912-2.255l-3.912 2.255zm8.126 5.056a2.258 2.258 0 00-3.913 2.255l3.913-2.255zm.301 9.566a2.258 2.258 0 003.913-2.255l-3.913 2.255zm8.127 5.056a2.258 2.258 0 00-3.913 2.255l3.913-2.255zm-.549 8.873a2.257 2.257 0 104.247-1.537l-4.247 1.537zm6.022 5.995a2.259 2.259 0 10-4.486.521l4.486-.521zm-4.486 7.215a2.258 2.258 0 104.486.522l-4.486-.522zm2.711 8.053a2.26 2.26 0 00-4.247-1.537l4.247 1.537zm8.744-27.792l-2.304-4.006-3.915 2.25 2.304 4.007 3.915-2.25zm-6.911-12.019l-4.607-8.013-3.915 2.251 4.607 8.013 3.915-2.251zm-9.214-16.026l-4.608-8.012-3.915 2.25 4.607 8.013 3.916-2.25zm-9.215-16.025l-4.607-8.013-3.915 2.25 4.607 8.014 3.915-2.251zm-9.214-16.026l-4.608-8.013-3.915 2.251 4.608 8.013 3.915-2.251zm-9.215-16.026l-2.303-4.006-3.916 2.25 2.304 4.007 3.915-2.25zm-2.371-4.116a35.922 35.922 0 00-2.522-3.406l-3.465 2.896a31.553 31.553 0 012.206 2.98l3.781-2.47zm-8.671-9.22a36.102 36.102 0 00-3.544-2.326l-2.252 3.914a31.542 31.542 0 013.099 2.036l2.697-3.623zm-3.544-2.326a36.017 36.017 0 00-3.79-1.894l-1.778 4.152a31.553 31.553 0 013.316 1.656l2.252-3.914zm-11.903-4.289a36.042 36.042 0 00-4.211-.467l-.233 4.51a31.52 31.52 0 013.683.409l.761-4.452zm-4.328-.47H164v4.516h4.62v-4.516zm-13.86 0h-9.24v4.516h9.24v-4.516zm-18.48 0h-9.24v4.516h9.24v-4.516zm-18.48 0h-9.24v4.516h9.24v-4.516zm-18.48 0h-9.24v4.516h9.24v-4.516zm-18.48 0h-4.62v4.516h4.62v-4.516zm-4.745.003a35.934 35.934 0 00-4.19.48l.775 4.449a31.422 31.422 0 013.664-.42L76.095-1.9zM63.835.99a35.957 35.957 0 00-3.768 1.895l2.263 3.909a31.446 31.446 0 013.295-1.658L63.835.989zm-3.768 1.895a35.964 35.964 0 00-3.522 2.325l2.705 3.617a31.458 31.458 0 013.08-2.033l-2.263-3.909zm-9.631 8.126a36.028 36.028 0 00-2.505 3.396l3.786 2.463a31.503 31.503 0 012.19-2.97l-3.471-2.889zm-2.568 3.5l-2.31 4.004 3.912 2.256 2.31-4.004-3.912-2.257zm-6.93 12.014l-4.62 8.01 3.912 2.256 4.62-8.01-3.912-2.256zm-9.24 16.019l-4.62 8.01 3.912 2.256 4.62-8.01-3.912-2.256zm-9.24 16.02l-4.62 8.009 3.912 2.256 4.62-8.01-3.912-2.256zm-9.24 16.018l-4.62 8.01 3.912 2.257 4.62-8.01-3.912-2.257zm-9.24 16.02l-2.31 4.005 3.912 2.256 2.31-4.005-3.912-2.256zM1.607 94.72a36.21 36.21 0 00-1.674 3.873l4.243 1.547a31.68 31.68 0 011.465-3.39l-4.034-2.03zm-3.62 12.069A36.242 36.242 0 00-2.257 111h4.516c0-1.235.072-2.466.215-3.687l-4.485-.525zM-2.257 111c0 1.411.082 2.818.246 4.212l4.485-.525A31.726 31.726 0 012.258 111h-4.516zm2.19 12.408a36.173 36.173 0 001.675 3.873l4.034-2.029a31.807 31.807 0 01-1.465-3.39l-4.243 1.546zm1.736 3.987l2.31 4.005 3.912-2.257-2.31-4.005-3.912 2.257zm6.93 12.014l4.62 8.01 3.912-2.257-4.62-8.009-3.912 2.256zm9.24 16.019l4.62 8.01 3.912-2.256-4.62-8.01-3.912 2.256zm9.24 16.02l4.62 8.009 3.912-2.256-4.62-8.01-3.912 2.257zm9.24 16.019l4.62 8.01 3.912-2.257-4.62-8.009-3.912 2.256zm9.24 16.019l2.31 4.005 3.912-2.256-2.31-4.005-3.912 2.256zm2.374 4.11a36.054 36.054 0 002.507 3.393l3.47-2.891a31.55 31.55 0 01-2.194-2.968l-3.783 2.466zm8.618 9.19a36.15 36.15 0 003.521 2.323l2.263-3.908a31.327 31.327 0 01-3.08-2.033l-2.704 3.618zm3.521 2.323c1.22.707 2.478 1.34 3.767 1.896l1.79-4.146a31.624 31.624 0 01-3.294-1.658l-2.263 3.908zm11.833 4.308c1.382.242 2.78.404 4.189.483l.253-4.509a31.365 31.365 0 01-3.663-.423l-.78 4.449zm4.316.486h4.62v-4.516h-4.62v4.516zm13.86 0h9.24v-4.516h-9.24v4.516zm18.48 0h9.24v-4.516h-9.24v4.516zm18.48 0h9.24v-4.516h-9.24v4.516zm18.48 0h9.24v-4.516h-9.24v4.516zm18.48 0h4.62v-4.516H164v4.516zm4.737-.003a36.002 36.002 0 004.205-.466l-.76-4.452a31.598 31.598 0 01-3.679.408l.234 4.51zm12.308-2.85a36.37 36.37 0 003.787-1.885l-2.245-3.919a31.748 31.748 0 01-3.314 1.65l1.772 4.154zm3.787-1.885a36.295 36.295 0 003.543-2.316l-2.688-3.629a31.919 31.919 0 01-3.1 2.026l2.245 3.919zm9.7-8.104a36.298 36.298 0 002.53-3.392l-3.772-2.484a31.443 31.443 0 01-2.215 2.969l3.457 2.907zm2.6-3.506l2.31-4.005-3.912-2.256-2.31 4.005 3.912 2.256zm6.93-12.014l4.62-8.01-3.912-2.256-4.62 8.009 3.912 2.257zm9.24-16.02l4.62-8.009-3.912-2.257-4.62 8.01 3.912 2.256zm9.24-16.019l4.62-8.009-3.912-2.257-4.62 8.01 3.912 2.256zm9.24-16.019l4.62-8.01-3.912-2.256-4.62 8.009 3.912 2.257zm9.24-16.019l2.31-4.005-3.912-2.257-2.31 4.005 3.912 2.257zm2.371-4.118a36.061 36.061 0 001.674-3.874l-4.243-1.546a31.853 31.853 0 01-1.465 3.39l4.034 2.03zm3.619-12.07c.164-1.394.246-2.801.246-4.212h-4.516a31.67 31.67 0 01-.215 3.687l4.485.525zm.246-4.212c0-1.411-.082-2.817-.246-4.212l-4.485.525c.143 1.221.215 2.452.215 3.687h4.516zm-2.191-12.408a36.084 36.084 0 00-1.674-3.873l-4.034 2.03a31.724 31.724 0 011.465 3.39l4.243-1.547zm-16.11 25.202l-2.106 3.657 3.913 2.254 2.107-3.657-3.914-2.254zm-6.32 10.971l-4.214 7.315 3.913 2.254 4.214-7.314-3.913-2.255zm-8.428 14.629l-4.213 7.315 3.913 2.254 4.214-7.314-3.914-2.255zm-8.427 14.629l-4.214 7.314 3.914 2.255 4.213-7.315-3.913-2.254zm-8.427 14.629l-4.214 7.314 3.913 2.255 4.214-7.315-3.913-2.254zm-8.428 14.629l-2.107 3.657 3.914 2.254 2.106-3.657-3.913-2.254zm-2.039 3.547a28.836 28.836 0 01-1.992 2.686l3.464 2.897a33.377 33.377 0 002.306-3.109l-3.778-2.474zm-6.843 7.275a28.63 28.63 0 01-2.792 1.841l2.261 3.909c1.121-.648 2.2-1.36 3.232-2.13l-2.701-3.62zm-2.792 1.841a28.644 28.644 0 01-2.986 1.502l1.791 4.146a33.235 33.235 0 003.456-1.739l-2.261-3.909zm-9.378 3.417a28.571 28.571 0 01-3.32.386l.26 4.509a33.12 33.12 0 003.843-.447l-.783-4.448zm-3.19.383h-4.222v4.516h4.222v-4.516zm-12.665 0h-8.443v4.516h8.443v-4.516zm-16.887 0h-8.443v4.516h8.443v-4.516zm-16.887 0h-8.443v4.516h8.443v-4.516zm-16.887 0h-8.443v4.516h8.443v-4.516zm-16.886 0H80.25v4.516h4.222v-4.516zm-4.092.003a28.61 28.61 0 01-3.323-.386l-.783 4.448a33.18 33.18 0 003.846.447l.26-4.509zm-9.724-2.301a28.71 28.71 0 01-2.99-1.503l-2.258 3.911a33.138 33.138 0 003.46 1.738l1.788-4.146zm-2.99-1.503a28.671 28.671 0 01-2.796-1.84l-2.698 3.621a33.3 33.3 0 003.236 2.13l2.259-3.911zm-7.655-6.43a28.826 28.826 0 01-1.998-2.687l-3.775 2.478a33.319 33.319 0 002.311 3.109l3.462-2.9zm-1.928-2.575l-2.107-3.657-3.913 2.254 2.106 3.657 3.914-2.254zm-6.321-10.972l-4.214-7.314-3.913 2.254 4.214 7.315 3.913-2.255zm-8.427-14.629l-4.214-7.314-3.913 2.254 4.213 7.315 3.914-2.255zm-8.428-14.628l-4.213-7.315-3.914 2.255 4.214 7.314 3.913-2.254zm-8.427-14.629l-4.214-7.315-3.913 2.255 4.214 7.314 3.913-2.254zm-8.428-14.629l-2.107-3.657-3.913 2.254 2.107 3.657 3.913-2.254zm-2.05-3.551a28.7 28.7 0 01-1.337-3.074l-4.24 1.556a33.074 33.074 0 001.55 3.56l4.028-2.042zm-2.893-9.585a28.607 28.607 0 01-.196-3.347H8.396c0 1.299.077 2.593.228 3.876l4.485-.529zm-.196-3.347c0-1.121.065-2.239.196-3.347l-4.485-.528a33.121 33.121 0 00-.228 3.875h4.517zm1.752-9.857a28.546 28.546 0 011.338-3.075l-4.028-2.042a33.104 33.104 0 00-1.55 3.56l4.24 1.557zm1.28-2.968l2.107-3.656-3.913-2.255-2.107 3.656 3.913 2.255zm6.32-10.967l4.215-7.311-3.913-2.255-4.214 7.311 3.913 2.255zm8.428-14.622l4.214-7.311-3.913-2.256-4.213 7.312 3.912 2.255zm8.428-14.623l4.213-7.31-3.912-2.256-4.214 7.311 3.913 2.255zm8.427-14.622l4.214-7.311-3.913-2.255-4.214 7.31 3.913 2.256zm8.428-14.622l2.106-3.656-3.912-2.255-2.107 3.655 3.913 2.255zm2.042-3.55c.612-.94 1.277-1.84 1.99-2.698l-3.47-2.89a33.25 33.25 0 00-2.304 3.122L58.02 25.2zm6.843-7.308a28.669 28.669 0 012.796-1.849l-2.267-3.906a33.162 33.162 0 00-3.236 2.14l2.707 3.615zm2.796-1.849a28.658 28.658 0 012.99-1.51l-1.795-4.143a33.187 33.187 0 00-3.462 1.747l2.267 3.906zm9.396-3.434a28.654 28.654 0 013.328-.39l-.262-4.508a33.155 33.155 0 00-3.852.45l.786 4.448zm3.197-.385h4.218V7.708h-4.218v4.517zm12.655 0h8.437V7.708h-8.437v4.517zm16.874 0h8.437V7.708h-8.437v4.517zm16.875 0h8.437V7.708h-8.437v4.517zm16.874 0h8.437V7.708h-8.437v4.517zm16.874 0h4.218V7.708h-4.218v4.517zm4.092-.004c1.12.063 2.232.19 3.332.383l.778-4.448a33.092 33.092 0 00-3.858-.444l-.252 4.51zm9.747 2.302c1.024.442 2.024.946 2.995 1.508l2.264-3.907a33.05 33.05 0 00-3.468-1.747l-1.791 4.146zm2.995 1.508a28.62 28.62 0 012.799 1.85l2.707-3.615a33.052 33.052 0 00-3.242-2.142l-2.264 3.907zm7.656 6.466c.714.858 1.379 1.76 1.991 2.701l3.786-2.461a33.183 33.183 0 00-2.304-3.128l-3.473 2.888zm1.928 2.598l2.106 3.655 3.913-2.255-2.107-3.655-3.912 2.255zm6.32 10.967l4.214 7.31 3.913-2.254-4.214-7.311-3.913 2.255zm8.428 14.622l4.213 7.311 3.913-2.255-4.214-7.31-3.912 2.254zm8.427 14.623l4.214 7.31 3.912-2.254-4.213-7.312-3.913 2.255zm8.427 14.622l4.214 7.311 3.913-2.255-4.214-7.311-3.913 2.255zm8.428 14.622l2.107 3.656 3.912-2.255-2.106-3.656-3.913 2.255zm2.043 3.537a29.006 29.006 0 011.321 3.081l4.247-1.537a33.496 33.496 0 00-1.528-3.561l-4.04 2.017zm2.857 9.597c.129 1.108.194 2.226.194 3.347h4.516a33.46 33.46 0 00-.224-3.868l-4.486.521zm.194 3.347c0 1.122-.065 2.239-.194 3.347l4.486.522a33.49 33.49 0 00.224-3.869h-4.516zm-1.73 9.863a28.987 28.987 0 01-1.321 3.081l4.04 2.018a33.51 33.51 0 001.528-3.562l-4.247-1.537z" fill="#AA1D26" mask="url(#a)"/></svg>