<svg width="259" height="233" fill="none" xmlns="http://www.w3.org/2000/svg"><path d="M255.208 100.414l-48.906-84.166a35.536 35.536 0 00-11.983-11.456A35.68 35.68 0 00178.426 0H80.613a35.787 35.787 0 00-15.887 4.803 35.651 35.651 0 00-11.99 11.445L3.83 100.414a35.707 35.707 0 000 32.172l48.906 84.166a35.651 35.651 0 0011.99 11.445A35.793 35.793 0 0080.613 233h97.813a35.679 35.679 0 0015.893-4.792 35.537 35.537 0 0011.983-11.456l48.906-84.166a36.025 36.025 0 000-32.172zm-24.29 29.03l-39.614 67.918a28.636 28.636 0 01-9.67 9.143 28.773 28.773 0 01-12.772 3.802h-78.74a28.838 28.838 0 01-12.799-3.795 28.712 28.712 0 01-9.697-9.15l-39.289-67.918a28.247 28.247 0 010-25.888l39.289-67.918a28.706 28.706 0 019.697-9.15 28.816 28.816 0 0112.8-3.795h78.739a28.765 28.765 0 0112.772 3.802 28.645 28.645 0 019.67 9.143l39.397 67.701a28.95 28.95 0 010 26.105h.217z" fill="#EFEFEF"/><path d="M163.437 41.015H95.541c-2.8-.123-5.581.513-8.053 1.84a15.653 15.653 0 00-5.994 5.704L73 63.811h43.231L96.739 97.759 97.447 141l34.084-58.165 61.144 30.558L204 94.698l-60.709-30.996h42.905l-8.385-14.268a18.104 18.104 0 00-6.165-5.97 18.022 18.022 0 00-8.209-2.449z" fill="#EFEFEF"/><path d="M100.739 173.311l-10.376-18.69h38.025l13.145-8.475L165 132.292H98.729l-.924-14.778v-15.483L95.415 64H73.144L77 131.694l-21.402-37.27-8.691 14.343a17.01 17.01 0 00-1.901 8.258 17.386 17.386 0 001.9 8.041l33.843 58.622A17.602 17.602 0 0094.818 192h16.296l-10.375-18.689z" fill="#EFEFEF"/><path d="M177.429 183.69l33.675-58.656a17.448 17.448 0 001.891-8.31 17.066 17.066 0 00-1.891-7.984l-7.892-13.795-10.81 18.575-10.432 17.542-19.243-32.587L124.999 78l33.134 57.19L99 173.208 111.81 192l56.971-38.018L147.16 192h18.378a17.037 17.037 0 006.866-2.826 17.127 17.127 0 005.025-5.484z" fill="#EFEFEF"/></svg>