<svg width="225" height="204" fill="none" xmlns="http://www.w3.org/2000/svg"><path d="M211.811 114.892l-38.651 67.429a28.457 28.457 0 01-9.534 9.065 28.24 28.24 0 01-12.565 3.783H73.612a28.3 28.3 0 01-12.578-3.783 28.505 28.505 0 01-9.55-9.065l-38.651-67.429a28.558 28.558 0 01-3.06-12.862 28.56 28.56 0 013.06-12.863l38.65-67.4a28.456 28.456 0 019.538-9.104 28.248 28.248 0 0112.591-3.802h77.39a28.192 28.192 0 0112.611 3.79 28.396 28.396 0 019.547 9.116l38.651 67.4a28.916 28.916 0 010 25.725zm9.479-26.936l-42.261-73.868a31.105 31.105 0 00-10.503-9.978A30.878 30.878 0 00154.671 0H69.914a30.818 30.818 0 00-13.776 4.136 31.045 31.045 0 00-10.436 9.952L3.324 87.926A31.44 31.44 0 000 102c0 4.888 1.138 9.708 3.324 14.074l42.378 73.838a31.14 31.14 0 0010.44 9.943A30.92 30.92 0 0069.915 204h84.757a30.967 30.967 0 0013.841-4.093 31.187 31.187 0 0010.517-9.936l42.379-73.838a31.451 31.451 0 000-28.147" fill="#AF1917"/></svg>