<svg xmlns="http://www.w3.org/2000/svg" xmlns:xlink="http://www.w3.org/1999/xlink" viewBox="0 0 961.6 194.5"><defs><path id="a" d="M194.5 119.8l-27.8-59.9L194.5 0h55.6l-55.6 119.8zm-34.7 74.7l-34.7-74.7-34.7 74.7L0 0h55.6l34.7 74.7L125.1 0l62.5 134.6-27.8 59.9zm159.1 0v-48.6h76.4v48.6h-76.4zm0-121.6h76.4v48.6h-76.4V72.9zm0-72.9h76.4v48.6h-76.4V0zm-62.6 194.5V0h48.8l-.1 194.5h-48.7zM476.4 60.7c0-3.3-1.2-6.2-3.5-8.5-2.4-2.4-5.2-3.5-8.5-3.5-3.4 0-6.3 1.2-8.7 3.5-2.4 2.4-3.5 5.2-3.5 8.5 0 3.4 1.2 6.3 3.5 8.7 2.4 2.4 5.3 3.5 8.7 3.5 2.1 0 4.2.1 6.3.3l-25.1 45.6c-9-2.9-17-7.9-24.2-15-11.9-11.9-17.8-26.2-17.8-43.1 0-16.8 5.9-31.1 17.8-42.9C433.1 5.9 447.5 0 464.3 0c16.8 0 31.1 5.9 42.9 17.8C519.1 29.7 525 44 525 60.7v1.8h-48.8c.2-.5.2-1.1.2-1.8zm-24.3 73c0 3.4 1.2 6.3 3.5 8.7 2.4 2.4 5.3 3.5 8.7 3.5 3.3 0 6.2-1.2 8.5-3.5 2.4-2.4 3.5-5.3 3.5-8.7 0-3.3-1.2-6.2-3.5-8.5-2.4-2.4-5.2-3.5-8.5-3.5-2.1 0-4.3-.1-6.4-.3L483 75.8c9 2.9 17 7.9 24.2 15 11.9 11.9 17.8 26.2 17.8 42.9 0 16.9-5.9 31.2-17.8 43.1-11.9 11.9-26.2 17.8-42.9 17.8-16.9 0-31.2-5.9-43.1-17.8-11.9-11.9-17.8-26.2-17.8-43.1V132h48.8c0 .6-.1 1.1-.1 1.7zm294.7 60.8h-48.6V91.3L642.6 132 538.4 55.6V0l104.2 69.5L746.8 0v.1l.2-.1-.2 194.5zm-159.8 0h-48.6v-125l48.6 35.7v89.3zm319 0l-9.3-17.4H832l26-48.6h12.8l-41.1-76.7L857.4 0l104.2 194.5H906zm-97.2 0h-55.6l69.5-129.6 27.8 51.8-41.7 77.8z"/></defs><use xlink:href="#a" overflow="visible" fill="#fff"/></svg>