<svg width="190" height="53" fill="none" xmlns="http://www.w3.org/2000/svg"><g clip-path="url(#clip0)" fill="#AA1D26"><path d="M126.449 36.422v5.99h1.665v-5.99h1.505v5.99h1.691v-5.99h1.505v7.395h-7.884v-7.395h1.518zm9.265 5.485l-.493 1.886h-1.592l2.085-7.396h2.011l2.11 7.396h-1.653l-.518-1.886h-1.95zm1.715-1.233l-.419-1.565c-.124-.431-.247-.986-.346-1.417-.111.431-.21.998-.321 1.417l-.394 1.565h1.48zm6.921 3.094l-.616-1.319c-.259-.517-.42-.9-.605-1.319-.136.42-.308.802-.518 1.32l-.568 1.318h-1.764l1.974-3.697-1.9-3.698h1.764l.605 1.343c.197.444.345.814.506 1.233.16-.468.296-.789.456-1.233l.58-1.343h1.752l-1.912 3.587 2.011 3.759-1.765.05zm4.01-5.941h-1.826v-1.405h5.219v1.405h-1.85v5.941h-1.543v-5.94zm10.105 2.194c0 2.465-1.357 3.87-3.344 3.87-1.986 0-3.195-1.639-3.195-3.697 0-2.059 1.295-3.846 3.306-3.846s3.233 1.652 3.233 3.673zm-4.935.099c0 1.442.617 2.465 1.653 2.465s1.629-1.072 1.629-2.465c0-1.393-.58-2.465-1.641-2.465s-1.617 1.035-1.617 2.465h-.024zm10.931 3.45a4.176 4.176 0 01-1.752.321 3.37 3.37 0 01-3.386-2.261 3.365 3.365 0 01-.167-1.436 3.586 3.586 0 01.977-2.776 3.611 3.611 0 012.724-1.12 3.82 3.82 0 011.666.321l-.309 1.32a3.22 3.22 0 00-1.295-.272 2.468 2.468 0 00-1.977 2.416 2.465 2.465 0 001.977 2.416c.423-.006.841-.09 1.234-.247l.308 1.319zm2.505-5.743h-1.826v-1.405h5.231v1.405h-1.863v5.941h-1.542v-5.94zm4.219-1.307c.685-.11 1.379-.16 2.073-.147a3.1 3.1 0 012.085.591 2.2 2.2 0 01.715 1.701 2.463 2.463 0 01-.616 1.738 3.048 3.048 0 01-2.209.777 3.257 3.257 0 01-.53 0v2.625h-1.518v-7.284zm1.542 3.34c.172.023.346.023.518 0a1.16 1.16 0 001.321-1.232c0-.678-.432-1.072-1.234-1.072a2.309 2.309 0 00-.642 0l.037 2.305zm10.5.161c0 2.465-1.345 3.87-3.332 3.87-1.986 0-3.195-1.639-3.195-3.697 0-2.059 1.295-3.846 3.306-3.846s3.221 1.652 3.221 3.673zm-4.935.099c0 1.442.629 2.465 1.665 2.465s1.629-1.072 1.629-2.465c0-1.393-.58-2.465-1.641-2.465s-1.629 1.035-1.629 2.465h-.024zm7.365-3.698v2.182c0 1.232 0 2.342-.086 3.328a29.87 29.87 0 011.233-2.613l1.469-2.897h1.566v7.395h-1.406V41.6c0-1.134 0-2.132.111-3.094a23.08 23.08 0 01-1.16 2.625l-1.382 2.638h-1.752v-7.395l1.407.05zm.938-1.688c0 .43.123.677.444.677s.444-.234.481-.678h1.024a1.332 1.332 0 01-1.518 1.356 1.31 1.31 0 01-1.371-.8 1.32 1.32 0 01-.097-.556h1.037zM57.987 22.753L46.883 3.599a8.079 8.079 0 00-6.33-3.698H18.347a8.112 8.112 0 00-6.33 3.698L.914 22.753a8.14 8.14 0 000 7.321l11.104 19.154a8.104 8.104 0 006.33 3.698h22.207a8.088 8.088 0 006.33-3.698l11.103-19.154a8.216 8.216 0 000-7.321zm-5.515 6.607l-8.994 15.456a6.512 6.512 0 01-5.096 2.946H20.506a6.53 6.53 0 01-5.107-2.946l-8.92-15.457a6.441 6.441 0 010-5.891l8.92-15.456a6.523 6.523 0 015.107-2.946h17.878a6.519 6.519 0 015.095 2.946l8.945 15.407a6.601 6.601 0 010 5.94h.05z"/><path d="M37.075 9.392H21.69a3.544 3.544 0 00-3.184 1.701l-1.924 3.439h9.795l-4.416 7.654.16 9.75 7.724-13.115 13.855 6.89 2.566-4.215-13.756-6.989h9.722l-1.9-3.217a4.095 4.095 0 00-3.257-1.898z"/><path d="M22.973 39.294l-2.357-4.24h8.637l2.985-1.923 5.33-3.143H22.516l-.21-3.352v-3.513l-.542-8.628h-5.059l.876 15.358-4.86-8.456-1.975 3.254a3.854 3.854 0 00-.432 1.874c-.005.634.143 1.26.432 1.824l7.686 13.3a3.996 3.996 0 003.196 1.885h3.701l-2.356-4.24z"/><path d="M40.344 41.66l7.687-13.311a3.94 3.94 0 00.431-1.886 3.855 3.855 0 00-.431-1.812l-1.802-3.13-2.467 4.215-2.382 3.981-4.392-7.395-8.611-4.647 7.563 12.979-13.498 8.628 2.924 4.264 13.004-8.628-4.935 8.628h4.195a3.9 3.9 0 002.714-1.886zM87.203 9.269h-6.404l-5.17 7.395a38.468 38.468 0 00-1.603 2.465V9.27h-5.207v22.383h5.207v-7.309l1.937-2.354 5.638 9.663h5.996l-7.97-12.843 7.576-9.54zm7.797 0l-6.97 22.383h5.341l1.63-5.768h6.575l1.764 5.743h5.602L101.81 9.244 95 9.27zm.802 12.917l1.357-4.745c.37-1.307.716-2.995 1.061-4.327h.074c.333 1.332.74 2.983 1.148 4.327l1.431 4.745h-5.071zm29.98-4.314h-8.55V9.27h-5.157v22.383h5.157v-9.367h8.55v9.367h5.17V9.27h-5.17v8.603zm14.904 4.314h8.427v-4.117h-8.427v-4.646h8.945V9.268h-14.114v22.383H150.1V27.51h-9.414v-5.325zm31.832-12.917h-6.404l-5.169 7.395c-.543.801-1.086 1.602-1.592 2.465V9.27h-5.145v22.383h5.145v-7.309l1.925-2.354 5.638 9.663h6.021l-7.945-12.843 7.526-9.54zm13.694 3.821c1.236-.01 2.466.181 3.64.567V9.33a17.564 17.564 0 00-3.862-.394c-6.934 0-12.51 4.215-12.51 11.857 0 6.385 4.083 11.229 12.004 11.229 1.47.005 2.935-.156 4.368-.48v-4.229a13.72 13.72 0 01-3.615.494c-4.602 0-7.316-2.835-7.316-7.322-.025-4.967 3.207-7.395 7.291-7.395z"/></g><defs><clipPath id="clip0"><path fill="#fff" d="M0 0h190v53H0z"/></clipPath></defs></svg>