<svg width="115" height="103" viewBox="0 0 115 103" fill="none" xmlns="http://www.w3.org/2000/svg">
<mask id="path-1-inside-1" fill="white">
<path d="M108.388 58.0093L88.6096 92.0543C87.3657 93.9372 85.6949 95.5048 83.7312 96.6312C81.7674 97.7577 79.5653 98.4118 77.3011 98.5412H37.6688C35.4026 98.4118 33.1984 97.7578 31.2322 96.6314C29.266 95.505 27.5925 93.9376 26.3453 92.0543L6.5667 58.0093C5.53777 55.9969 5.00151 53.7718 5.00151 51.5149C5.00151 49.258 5.53777 47.033 6.5667 45.0206L26.3453 10.9904C27.5848 9.09753 29.2558 7.52113 31.2231 6.38895C33.1904 5.25677 35.3986 4.60064 37.6688 4.47372H77.2711C79.5445 4.59599 81.7566 5.25004 83.727 6.38253C85.6975 7.51503 87.3705 9.09391 88.6096 10.9904L108.388 45.0206C109.403 47.0371 109.932 49.2605 109.932 51.5149C109.932 53.7693 109.403 55.9928 108.388 58.0093ZM113.239 44.4091L91.6132 7.11322C90.2458 5.03726 88.4042 3.31109 86.2382 2.07507C84.0723 0.839054 81.6432 0.128091 79.1483 0L35.7766 0C33.2939 0.136055 30.8784 0.850961 28.7258 2.08679C26.5733 3.32262 24.7442 5.0446 23.3868 7.11322L1.70089 44.3942C0.582543 46.5983 0 49.032 0 51.5C0 53.968 0.582543 56.4017 1.70089 58.6058L23.3868 95.8868C24.746 97.9538 26.5755 99.6745 28.7277 100.91C30.8798 102.146 33.2944 102.862 35.7766 103H79.1483C81.6397 102.872 84.0658 102.164 86.2309 100.933C88.3961 99.703 90.2398 97.9845 91.6132 95.9166L113.299 58.6356C114.417 56.4315 115 53.9978 115 51.5298C115 49.0618 114.417 46.6281 113.299 44.4241"/>
</mask>
<path d="M88.6096 92.0543L91.9471 94.2591L92.0105 94.1631L92.0683 94.0636L88.6096 92.0543ZM77.3011 98.5412V102.541H77.4153L77.5293 102.535L77.3011 98.5412ZM37.6688 98.5412L37.4408 102.535L37.5547 102.541H37.6688V98.5412ZM26.3453 92.0543L22.8866 94.0636L22.9455 94.1651L23.0103 94.2628L26.3453 92.0543ZM6.5667 58.0093L3.00523 59.8302L3.0541 59.9258L3.10801 60.0186L6.5667 58.0093ZM6.5667 45.0206L3.10839 43.0106L3.05427 43.1037L3.00523 43.1996L6.5667 45.0206ZM26.3453 10.9904L22.9989 8.79924L22.9405 8.88835L22.887 8.98044L26.3453 10.9904ZM37.6688 4.47372V0.473722H37.5571L37.4455 0.479959L37.6688 4.47372ZM77.2711 4.47372L77.4859 0.479495L77.3786 0.473722H77.2711V4.47372ZM88.6096 10.9904L92.0679 8.98044L92.0154 8.89006L91.9582 8.80254L88.6096 10.9904ZM108.388 45.0206L111.961 43.222L111.907 43.1145L111.847 43.0106L108.388 45.0206ZM91.6132 7.11322L95.0736 5.10675L95.0164 5.00809L94.9536 4.91285L91.6132 7.11322ZM79.1483 0L79.3534 -3.99474L79.251 -4H79.1483V0ZM35.7766 0V-4H35.667L35.5577 -3.99401L35.7766 0ZM23.3868 7.11322L20.0425 4.91873L19.9834 5.00883L19.9292 5.10198L23.3868 7.11322ZM1.70089 44.3942L-1.7567 42.383L-1.81433 42.4821L-1.86619 42.5843L1.70089 44.3942ZM0 51.5H-4H0ZM1.70089 58.6058L-1.86619 60.4157L-1.81433 60.5179L-1.7567 60.617L1.70089 58.6058ZM23.3868 95.8868L19.9292 97.898L19.9843 97.9928L20.0446 98.0845L23.3868 95.8868ZM35.7766 103L35.5539 106.994L35.6651 107H35.7766V103ZM79.1483 103V107H79.2513L79.354 106.995L79.1483 103ZM91.6132 95.9166L94.9453 98.1296L95.011 98.0306L95.0708 97.9278L91.6132 95.9166ZM113.299 58.6356L116.757 60.6468L116.814 60.5477L116.866 60.4455L113.299 58.6356ZM115 51.5298H111H115ZM104.93 55.9999L85.1509 90.0449L92.0683 94.0636L111.847 60.0186L104.93 55.9999ZM85.2722 89.8495C84.3735 91.2097 83.1648 92.3447 81.7409 93.1615L85.7215 100.101C88.2251 98.6648 90.3578 96.6648 91.9471 94.2591L85.2722 89.8495ZM81.7409 93.1615C80.3168 93.9784 78.7181 94.4537 77.0729 94.5477L77.5293 102.535C80.4124 102.37 83.218 101.537 85.7215 100.101L81.7409 93.1615ZM77.3011 94.5412H37.6688V102.541H77.3011V94.5412ZM37.8969 94.5477C36.2489 94.4536 34.6474 93.978 33.2205 93.1606L29.2439 100.102C31.7493 101.537 34.5564 102.37 37.4408 102.535L37.8969 94.5477ZM33.2205 93.1606C31.7937 92.3432 30.582 91.2073 29.6803 89.8457L23.0103 94.2628C24.603 96.6678 26.7383 98.6669 29.2439 100.102L33.2205 93.1606ZM29.804 90.0449L10.0254 55.9999L3.10801 60.0186L22.8866 94.0636L29.804 90.0449ZM10.1282 56.1883C9.38703 54.7388 9.00151 53.1377 9.00151 51.5149H1.00151C1.00151 54.4059 1.6885 57.255 3.00523 59.8302L10.1282 56.1883ZM9.00151 51.5149C9.00151 49.8921 9.38703 48.291 10.1282 46.8415L3.00523 43.1996C1.6885 45.7748 1.00151 48.6239 1.00151 51.5149H9.00151ZM10.025 47.0306L29.8036 13.0004L22.887 8.98044L3.10839 43.0106L10.025 47.0306ZM29.6917 13.1817C30.586 11.8159 31.7935 10.6758 33.2183 9.85582L29.2279 2.92208C26.7181 4.36648 24.5835 6.37918 22.9989 8.79924L29.6917 13.1817ZM33.2183 9.85582C34.6432 9.03578 36.2444 8.5596 37.8921 8.46749L37.4455 0.479959C34.5528 0.641686 31.7376 1.47776 29.2279 2.92208L33.2183 9.85582ZM37.6688 8.47372H77.2711V0.473722H37.6688V8.47372ZM77.0563 8.46795C78.705 8.55662 80.3077 9.03092 81.7338 9.85055L85.7202 2.91452C83.2054 1.46915 80.384 0.635361 77.4859 0.479495L77.0563 8.46795ZM81.7338 9.85055C83.1598 10.6701 84.3677 11.8111 85.261 13.1783L91.9582 8.80254C90.3733 6.37675 88.2352 4.35996 85.7202 2.91452L81.7338 9.85055ZM85.1513 13.0004L104.93 47.0306L111.847 43.0106L92.0679 8.98044L85.1513 13.0004ZM104.815 46.8192C105.55 48.2785 105.932 49.8861 105.932 51.5149H113.932C113.932 48.6349 113.257 45.7956 111.961 43.222L104.815 46.8192ZM105.932 51.5149C105.932 53.1437 105.55 54.7513 104.815 56.2107L111.961 59.8079C113.257 57.2342 113.932 54.3949 113.932 51.5149H105.932ZM116.699 42.4027L95.0736 5.10675L88.1529 9.11969L109.779 46.4156L116.699 42.4027ZM94.9536 4.91285C93.2389 2.30967 90.9314 0.147802 88.2208 -1.39905L84.2557 5.54919C85.8769 6.47438 87.2526 7.76485 88.2728 9.31359L94.9536 4.91285ZM88.2208 -1.39905C85.5103 -2.94583 82.4722 -3.83461 79.3534 -3.99474L78.9432 3.99474C80.8141 4.0908 82.6343 4.62394 84.2557 5.54919L88.2208 -1.39905ZM79.1483 -4H35.7766V4H79.1483V-4ZM35.5577 -3.99401C32.4523 -3.82383 29.4296 -2.9296 26.7342 -1.38216L30.7174 5.55573C32.3272 4.63152 34.1354 4.09594 35.9954 3.99401L35.5577 -3.99401ZM26.7342 -1.38216C24.0388 0.16536 21.7456 2.32325 20.0425 4.91873L26.7311 9.30771C27.7427 7.76596 29.1078 6.47987 30.7174 5.55573L26.7342 -1.38216ZM19.9292 5.10198L-1.7567 42.383L5.15848 46.4055L26.8444 9.12445L19.9292 5.10198ZM-1.86619 42.5843C-3.26871 45.3484 -4 48.4021 -4 51.5H4C4 49.6619 4.4338 47.8482 5.26798 46.2042L-1.86619 42.5843ZM-4 51.5C-4 54.5979 -3.26871 57.6516 -1.86619 60.4157L5.26798 56.7958C4.4338 55.1518 4 53.3381 4 51.5H-4ZM-1.7567 60.617L19.9292 97.898L26.8444 93.8755L5.15848 56.5945L-1.7567 60.617ZM20.0446 98.0845C21.7493 100.677 24.0421 102.832 26.7361 104.379L30.7192 97.4411C29.1088 96.5166 27.7426 95.2306 26.7289 93.6891L20.0446 98.0845ZM26.7361 104.379C29.4299 105.926 32.4504 106.821 35.5539 106.994L35.9992 99.0062C34.1385 98.9025 32.3298 98.3658 30.7192 97.4411L26.7361 104.379ZM35.7766 107H79.1483V99H35.7766V107ZM79.354 106.995C82.4667 106.834 85.4992 105.95 88.2072 104.411L84.2547 97.4557C82.6323 98.3777 80.8127 98.909 78.9426 99.0053L79.354 106.995ZM88.2072 104.411C90.9153 102.872 93.2241 100.721 94.9453 98.1296L88.2812 93.7036C87.2555 95.2479 85.8769 96.5339 84.2547 97.4557L88.2072 104.411ZM95.0708 97.9278L116.757 60.6468L109.842 56.6243L88.1556 93.9054L95.0708 97.9278ZM116.866 60.4455C118.269 57.6814 119 54.6277 119 51.5298H111C111 53.3679 110.566 55.1816 109.732 56.8256L116.866 60.4455ZM119 51.5298C119 48.4319 118.269 45.3782 116.866 42.6141L109.732 46.234C110.566 47.878 111 49.6917 111 51.5298H119Z" fill="#727272" mask="url(#path-1-inside-1)"/>
</svg>
