<svg width="90" height="67" viewBox="0 0 90 67" fill="none" xmlns="http://www.w3.org/2000/svg">
<path d="M75.9218 63.736C73.6806 63.736 71.4897 63.0714 69.6262 61.8262C67.7627 60.5811 66.3103 58.8113 65.4526 56.7407C64.5949 54.67 64.3705 52.3916 64.8078 50.1934C65.245 47.9953 66.3242 45.9761 67.909 44.3914C69.4938 42.8066 71.5129 41.7273 73.7111 41.2901C75.9093 40.8528 78.1877 41.0773 80.2583 41.9349C82.3289 42.7926 84.0987 44.245 85.3439 46.1085C86.589 47.972 87.2536 50.1629 87.2536 52.4042C87.2475 55.4077 86.0517 58.2864 83.9279 60.4102C81.8041 62.534 78.9253 63.7299 75.9218 63.736ZM62.0461 50.1609H54.4376V49.8834C53.9581 47.2736 52.7403 44.856 50.9286 42.9172C49.1169 40.9785 46.7873 39.5998 44.2159 38.9447H43.8921L45.3491 33.302H68.5446C68.767 33.3006 68.985 33.2399 69.1761 33.126C69.3672 33.0122 69.5244 32.8494 69.6315 32.6544L76.3612 21.3458H84.756V30.5962H80.1308C79.7873 30.5962 79.4579 30.7327 79.215 30.9755C78.9722 31.2184 78.8357 31.5478 78.8357 31.8913C78.8357 32.2347 78.9722 32.5642 79.215 32.807C79.4579 33.0499 79.7873 33.1863 80.1308 33.1863H84.756V41.6968L84.2241 41.3036C81.8363 39.4897 78.9205 38.5069 75.9218 38.5054C72.6679 38.4956 69.514 39.6297 67.0114 41.7096C64.5089 43.7894 62.8169 46.6826 62.2312 49.8834L62.0461 50.1609ZM40.6545 63.736C38.4132 63.736 36.2224 63.0714 34.3589 61.8262C32.4953 60.5811 31.0429 58.8113 30.1852 56.7407C29.3276 54.67 29.1032 52.3916 29.5404 50.1934C29.9776 47.9953 31.0569 45.9761 32.6417 44.3914C34.2265 42.8066 36.2456 41.7273 38.4437 41.2901C40.6419 40.8528 42.9203 41.0773 44.991 41.9349C47.0616 42.7926 48.8314 44.245 50.0765 46.1085C51.3217 47.972 51.9863 50.1629 51.9863 52.4042C51.9802 55.4077 50.7843 58.2864 48.6605 60.4102C46.5367 62.534 43.658 63.7299 40.6545 63.736ZM25.7844 39.3148L29.6696 33.2095H42.5508L41.2326 38.5054H40.6776C37.2245 38.5212 33.9015 39.8241 31.3578 42.1593L25.7844 39.3148ZM19.7022 43.94V42.8762C19.5918 40.9983 18.7639 39.2348 17.3896 37.9503L17.1814 37.7653L20.9741 31.9144L21.2748 32.1225C22.232 32.8301 23.3914 33.2112 24.5818 33.2095H26.6863L19.7022 43.94ZM17.0889 53.4911C17.0954 54.7327 16.6145 55.9272 15.7496 56.818C14.8847 57.7088 13.7049 58.2248 12.4637 58.2551H6.1734L11.6774 38.5054H12.3481C13.5874 38.5415 14.7637 39.0593 15.6274 39.9488C16.491 40.8384 16.9738 42.0295 16.9733 43.2693L17.0889 53.4911ZM24.5818 24.329H42.6664C42.9483 24.3261 43.2226 24.2373 43.4527 24.0746L47.0142 21.3458H73.3548L67.8046 30.5962H65.0757V27.4742C65.0697 27.1326 64.9314 26.8066 64.6898 26.565C64.4482 26.3234 64.1222 26.1851 63.7806 26.1791C63.4371 26.1791 63.1077 26.3156 62.8649 26.5584C62.622 26.8013 62.4855 27.1307 62.4855 27.4742V30.5962H57.8603V27.4742C57.8603 27.1307 57.7239 26.8013 57.481 26.5584C57.2381 26.3156 56.9087 26.1791 56.5653 26.1791C56.2218 26.1791 55.8924 26.3156 55.6495 26.5584C55.4066 26.8013 55.2702 27.1307 55.2702 27.4742V30.5962H50.4831V27.4742C50.5077 27.2912 50.4929 27.105 50.4397 26.9282C50.3864 26.7514 50.296 26.588 50.1745 26.449C50.0529 26.31 49.903 26.1986 49.7349 26.1223C49.5667 26.0459 49.3842 26.0064 49.1996 26.0064C49.0149 26.0064 48.8324 26.0459 48.6643 26.1223C48.4961 26.1986 48.3462 26.31 48.2247 26.449C48.1031 26.588 48.0127 26.7514 47.9595 26.9282C47.9062 27.105 47.8915 27.2912 47.9161 27.4742V30.5962H24.5818C23.7477 30.5962 22.9477 30.2648 22.3578 29.675C21.768 29.0852 21.4366 28.2852 21.4366 27.4511C21.4366 26.6169 21.768 25.8169 22.3578 25.2271C22.9477 24.6373 23.7477 24.3059 24.5818 24.3059V24.329ZM57.8603 2.96048H69.2615V18.7094H53.8132L57.8603 2.96048ZM71.8516 2.96048H74.6499V3.21486C75.8756 7.97885 77.4482 14.7779 78.2807 18.2931V18.7094H71.8516V2.96048ZM87.3924 44.5875V20.0276C87.3924 19.6841 87.2559 19.3547 87.0131 19.1118C86.7702 18.8689 86.4408 18.7325 86.0973 18.7325H81.1021V18.4781C80.4777 15.8186 78.3732 6.70691 76.9625 1.36477C76.8599 1.10385 76.6767 0.882448 76.4397 0.732729C76.2026 0.58301 75.924 0.512776 75.6443 0.532231H53.767C53.4562 0.574039 53.1712 0.727174 52.9648 0.963215C52.7584 1.19926 52.6446 1.50217 52.6446 1.81573C52.6446 2.12929 52.7584 2.43221 52.9648 2.66825C53.1712 2.90429 53.4562 3.05742 53.767 3.09923H55.1083L51.0612 18.8481H46.436C46.231 18.8613 46.0324 18.9249 45.8578 19.0331L42.2964 21.7852H24.5818C23.0687 21.7912 21.6193 22.395 20.5494 23.4649C19.4795 24.5348 18.8757 25.9842 18.8696 27.4973C18.8611 28.2103 18.9947 28.9179 19.2628 29.5787V29.7405L14.9151 36.4471H14.6607C13.9141 36.2001 13.1344 36.0676 12.3481 36.054H10.7061C10.4239 36.0575 10.1502 36.1515 9.92541 36.3222C9.7006 36.4929 9.53652 36.7312 9.45731 37.0022L3.49077 58.3476H1.50192C1.16247 58.3536 0.838976 58.4928 0.601083 58.735C0.363191 58.9772 0.229926 59.3031 0.22998 59.6426C0.229926 59.9821 0.363191 60.3081 0.601083 60.5503C0.838976 60.7925 1.16247 60.9316 1.50192 60.9377H12.3481C14.2926 60.9255 16.1537 60.1461 17.5266 58.7689C18.8994 57.3917 19.673 55.5282 19.6791 53.5836V48.7271L25.0443 40.4479L24.4199 41.6736L29.4614 44.2638C28.207 46.0157 27.3778 48.0356 27.0396 50.1636C26.7013 52.2916 26.8633 54.4691 27.5127 56.5236C28.162 58.5781 29.281 60.4532 30.7808 62.0002C32.2806 63.5473 34.1201 64.7237 36.1535 65.4365C38.1869 66.1492 40.3583 66.3785 42.4958 66.1064C44.6332 65.8343 46.6779 65.0681 48.4678 63.8685C50.2578 62.669 51.7438 61.0691 52.8081 59.1956C53.8724 57.3221 54.4857 55.2265 54.5995 53.0748V52.751H62.0461V53.0748C62.1351 56.7549 63.6823 60.2489 66.3474 62.7882C69.0124 65.3275 72.5771 66.7041 76.2572 66.6152C79.9372 66.5262 83.4312 64.979 85.9705 62.314C88.5098 59.6489 89.8864 56.0842 89.7975 52.4042C89.8082 49.6573 89.0033 46.9691 87.4849 44.68" fill="#AF1917"/>
<path d="M40.7244 56.4972C39.9139 56.5018 39.1202 56.2656 38.444 55.8186C37.7679 55.3716 37.2396 54.7339 36.9262 53.9864C36.6129 53.2388 36.5285 52.4151 36.6838 51.6195C36.8392 50.824 37.2272 50.0925 37.7987 49.5177C38.3702 48.9429 39.0995 48.5508 39.8942 48.3909C40.6888 48.2311 41.5131 48.3108 42.2624 48.6199C43.0117 48.9291 43.6523 49.4537 44.1031 50.1273C44.554 50.801 44.7946 51.5933 44.7946 52.4038C44.7947 53.4855 44.3666 54.5231 43.6039 55.2901C42.8413 56.0571 41.806 56.4911 40.7244 56.4972ZM40.7244 45.7666C39.4052 45.7621 38.1143 46.1494 37.0155 46.8795C35.9167 47.6096 35.0594 48.6495 34.5524 49.8675C34.0455 51.0854 33.9116 52.4265 34.1679 53.7206C34.4241 55.0148 35.0589 56.2036 35.9918 57.1365C36.9246 58.0694 38.1135 58.7042 39.4076 58.9604C40.7018 59.2167 42.0428 59.0828 43.2608 58.5758C44.4788 58.0689 45.5187 57.2116 46.2488 56.1128C46.9789 55.014 47.3662 53.7231 47.3616 52.4038C47.3555 50.6454 46.6543 48.9608 45.4109 47.7174C44.1675 46.474 42.4828 45.7727 40.7244 45.7666Z" fill="#AF1917"/>
<path d="M75.922 56.4971C75.1115 56.5017 74.3178 56.2655 73.6416 55.8186C72.9654 55.3716 72.4372 54.7339 72.1238 53.9863C71.8105 53.2388 71.7261 52.4151 71.8814 51.6195C72.0367 50.824 72.4248 50.0924 72.9963 49.5177C73.5678 48.9429 74.2971 48.5507 75.0918 48.3909C75.8864 48.2311 76.7106 48.3108 77.4599 48.6199C78.2093 48.929 78.8499 49.4537 79.3007 50.1273C79.7515 50.8009 79.9922 51.5932 79.9922 52.4038C79.9922 53.4854 79.5641 54.5231 78.8015 55.2901C78.0388 56.0571 77.0036 56.491 75.922 56.4971ZM75.922 45.7666C74.6037 45.7666 73.3151 46.1578 72.2193 46.8907C71.1236 47.6236 70.2699 48.6651 69.7665 49.8835C69.2631 51.1019 69.1325 52.4422 69.3914 53.7348C69.6503 55.0274 70.2869 56.2141 71.2207 57.1447C72.1545 58.0752 73.3434 58.7077 74.6369 58.9621C75.9304 59.2165 77.2703 59.0813 78.4869 58.5736C79.7035 58.066 80.7421 57.2087 81.4711 56.1104C82.2002 55.012 82.5869 53.7221 82.5823 52.4038C82.5762 50.6414 81.8718 48.9532 80.6234 47.7092C79.375 46.4651 77.6844 45.7666 75.922 45.7666Z" fill="#AF1917"/>
</svg>
