<svg width="141" height="47" viewBox="0 0 141 47" fill="none" xmlns="http://www.w3.org/2000/svg">
<path d="M46.3986 35.7099C45.7527 35.7145 45.12 35.5271 44.5807 35.1716C44.0415 34.8161 43.6199 34.3085 43.3696 33.7131C43.1192 33.1177 43.0513 32.4613 43.1745 31.8273C43.2977 31.1932 43.6065 30.61 44.0615 30.1517C44.5166 29.6934 45.0976 29.3805 45.7308 29.2528C46.3639 29.1251 47.0207 29.1883 47.6179 29.4344C48.2151 29.6805 48.7257 30.0984 49.0851 30.6351C49.4444 31.1719 49.6362 31.8032 49.6362 32.4491C49.6363 33.3099 49.2959 34.1359 48.6894 34.7467C48.0829 35.3576 47.2594 35.7038 46.3986 35.7099ZM46.3986 26.6213C45.246 26.6213 44.1192 26.9631 43.1608 27.6035C42.2025 28.2439 41.4555 29.154 41.0144 30.2189C40.5733 31.2838 40.4579 32.4556 40.6828 33.5861C40.9076 34.7165 41.4627 35.755 42.2777 36.57C43.0928 37.385 44.1312 37.9401 45.2616 38.1649C46.3921 38.3898 47.5639 38.2744 48.6288 37.8333C49.6937 37.3922 50.6038 36.6452 51.2442 35.6869C51.8846 34.7285 52.2264 33.6018 52.2264 32.4491C52.2264 30.9035 51.6124 29.4212 50.5195 28.3283C49.4265 27.2353 47.9442 26.6213 46.3986 26.6213Z" fill="#AF1917"/>
<path d="M117.212 35.7099C116.566 35.7145 115.933 35.5271 115.394 35.1716C114.854 34.8161 114.433 34.3085 114.183 33.7131C113.932 33.1177 113.864 32.4613 113.988 31.8273C114.111 31.1932 114.419 30.61 114.875 30.1517C115.33 29.6934 115.911 29.3805 116.544 29.2528C117.177 29.1251 117.834 29.1883 118.431 29.4344C119.028 29.6805 119.539 30.0984 119.898 30.6351C120.257 31.1719 120.449 31.8032 120.449 32.4491C120.449 33.3099 120.109 34.1359 119.502 34.7467C118.896 35.3576 118.072 35.7038 117.212 35.7099ZM117.212 26.6213C116.059 26.6213 114.932 26.9631 113.974 27.6035C113.015 28.2439 112.268 29.154 111.827 30.2189C111.386 31.2838 111.271 32.4556 111.496 33.5861C111.721 34.7165 112.276 35.755 113.091 36.57C113.906 37.385 114.944 37.9401 116.075 38.1649C117.205 38.3898 118.377 38.2744 119.442 37.8333C120.507 37.3922 121.417 36.6452 122.057 35.6869C122.698 34.7285 123.039 33.6018 123.039 32.4491C123.039 30.9035 122.425 29.4212 121.332 28.3283C120.24 27.2353 118.757 26.6213 117.212 26.6213Z" fill="#AF1917"/>
<path d="M30.1178 24.7256H24.5213V11.1506H30.1178V24.7256ZM31.4129 8.53735H23.2262C22.8846 8.5433 22.5586 8.68165 22.317 8.92325C22.0754 9.16484 21.9371 9.4908 21.9312 9.83242V26.0207C21.9371 26.3623 22.0754 26.6883 22.317 26.9299C22.5586 27.1715 22.8846 27.3098 23.2262 27.3158H31.4129C31.7545 27.3098 32.0804 27.1715 32.322 26.9299C32.5636 26.6883 32.702 26.3623 32.7079 26.0207V9.83242C32.702 9.4908 32.5636 9.16484 32.322 8.92325C32.0804 8.68165 31.7545 8.5433 31.4129 8.53735Z" fill="#AF1917"/>
<path d="M137.516 19.2214C135.832 19.4104 134.232 20.0583 132.891 21.0947L124.01 14.6193C123.788 14.4609 123.52 14.3797 123.247 14.3881H105.394C105.198 14.3854 105.005 14.4278 104.828 14.512C104.652 14.5962 104.497 14.72 104.376 14.8737L88.1879 35.5716C88.033 35.7781 87.9516 36.0304 87.9566 36.2885L79.3306 36.6585C79.3306 32.5421 78.4981 20.3084 73.2253 12.723H131.156L137.516 18.8977V19.2214ZM129.26 25.9743C127.808 23.3616 125.534 21.3013 122.791 20.113C120.048 18.9248 116.99 18.675 114.091 19.4024C111.192 20.1299 108.614 21.7939 106.757 24.1362C104.9 26.4786 103.868 29.3684 103.821 32.3571C99.6939 33.1223 95.6282 34.1889 91.6568 35.5485L106.203 17.0476H122.808L130.856 23.0604C130.164 23.9967 129.589 25.0141 129.144 26.0899L129.26 25.9743ZM117.211 43.5501C115.047 43.5363 112.934 42.8833 111.139 41.673C109.345 40.4627 107.948 38.7491 107.123 36.7474C106.299 34.7457 106.085 32.5452 106.507 30.4221C106.93 28.299 107.97 26.348 109.497 24.8142C111.025 23.2803 112.972 22.2319 115.093 21.8007C117.214 21.3695 119.416 21.5746 121.421 22.3903C123.426 23.2061 125.145 24.5961 126.363 26.3857C127.581 28.1754 128.243 30.285 128.266 32.4496C128.266 35.363 127.108 38.157 125.048 40.2171C122.988 42.2772 120.194 43.4345 117.281 43.4345L117.211 43.5501ZM69.1551 36.6585H68.8082H59.3034C59.7504 35.3163 59.9769 33.9105 59.974 32.4958C60.0034 30.531 59.6058 28.5831 58.8088 26.7869C58.0117 24.9907 56.8342 23.389 55.3576 22.0924C53.881 20.7958 52.1404 19.8352 50.2563 19.277C48.3721 18.7189 46.3892 18.5765 44.4446 18.8596C42.5 19.1427 40.6401 19.8447 38.9933 20.9169C37.3465 21.9892 35.9522 23.4062 34.9066 25.07C33.861 26.7338 33.1891 28.6048 32.9373 30.5537C32.6856 32.5026 32.8599 34.483 33.4483 36.3579L18.9483 36.196L2.75996 33.8834V33.1896L5.95137 32.9584C6.25576 32.9228 6.5388 32.7841 6.75339 32.5653C6.96797 32.3465 7.10117 32.0608 7.1308 31.7558L8.05585 19.1521H19.7345C19.9057 19.1558 20.0759 19.125 20.2348 19.0614C20.3938 18.9978 20.5382 18.9028 20.6596 18.782C20.8937 18.5397 21.0261 18.217 21.0296 17.8801V9.76285C21.0298 9.42724 20.8997 9.10466 20.6668 8.86307C20.4338 8.62149 20.1162 8.47977 19.7808 8.46778H17.1444L17.3063 7.4271L37.6342 7.58899L39.2993 15.4981C39.3581 15.792 39.5171 16.0563 39.749 16.2461C39.9809 16.4358 40.2715 16.5393 40.5712 16.5388L67.2356 16.3769L67.8369 33.3284C67.8489 33.6638 67.9906 33.9814 68.2322 34.2144C68.4738 34.4473 68.7964 34.5774 69.132 34.5772H76.7636C76.7636 35.4097 76.7636 36.1498 76.8792 36.7048L69.1551 36.6585ZM46.399 43.4345C44.2264 43.4345 42.1025 42.7902 40.2961 41.5832C38.4896 40.3762 37.0817 38.6606 36.2502 36.6533C35.4188 34.6461 35.2013 32.4374 35.6251 30.3065C36.049 28.1757 37.0952 26.2183 38.6315 24.6821C40.1677 23.1458 42.1251 22.0996 44.2559 21.6757C46.3868 21.2519 48.5955 21.4694 50.6027 22.3008C52.61 23.1323 54.3256 24.5402 55.5326 26.3467C56.7396 28.1532 57.3839 30.277 57.3839 32.4496C57.3839 35.363 56.2266 38.157 54.1665 40.2171C52.1064 42.2772 49.3124 43.4345 46.399 43.4345ZM16.5431 11.0579C16.6431 11.0686 16.7439 11.0686 16.8438 11.0579H18.2776V16.6082H15.6181L16.5431 11.0579ZM75.3529 25.2342C75.84 27.5246 76.1951 29.841 76.4167 32.1721H70.2189L69.9876 25.2342H75.3529ZM73.7803 19.6608C74.1503 20.6321 74.451 21.6266 74.7285 22.6441H69.8951V19.6608H73.7803ZM87.3091 4.05069L90.8474 8.02838C90.9785 8.1729 91.1395 8.28709 91.3192 8.36298C91.499 8.43887 91.6931 8.47464 91.8881 8.46778C92.0844 8.45389 92.2753 8.39696 92.4471 8.30104C92.619 8.20512 92.7676 8.07256 92.8825 7.91276L95.5883 4.02756C95.7208 4.13941 95.8744 4.22351 96.04 4.27487C96.2057 4.32623 96.3799 4.3438 96.5525 4.32655C96.725 4.30929 96.8923 4.25756 97.0445 4.17442C97.1967 4.09128 97.3306 3.97843 97.4384 3.84255L98.2015 2.89438L110.227 7.10334C110.505 7.19509 110.805 7.19509 111.083 7.10334L114.552 5.87765C118.569 7.06864 122.515 8.48938 126.369 10.1329H74.9135L87.3091 4.05069ZM139.829 17.5564L132.613 10.5029C132.368 10.2727 132.047 10.1409 131.711 10.1329H131.11C128.913 7.70462 120.194 4.8601 114.922 3.19502C114.658 3.11315 114.376 3.11315 114.112 3.19502L110.667 4.55946L98.2015 0.119245C97.9492 0.0286429 97.6746 0.0201113 97.4171 0.0948705C97.1596 0.16963 96.9323 0.323856 96.7677 0.535517L96.2589 1.15992L96.0971 1.02116C95.9568 0.904486 95.7942 0.817647 95.6193 0.765954C95.4443 0.714261 95.2606 0.698803 95.0795 0.720526C94.7285 0.776579 94.4132 0.967417 94.2007 1.25243L91.5875 4.97574L88.4885 1.48369C88.2973 1.2731 88.0431 1.13002 87.7638 1.07584C87.4845 1.02165 87.1952 1.05926 86.9391 1.18305L72.1384 8.58341C71.9746 8.66765 71.8304 8.78525 71.7149 8.92864C71.5993 9.07204 71.5152 9.23804 71.4677 9.41595L67.5131 7.70462C67.2179 7.62125 66.9027 7.6454 66.6236 7.77277C66.3445 7.90013 66.1197 8.12243 65.9892 8.40008C65.8587 8.67772 65.831 8.99268 65.911 9.28884C65.9911 9.585 66.1736 9.84312 66.4262 10.0172C69.1961 11.5821 71.3679 14.0224 72.6009 16.9551H69.5945V14.9662C69.5825 14.6308 69.4408 14.3132 69.1992 14.0802C68.9576 13.8473 68.635 13.7172 68.2994 13.7174L41.45 13.8099L39.7849 5.92391C39.7262 5.63622 39.5697 5.37771 39.3421 5.19224C39.1145 5.00677 38.8297 4.90576 38.5361 4.90636L16.0575 4.72135C15.7485 4.72198 15.4495 4.83116 15.2127 5.02984C14.976 5.22851 14.8166 5.50403 14.7624 5.80828L13.0048 16.4232L6.71453 16.2844C6.4392 16.2912 6.17292 16.3841 5.95308 16.55C5.73325 16.716 5.5709 16.9466 5.48884 17.2095C5.47571 17.2704 5.47571 17.3335 5.48884 17.3945C5.49968 17.4634 5.49968 17.5336 5.48884 17.6026L4.58693 30.1138L1.32614 30.3682C1.0029 30.3913 0.700074 30.5348 0.477439 30.7703C0.254804 31.0058 0.128543 31.3161 0.123581 31.6402V34.6466C0.0454076 34.9835 0.100401 35.3376 0.277079 35.6349C0.453757 35.9322 0.738463 36.1498 1.07175 36.2423L18.5782 38.7861H18.7401L34.4428 38.948C35.5966 41.0695 37.2964 42.844 39.3662 44.0881C41.4359 45.3322 43.8006 46.0006 46.2154 46.0242C48.6302 46.0478 51.0074 45.4257 53.1011 44.2222C55.1948 43.0188 56.9289 41.2778 58.1239 39.1793L69.0857 39.2949H69.4326H77.6655H77.943L89.8761 38.7861C90.0208 38.8189 90.1709 38.8189 90.3155 38.7861C94.6605 37.1234 99.1509 35.8692 103.729 35.0397C104.351 38.3657 106.192 41.3396 108.893 43.3785C111.593 45.4173 114.957 46.3742 118.327 46.0616C121.696 45.749 124.827 44.1895 127.106 41.6886C129.385 39.1877 130.648 35.9257 130.647 32.5421C130.656 31.7662 130.586 30.9914 130.439 30.2295C132.243 21.2334 137.863 21.7653 138.094 21.7884C138.411 21.8321 138.733 21.757 138.997 21.5777C139.262 21.3984 139.451 21.1275 139.528 20.8171L140.037 18.8052C140.086 18.5827 140.078 18.3513 140.013 18.1328C139.949 17.9143 139.829 17.7159 139.667 17.5564" fill="#AF1917"/>
<path d="M30.5801 28.2166H11.5705C11.2288 28.2225 10.9029 28.3608 10.6613 28.6024C10.4197 28.844 10.2813 29.17 10.2754 29.5116C10.2813 29.8532 10.4197 30.1792 10.6613 30.4208C10.9029 30.6624 11.2288 30.8007 11.5705 30.8067H30.5801C30.9236 30.8067 31.253 30.6702 31.4959 30.4274C31.7388 30.1845 31.8752 29.8551 31.8752 29.5116C31.8693 29.17 31.7309 28.844 31.4893 28.6024C31.2477 28.3608 30.9218 28.2225 30.5801 28.2166Z" fill="#AF1917"/>
<path d="M12.6347 26.829C12.8457 26.8266 13.0529 26.7727 13.2383 26.6719C13.4237 26.5712 13.5817 26.4266 13.6985 26.2509L16.358 22.2963C16.5481 22.0081 16.616 21.6561 16.5466 21.3178C16.4772 20.9795 16.2763 20.6826 15.988 20.4925C15.6997 20.3023 15.3477 20.2345 15.0094 20.3039C14.6711 20.3733 14.3743 20.5742 14.1841 20.8625L11.5478 24.8171C11.4533 24.9577 11.3878 25.1158 11.3553 25.282C11.3227 25.4483 11.3237 25.6194 11.3581 25.7853C11.3926 25.9512 11.4599 26.1085 11.556 26.248C11.6521 26.3875 11.7751 26.5065 11.9178 26.5978C12.1242 26.7527 12.3766 26.8341 12.6347 26.829Z" fill="#AF1917"/>
<path d="M84.3257 14.0404C84.1832 13.9453 84.0233 13.8794 83.8553 13.8466C83.6872 13.8137 83.5143 13.8145 83.3465 13.8489C83.1788 13.8833 83.0195 13.9507 82.8779 14.0471C82.7364 14.1434 82.6154 14.2669 82.5218 14.4104L79.3998 19.0356C79.3036 19.1767 79.2363 19.3353 79.2017 19.5025C79.1671 19.6697 79.1659 19.842 79.1981 20.0097C79.2303 20.1773 79.2954 20.3369 79.3896 20.4793C79.4837 20.6217 79.6051 20.7441 79.7467 20.8395C79.9617 20.9741 80.2099 21.0462 80.4636 21.0476C80.6782 21.0469 80.8893 20.994 81.0787 20.8932C81.2681 20.7924 81.4301 20.647 81.5505 20.4694L84.6726 15.8442C84.7718 15.7042 84.8418 15.5456 84.8781 15.3779C84.9145 15.2101 84.9165 15.0368 84.8841 14.8683C84.8517 14.6997 84.7855 14.5395 84.6895 14.3972C84.5936 14.2549 84.4698 14.1336 84.3257 14.0404Z" fill="#AF1917"/>
<path d="M87.8402 14.4105L84.6951 19.0357C84.565 19.2314 84.4906 19.4588 84.4799 19.6935C84.4691 19.9282 84.5225 20.1614 84.6342 20.3682C84.7458 20.5749 84.9117 20.7474 85.1139 20.8671C85.3161 20.9868 85.547 21.0492 85.782 21.0477C85.9938 21.0494 86.2026 20.9973 86.3886 20.8961C86.5747 20.795 86.7321 20.6482 86.8458 20.4695L89.991 15.8443C90.086 15.7018 90.1519 15.542 90.1847 15.3739C90.2176 15.2058 90.2168 15.0329 90.1824 14.8651C90.148 14.6974 90.0806 14.5381 89.9843 14.3966C89.8879 14.255 89.7644 14.134 89.6209 14.0404C89.4803 13.9459 89.3222 13.8805 89.156 13.8479C88.9897 13.8154 88.8186 13.8164 88.6527 13.8508C88.4869 13.8853 88.3295 13.9525 88.19 14.0487C88.0505 14.1448 87.9316 14.2678 87.8402 14.4105Z" fill="#AF1917"/>
</svg>
