<svg width="133" height="81" viewBox="0 0 133 81" fill="none" xmlns="http://www.w3.org/2000/svg">
<path d="M18.0622 16.4463C18.2684 16.5815 18.5094 16.6538 18.756 16.6544C18.973 16.6533 19.1863 16.5977 19.3762 16.4926C19.5662 16.3876 19.7266 16.2364 19.8429 16.0532L22.1555 12.2605C22.3299 11.9675 22.384 11.6182 22.3064 11.2862C22.2288 10.9541 22.0255 10.6651 21.7392 10.4798C21.4478 10.2994 21.0967 10.2419 20.7629 10.3199C20.4291 10.3979 20.1398 10.6051 19.9585 10.896L17.6459 14.6656C17.5525 14.8076 17.4884 14.9669 17.4576 15.1341C17.4268 15.3013 17.4298 15.473 17.4664 15.639C17.5031 15.805 17.5726 15.962 17.671 16.1006C17.7694 16.2393 17.8945 16.3568 18.0391 16.4463" fill="#AF1917"/>
<path d="M15.01 15.152H15.3337C15.6241 15.1537 15.9064 15.056 16.1336 14.8751C16.3607 14.6942 16.5192 14.441 16.5825 14.1576L19.4733 2.24764C19.5561 1.91336 19.5027 1.55989 19.3249 1.26497C19.1471 0.970059 18.8594 0.75786 18.5251 0.675059C18.1909 0.592257 17.8374 0.645636 17.5425 0.823452C17.2475 1.00127 17.0353 1.28896 16.9525 1.62323L14.0618 13.5563C14.0206 13.7204 14.0125 13.891 14.038 14.0582C14.0635 14.2254 14.1222 14.3859 14.2105 14.5302C14.2988 14.6745 14.4149 14.7997 14.5522 14.8985C14.6895 14.9974 14.8451 15.0678 15.01 15.1058" fill="#AF1917"/>
<path d="M129.577 57.5183H124.327L129.577 54.0725V57.5183ZM119.633 41.1912L128.236 45.6777V51.7136L119.633 56.1076V41.1912ZM117.181 57.0558H108.902V40.4049H117.181V57.0558ZM113.712 64.7105H110.822C109.937 63.1994 108.672 61.9461 107.152 61.0752C105.633 60.2043 103.912 59.746 102.161 59.746C100.41 59.746 98.6888 60.2043 97.1695 61.0752C95.6502 61.9461 94.3851 63.1994 93.5001 64.7105H71.0909C70.7658 64.7105 70.454 64.8397 70.2242 65.0695C69.9943 65.2994 69.8652 65.6111 69.8652 65.9362V67.6707H68.8245C68.3117 65.3611 67.0013 63.3062 65.1236 61.867C63.246 60.4278 60.9211 59.6964 58.5577 59.8013C56.1942 59.9062 53.9433 60.8407 52.2006 62.4407C50.4578 64.0406 49.3347 66.2036 49.0285 68.5495H40.5644L40.3794 42.8101C40.3801 42.6074 40.3296 42.4079 40.2325 42.23C40.1355 42.0521 39.9951 41.9016 39.8243 41.7925L35.731 39.0405C35.528 38.8959 35.2864 38.8154 35.0372 38.8092H17.207V34.6465H39.5237L42.9695 38.9017V57.7495C42.9695 57.9105 43.0012 58.0699 43.0628 58.2186C43.1244 58.3673 43.2147 58.5024 43.3285 58.6162C43.4423 58.7301 43.5774 58.8203 43.7261 58.8819C43.8748 58.9435 44.0342 58.9752 44.1952 58.9752H48.1266C48.2876 58.9752 48.447 58.9435 48.5957 58.8819C48.7444 58.8203 48.8795 58.7301 48.9933 58.6162C49.1071 58.5024 49.1974 58.3673 49.259 58.2186C49.3206 58.0699 49.3523 57.9105 49.3523 57.7495V42.3475H51.2718V50.1873C51.2718 50.5124 51.4009 50.8241 51.6308 51.054C51.8606 51.2839 52.1724 51.413 52.4975 51.413H68.0613L69.9346 53.425V61.8891C69.9346 62.0501 69.9663 62.2095 70.0279 62.3582C70.0895 62.5069 70.1798 62.642 70.2936 62.7558C70.4074 62.8696 70.5425 62.9599 70.6912 63.0215C70.8399 63.0831 70.9993 63.1148 71.1603 63.1148H91.9738C92.1356 63.118 92.2964 63.0884 92.4465 63.0279C92.5966 62.9674 92.733 62.8773 92.8475 62.7628C92.9619 62.6484 93.0521 62.512 93.1126 62.3619C93.1731 62.2117 93.2026 62.051 93.1995 61.8891V51.4824H98.426V52.5924C98.4304 52.7883 98.4809 52.9803 98.5733 53.1531C98.6657 53.3258 98.7974 53.4744 98.9579 53.5868L107.075 59.3684C107.287 59.5136 107.536 59.5939 107.792 59.5996H110.452L113.712 63.0454V64.7105ZM102.149 77.4299C100.639 77.4299 99.1625 76.9817 97.907 76.1421C96.6515 75.3025 95.6733 74.1092 95.0964 72.7134C94.5195 71.3176 94.3697 69.7819 94.666 68.3009C94.9624 66.8199 95.6915 65.4601 96.7611 64.3937C97.8307 63.3273 99.1927 62.6023 100.675 62.3105C102.157 62.0186 103.692 62.1731 105.086 62.7542C106.48 63.3354 107.67 64.3172 108.506 65.5752C109.342 66.8333 109.785 68.311 109.781 69.8214C109.775 71.8414 108.968 73.7766 107.537 75.2028C106.107 76.629 104.169 77.4299 102.149 77.4299ZM58.9959 77.4299C57.4855 77.4299 56.0091 76.9817 54.7536 76.1421C53.4981 75.3025 52.52 74.1092 51.943 72.7134C51.3661 71.3176 51.2163 69.7819 51.5127 68.3009C51.809 66.8199 52.5381 65.4601 53.6078 64.3937C54.6774 63.3273 56.0394 62.6023 57.5213 62.3105C59.0032 62.0186 60.5384 62.1731 61.9325 62.7542C63.3265 63.3354 64.5168 64.3172 65.3526 65.5752C66.1884 66.8333 66.6321 68.311 66.6275 69.8214C66.6214 71.8414 65.8147 73.7766 64.3841 75.2028C62.9536 76.629 61.0159 77.4299 58.9959 77.4299ZM35.0835 67.6707V57.9577H38.0899V68.1794L35.0835 67.6707ZM32.7709 41.2144H34.621L37.8817 43.527V55.7145H34.8291L32.7709 41.2144ZM29.5563 72.9434C28.0449 73.4839 26.4214 73.6337 24.8365 73.379C23.2517 73.1243 21.7569 72.4733 20.4909 71.4865C17.1376 68.9889 18.5714 64.7568 21.1384 58.559C22.8266 54.4656 24.4455 50.5804 23.451 47.4122C22.1791 43.157 17.0913 43.6426 12.6049 44.0589C7.72526 44.5445 4.44135 44.6602 3.49318 42.1857C3.12325 41.3418 3.03408 40.4014 3.23879 39.503L9.25159 41.8156C9.39726 41.8372 9.54531 41.8372 9.69098 41.8156C9.87425 41.8132 10.0551 41.7739 10.2229 41.7C10.3802 41.6281 10.5197 41.5224 10.6316 41.3905C10.7435 41.2586 10.825 41.1038 10.8704 40.9368L11.7723 37.9998H14.7325V39.9193C14.7325 40.2444 14.8616 40.5561 15.0915 40.786C15.3213 41.0158 15.6331 41.145 15.9582 41.145H30.4583L32.5859 56.3851C32.5892 56.5026 32.6297 56.6159 32.7015 56.7089V68.7345C32.7028 69.0286 32.8079 69.3128 32.9983 69.5371C33.1887 69.7613 33.4521 69.9111 33.7422 69.9602H34.1353C32.8824 71.2288 31.3668 72.2076 29.6951 72.8278L29.5563 72.9434ZM14.9637 19.4064L8.88157 39.0636L4.69574 37.4217L14.9637 19.4064ZM82.3764 51.2742C82.3764 50.1395 82.8272 49.0513 83.6295 48.249C84.4319 47.4466 85.5201 46.9959 86.6548 46.9959H87.1404C88.0606 47.0141 88.937 47.3924 89.5813 48.0497C90.2256 48.7069 90.5864 49.5907 90.5862 50.5111V60.5016H82.3764V51.2742ZM100.762 45.6315L106.451 41.6075V55.9226L100.762 51.8755V45.6315ZM131.381 50.6498C131.168 50.5377 130.927 50.4895 130.687 50.5111V44.9377C130.688 44.7118 130.626 44.49 130.508 44.2978C130.389 44.1056 130.219 43.9506 130.016 43.8507L118.962 38.0692C118.79 37.9822 118.599 37.9423 118.407 37.9536H107.676C107.505 37.9547 107.336 37.9924 107.18 38.0642C107.025 38.136 106.887 38.2402 106.775 38.3698L98.8422 44.0126C98.6818 44.125 98.55 44.2736 98.4576 44.4464C98.3652 44.6191 98.3148 44.8112 98.3103 45.007V48.9616H92.8988C92.5617 47.6927 91.8138 46.5712 90.7721 45.7721C89.7303 44.973 88.4533 44.5414 87.1404 44.5445H86.6548C84.8718 44.5506 83.1636 45.2616 81.9029 46.5223C80.6421 47.7831 79.9312 49.4913 79.9251 51.2742V60.7328H72.3166V52.9624C72.322 52.6532 72.2057 52.3542 71.9928 52.1299L70.2815 50.2798C70.3033 50.1652 70.3033 50.0475 70.2815 49.9329V43.5964H74.7679V56.2232C74.7679 56.5483 74.8971 56.8601 75.1269 57.0899C75.3568 57.3198 75.6685 57.4489 75.9936 57.4489C76.3187 57.4489 76.6304 57.3198 76.8603 57.0899C77.0902 56.8601 77.2193 56.5483 77.2193 56.2232V42.3475C77.2193 42.1866 77.1876 42.0272 77.126 41.8785C77.0644 41.7298 76.9741 41.5947 76.8603 41.4809C76.7465 41.367 76.6114 41.2768 76.4627 41.2152C76.314 41.1536 76.1546 41.1219 75.9936 41.1219H69.0558C68.7307 41.1219 68.419 41.251 68.1891 41.4809C67.9592 41.7107 67.8301 42.0225 67.8301 42.3475V48.9385H53.5844V41.1219C53.579 40.8125 53.4569 40.5165 53.2424 40.2935C53.0279 40.0704 52.737 39.9368 52.4281 39.9193H48.1266C47.9648 39.9162 47.804 39.9457 47.6539 40.0062C47.5038 40.0667 47.3674 40.1568 47.2529 40.2713C47.1385 40.3857 47.0483 40.5221 46.9878 40.6722C46.9274 40.8224 46.8978 40.9832 46.9009 41.145V56.547H45.4209V38.4624C45.4209 38.1871 45.3316 37.9194 45.1665 37.6992L41.05 32.6577C40.9387 32.5123 40.7951 32.3948 40.6305 32.3145C40.466 32.2342 40.285 32.1934 40.1019 32.1952H15.9813C15.6562 32.1952 15.3445 32.3243 15.1146 32.5542C14.8847 32.784 14.7556 33.0958 14.7556 33.4209V33.8834H13.1137L17.7389 19.1058C17.8271 18.8197 17.8076 18.5113 17.6841 18.2386C17.5605 17.966 17.3415 17.7479 17.0682 17.6257L14.9869 16.7007C14.7079 16.5877 14.3974 16.5793 14.1127 16.677C13.828 16.7748 13.5882 16.972 13.4374 17.2326L2.70689 35.9416C2.11357 36.4383 1.61928 37.0424 1.24994 37.7223C0.835015 38.5482 0.609349 39.4563 0.589348 40.3803C0.569346 41.3044 0.75551 42.2213 1.13431 43.0645C2.82252 47.4584 8.07215 46.9496 12.6974 46.5102C17.3226 46.0708 20.3059 45.9552 20.9765 48.1291C21.6472 50.3029 20.1671 54.0956 18.6639 57.6339C16.3513 63.2536 13.6918 69.6364 18.8258 73.4522C20.9062 75.0627 23.4566 75.9481 26.0874 75.9729C27.5764 76.0099 29.0591 75.7667 30.4583 75.256C33.0113 74.3466 35.2613 72.7452 36.9567 70.6308L39.2693 71.0008H48.9592C49.0941 73.6658 50.2822 76.168 52.262 77.957C54.2418 79.746 56.8513 80.6753 59.5162 80.5404C62.1812 80.4054 64.6834 79.2174 66.4725 77.2375C68.2615 75.2577 69.1907 72.6483 69.0558 69.9833H71.0909C71.4159 69.9833 71.7277 69.8541 71.9576 69.6243C72.1874 69.3944 72.3166 69.0827 72.3166 68.7576V67.0925H92.4594C92.0347 68.5922 91.9634 70.17 92.2512 71.7019C92.539 73.2337 93.178 74.6781 94.1181 75.9213C95.0582 77.1646 96.2737 78.1731 97.6692 78.8674C99.0647 79.5618 100.602 79.9231 102.161 79.9231C103.72 79.9231 105.257 79.5618 106.652 78.8674C108.048 78.1731 109.263 77.1646 110.204 75.9213C111.144 74.6781 111.783 73.2337 112.07 71.7019C112.358 70.17 112.287 68.5922 111.862 67.0925H114.961C115.286 67.0925 115.598 66.9634 115.828 66.7335C116.058 66.5037 116.187 66.1919 116.187 65.8668V62.5367C116.19 62.378 116.16 62.2205 116.101 62.0735C116.041 61.9264 115.952 61.793 115.84 61.681L113.99 59.7615L130.779 59.9697C130.942 59.977 131.104 59.9498 131.256 59.8901C131.407 59.8303 131.544 59.7392 131.658 59.6228C131.891 59.3889 132.024 59.0738 132.028 58.744V51.8061C132.029 51.5832 131.97 51.3642 131.856 51.1727C131.741 50.9811 131.577 50.8244 131.381 50.7192" fill="#AF1917"/>
<path d="M58.9956 72.4359C58.4798 72.4314 57.9768 72.2742 57.5501 71.9843C57.1234 71.6944 56.7921 71.2847 56.5978 70.8068C56.4036 70.3289 56.3551 69.8042 56.4585 69.2988C56.562 68.7934 56.8127 68.33 57.179 67.9668C57.5454 67.6036 58.0111 67.357 58.5174 67.2581C59.0236 67.1591 59.5479 67.2122 60.024 67.4106C60.5002 67.6091 60.907 67.944 61.1931 68.3733C61.4793 68.8025 61.632 69.3068 61.632 69.8227C61.6259 70.5179 61.3454 71.1825 60.8517 71.6719C60.3579 72.1614 59.6908 72.436 58.9956 72.4359ZM58.9956 64.7581C57.9949 64.7626 57.018 65.0635 56.1882 65.6228C55.3583 66.1821 54.7128 66.9747 54.333 67.9005C53.9532 68.8263 53.8562 69.8439 54.0543 70.8248C54.2523 71.8058 54.7364 72.706 55.4457 73.412C56.1549 74.118 57.0573 74.5981 58.0391 74.7916C59.0209 74.9852 60.0381 74.8835 60.9622 74.4995C61.8863 74.1155 62.6759 73.4664 63.2314 72.634C63.7869 71.8016 64.0833 70.8234 64.0834 69.8227C64.0772 68.4773 63.5385 67.1892 62.585 66.24C61.6316 65.2909 60.341 64.758 58.9956 64.7581Z" fill="#AF1917"/>
<path d="M102.149 72.4359C101.633 72.4314 101.13 72.2742 100.703 71.9843C100.277 71.6944 99.9454 71.2847 99.7511 70.8068C99.5569 70.3289 99.5084 69.8042 99.6119 69.2988C99.7153 68.7934 99.966 68.33 100.332 67.9668C100.699 67.6036 101.164 67.357 101.671 67.2581C102.177 67.1591 102.701 67.2122 103.177 67.4106C103.654 67.6091 104.06 67.944 104.346 68.3733C104.633 68.8025 104.785 69.3068 104.785 69.8227C104.779 70.5179 104.499 71.1825 104.005 71.6719C103.511 72.1614 102.844 72.436 102.149 72.4359ZM102.149 64.7581C101.148 64.7626 100.171 65.0635 99.3415 65.6228C98.5117 66.1821 97.8661 66.9747 97.4863 67.9005C97.1066 68.8263 97.0096 69.8439 97.2076 70.8248C97.4056 71.8058 97.8898 72.706 98.599 73.412C99.3082 74.118 100.211 74.5981 101.192 74.7916C102.174 74.9852 103.191 74.8835 104.115 74.4995C105.04 74.1155 105.829 73.4664 106.385 72.634C106.94 71.8016 107.237 70.8234 107.237 69.8227C107.231 68.4773 106.692 67.1892 105.738 66.24C104.785 65.2909 103.494 64.758 102.149 64.7581Z" fill="#AF1917"/>
</svg>
