<svg width="23" height="24" viewBox="0 0 23 24" fill="none" xmlns="http://www.w3.org/2000/svg">
<g clip-path="url(#clip0)">
<path d="M11.4999 0.393555C6.90686 0.393555 3.17017 4.13025 3.17017 8.72324C3.17017 14.4233 10.6245 22.7913 10.9418 23.1447C11.2399 23.4767 11.7604 23.4762 12.058 23.1447C12.3753 22.7913 19.8296 14.4233 19.8296 8.72324C19.8295 4.13025 16.0929 0.393555 11.4999 0.393555ZM11.4999 12.9141C9.18902 12.9141 7.30904 11.0341 7.30904 8.72324C7.30904 6.41237 9.18907 4.53239 11.4999 4.53239C13.8107 4.53239 15.6907 6.41241 15.6907 8.72328C15.6907 11.0342 13.8107 12.9141 11.4999 12.9141Z" fill="white"/>
</g>
<defs>
<clipPath id="clip0">
<rect width="23" height="23" fill="white" transform="translate(0 0.393555)"/>
</clipPath>
</defs>
</svg>
