<svg width="138" height="53" viewBox="0 0 138 53" fill="none" xmlns="http://www.w3.org/2000/svg">
<path d="M64.9409 13.4781H10.1551V7.34969H22.8513V10.4948C22.8574 10.7362 22.9575 10.9655 23.1303 11.1341C23.3032 11.3026 23.535 11.3968 23.7764 11.3968H64.9409V13.4781ZM66.7679 14.38V10.4486C66.771 10.3282 66.7499 10.2085 66.706 10.0963C66.662 9.98423 66.5961 9.88206 66.512 9.79584C66.428 9.70963 66.3275 9.64111 66.2165 9.59435C66.1056 9.54758 65.9864 9.52351 65.866 9.52355H24.7014V6.54028C24.7014 6.29494 24.604 6.05965 24.4305 5.88617C24.257 5.71269 24.0217 5.61523 23.7764 5.61523H9.23005C8.98874 5.62127 8.75935 5.72138 8.59084 5.89421C8.42233 6.06704 8.32805 6.2989 8.32813 6.54028V14.5419C8.32805 14.7833 8.42233 15.0152 8.59084 15.188C8.75935 15.3608 8.98874 15.4609 9.23005 15.467H65.866C65.9864 15.467 66.1056 15.4429 66.2165 15.3962C66.3275 15.3494 66.428 15.2809 66.512 15.1947C66.5961 15.1085 66.662 15.0063 66.706 14.8942C66.7499 14.7821 66.771 14.6623 66.7679 14.5419" fill="#AF1917"/>
<path d="M28.4702 2.53955H71.1148V6.14722H28.4702V2.53955ZM27.5452 7.99731H72.0398C72.1603 7.99735 72.2795 7.97328 72.3904 7.92652C72.5014 7.87975 72.6019 7.81124 72.6859 7.72502C72.77 7.63881 72.8359 7.53663 72.8799 7.42452C72.9238 7.31241 72.9449 7.19264 72.9418 7.07227V1.6145C72.9449 1.49413 72.9238 1.37435 72.8799 1.26224C72.8359 1.15013 72.77 1.04796 72.6859 0.961746C72.6019 0.87553 72.5014 0.807018 72.3904 0.760254C72.2795 0.713489 72.1603 0.689414 72.0398 0.689453H27.5452C27.2998 0.689453 27.0645 0.786917 26.8911 0.960396C26.7176 1.13388 26.6201 1.36916 26.6201 1.6145V7.07227C26.6201 7.31761 26.7176 7.55289 26.8911 7.72637C27.0645 7.89985 27.2998 7.99731 27.5452 7.99731Z" fill="#AF1917"/>
<path d="M66.9993 45.669C66.3864 45.669 65.7872 45.4872 65.2776 45.1467C64.768 44.8062 64.3708 44.3222 64.1363 43.756C63.9017 43.1897 63.8404 42.5667 63.9599 41.9655C64.0795 41.3644 64.3746 40.8122 64.808 40.3788C65.2414 39.9454 65.7936 39.6503 66.3947 39.5307C66.9959 39.4112 67.6189 39.4725 68.1852 39.7071C68.7514 39.9416 69.2354 40.3388 69.5759 40.8484C69.9164 41.358 70.0982 41.9572 70.0982 42.5701C70.0982 42.977 70.018 43.38 69.8623 43.756C69.7066 44.132 69.4783 44.4736 69.1905 44.7613C68.9028 45.0491 68.5612 45.2774 68.1852 45.4331C67.8092 45.5888 67.4062 45.669 66.9993 45.669ZM66.9993 37.6211C66.0205 37.6211 65.0636 37.9114 64.2498 38.4552C63.4359 38.999 62.8016 39.7719 62.427 40.6762C62.0524 41.5805 61.9544 42.5756 62.1454 43.5356C62.3363 44.4956 62.8077 45.3774 63.4998 46.0696C64.192 46.7617 65.0738 47.233 66.0338 47.424C66.9938 47.6149 67.9889 47.5169 68.8932 47.1424C69.7975 46.7678 70.5704 46.1335 71.1142 45.3196C71.658 44.5057 71.9483 43.5489 71.9483 42.5701C71.9483 41.2575 71.4269 39.9987 70.4988 39.0706C69.5706 38.1425 68.3118 37.6211 66.9993 37.6211Z" fill="#AF1917"/>
<path d="M81.637 25.4338L75.4624 27.5614V15.1195H81.637V25.4338ZM82.5621 13.2925H74.5604C74.4411 13.2894 74.3224 13.3105 74.2116 13.3547C74.1007 13.3989 74 13.4652 73.9156 13.5496C73.8312 13.634 73.7649 13.7347 73.7207 13.8456C73.6765 13.9565 73.6553 14.0752 73.6585 14.1945V28.8564C73.6577 29.0012 73.6917 29.144 73.7576 29.2728C73.8236 29.4017 73.9196 29.5127 74.0375 29.5966C74.1555 29.6806 74.2919 29.7349 74.4352 29.755C74.5785 29.7751 74.7246 29.7604 74.8611 29.7121L82.8858 26.9601C83.0645 26.9007 83.2194 26.7855 83.3276 26.6314C83.4359 26.4774 83.4918 26.2926 83.4871 26.1044V14.1945C83.4903 14.0752 83.4692 13.9565 83.425 13.8456C83.3808 13.7347 83.3144 13.634 83.23 13.5496C83.1457 13.4652 83.045 13.3989 82.9341 13.3547C82.8232 13.3105 82.7045 13.2894 82.5852 13.2925" fill="#AF1917"/>
<path d="M106.799 45.669C106.187 45.6645 105.59 45.4789 105.084 45.1356C104.577 44.7923 104.184 44.3067 103.953 43.7401C103.722 43.1735 103.664 42.5511 103.786 41.9515C103.908 41.3519 104.205 40.8019 104.639 40.3708C105.073 39.9398 105.626 39.6469 106.226 39.5292C106.827 39.4115 107.448 39.4742 108.013 39.7094C108.578 39.9446 109.061 40.3418 109.4 40.8509C109.74 41.36 109.921 41.9582 109.921 42.5701C109.921 42.9791 109.84 43.3839 109.683 43.7614C109.526 44.1389 109.296 44.4815 109.005 44.7696C108.715 45.0577 108.371 45.2855 107.992 45.4398C107.613 45.5942 107.208 45.6721 106.799 45.669ZM106.799 37.6211C105.82 37.6211 104.863 37.9114 104.05 38.4552C103.236 38.999 102.601 39.7719 102.227 40.6763C101.852 41.5806 101.754 42.5756 101.945 43.5356C102.136 44.4957 102.608 45.3775 103.3 46.0696C103.992 46.7617 104.874 47.2331 105.834 47.424C106.794 47.615 107.789 47.517 108.693 47.1424C109.597 46.7678 110.37 46.1335 110.914 45.3197C111.458 44.5058 111.748 43.549 111.748 42.5701C111.751 41.9194 111.625 41.2745 111.378 40.6726C111.13 40.0708 110.766 39.524 110.305 39.0639C109.845 38.6037 109.298 38.2393 108.697 37.9916C108.095 37.744 107.45 37.6181 106.799 37.6211Z" fill="#AF1917"/>
<path d="M112.303 34.5682H112.141H111.956H111.771L111.563 34.2906L111.054 34.0131L110.777 33.8744L110.291 33.6662L109.921 33.5506L109.458 33.3887L109.042 33.2731H108.926H108.603H108.094H107.932H107.701C107.078 33.2152 106.451 33.2152 105.828 33.2731H105.666L104.856 33.4118C103.327 33.7377 101.899 34.4279 100.694 35.4238H100.578C100.439 35.3133 100.269 35.2486 100.092 35.2388H95.6752V35.0076L99.9535 25.7571H135.868V25.919L136.053 34.6838L112.303 34.5682ZM127.566 40.9741H123.126C123.006 40.971 122.886 40.9921 122.774 41.036C122.662 41.0799 122.559 41.1459 122.473 41.2299C122.387 41.314 122.318 41.4145 122.272 41.5254C122.225 41.6364 122.201 41.7556 122.201 41.876V47.1488H118.94V41.9223C118.935 41.6717 118.836 41.4322 118.663 41.2516C118.576 41.1632 118.471 41.0947 118.355 41.0507C118.239 41.0068 118.115 40.9886 117.992 40.9972H116.257V40.8122C116.257 40.5809 116.257 40.3266 116.096 40.0491C116.096 39.7947 115.957 39.5634 115.864 39.309C115.864 39.0777 115.679 38.8465 115.587 38.6152L115.24 37.9446L115.356 37.8058H115.217C114.997 37.4463 114.757 37.0989 114.5 36.7651L114.292 36.4876H136.03L127.566 40.9741ZM106.753 50.2245C104.694 50.2184 102.721 49.3978 101.265 47.9419C99.809 46.486 98.9883 44.5131 98.9822 42.4542V42.2229C98.9853 41.7164 99.0474 41.2119 99.1672 40.7197C99.2823 40.2704 99.4291 39.8299 99.6066 39.4015V39.2628C99.7678 38.9066 99.9613 38.566 100.185 38.2452C100.233 38.1513 100.295 38.0655 100.37 37.9908C100.535 37.759 100.721 37.5424 100.925 37.3433L101.387 36.8808L102.012 36.3951L102.544 36.0482L103.376 35.5857L103.769 35.4469C104.148 35.2811 104.543 35.1571 104.949 35.0769H105.088C106.05 34.8921 107.039 34.8921 108.001 35.0769C108.461 35.1731 108.91 35.3125 109.343 35.4932C109.777 35.6639 110.195 35.8729 110.592 36.1176C111.002 36.3749 111.382 36.6775 111.725 37.0195C112.085 37.3395 112.41 37.696 112.696 38.0833C112.978 38.4776 113.226 38.8954 113.436 39.3321C113.875 40.2195 114.127 41.1877 114.176 42.1767C114.176 42.3154 114.176 42.431 114.176 42.5698C114.17 44.6328 113.346 46.6091 111.885 48.0657C110.424 49.5223 108.446 50.3402 106.383 50.3402L106.753 50.2245ZM97.1321 39.6559V39.9334V40.1878V40.4653C97.1211 40.6887 97.1211 40.9126 97.1321 41.136V41.3441H87.1648L87.3498 39.4015C87.3668 39.2723 87.3549 39.141 87.3149 39.017C87.2749 38.893 87.2078 38.7795 87.1185 38.6846C87.0341 38.5902 86.9308 38.5147 86.8152 38.4629C86.6997 38.4111 86.5745 38.3842 86.4479 38.384H75.9717C75.2315 36.5356 73.936 34.9624 72.2639 33.8814C70.5918 32.8003 68.6255 32.2648 66.6362 32.3485C64.6468 32.4322 62.7325 33.1312 61.1571 34.3489C59.5818 35.5666 58.4231 37.2431 57.8408 39.1471L56.777 42.616C56.7657 42.7082 56.7657 42.8014 56.777 42.8936V47.195H53.4931V30.4517H56.7077V31.978C56.703 32.16 56.7535 32.3391 56.8526 32.4918C56.9517 32.6446 57.0946 32.7637 57.2627 32.8337C57.4307 32.8998 57.6143 32.9153 57.791 32.8784C57.9677 32.8414 58.1297 32.7535 58.2571 32.6256L59.3672 31.5155H65.6343C65.8735 31.5155 66.103 31.4205 66.2721 31.2513C66.4412 31.0822 66.5363 30.8528 66.5363 30.6136V27.3528C66.5357 27.1625 66.4751 26.9773 66.3629 26.8236C66.2508 26.67 66.0929 26.5557 65.9119 26.4971L49.8392 20.8775H49.5848L40.82 20.415V18.3336H69.2883C69.5336 18.3336 69.7689 18.2361 69.9424 18.0627C70.1159 17.8892 70.2133 17.6539 70.2133 17.4086V11.1645H88.2748V18.7036C88.2748 18.949 88.3723 19.1842 88.5458 19.3577C88.7192 19.5312 88.9545 19.6287 89.1999 19.6287H93.8251C94.0704 19.6287 94.3057 19.5312 94.4792 19.3577C94.6527 19.1842 94.7501 18.949 94.7501 18.7036V17.1773H105.041V18.773C105.041 19.0183 105.139 19.2536 105.312 19.4271C105.486 19.6006 105.721 19.698 105.966 19.698H122.293L132.215 23.8145H99.491C99.3155 23.8126 99.1433 23.8618 98.9954 23.9563C98.8476 24.0508 98.7304 24.1864 98.6585 24.3464L93.3857 35.5395C93.3062 35.6722 93.2643 35.8241 93.2643 35.9788C93.2643 36.1336 93.3062 36.2854 93.3857 36.4182C93.4611 36.5538 93.572 36.6663 93.7064 36.7437C93.8409 36.8211 93.9938 36.8605 94.1489 36.8576H98.9822L98.7972 37.112C98.2742 37.8999 97.8618 38.7559 97.5715 39.6559H97.1321ZM66.9988 50.3402C65.4619 50.3402 63.9596 49.8845 62.6818 49.0306C61.404 48.1768 60.408 46.9632 59.8199 45.5434C59.2318 44.1235 59.0779 42.5612 59.3777 41.0539C59.6775 39.5466 60.4176 38.162 61.5043 37.0753C62.591 35.9886 63.9756 35.2485 65.4829 34.9487C66.9902 34.6489 68.5525 34.8028 69.9724 35.3909C71.3922 35.979 72.6058 36.975 73.4596 38.2528C74.3134 39.5306 74.7692 41.033 74.7692 42.5698C74.7631 44.6288 73.9424 46.6016 72.4865 48.0575C71.0306 49.5135 69.0577 50.3341 66.9988 50.3402ZM137.927 35.4932L137.719 24.8552C137.74 24.7484 137.74 24.6382 137.719 24.5314L137.58 24.3001C137.515 24.2248 137.436 24.1621 137.349 24.1151L122.941 18.1717C122.826 18.1498 122.709 18.1498 122.594 18.1717H106.799V16.2523C106.802 16.1329 106.781 16.0142 106.737 15.9034C106.692 15.7925 106.626 15.6918 106.542 15.6074C106.457 15.523 106.357 15.4567 106.246 15.4125C106.135 15.3683 106.016 15.3471 105.897 15.3503H93.7557C93.6364 15.3471 93.5177 15.3683 93.4068 15.4125C93.296 15.4567 93.1953 15.523 93.1109 15.6074C93.0265 15.6918 92.9602 15.7925 92.916 15.9034C92.8718 16.0142 92.8506 16.1329 92.8538 16.2523V17.848H90.1018V10.3088C90.1019 10.0675 90.0076 9.8356 89.8391 9.66277C89.6706 9.48994 89.4412 9.38982 89.1999 9.38379H69.2883C69.0429 9.38379 68.8076 9.48125 68.6342 9.65473C68.4607 9.82821 68.3632 10.0635 68.3632 10.3088V16.4835H39.8718C39.6265 16.4835 39.3912 16.581 39.2177 16.7545C39.0442 16.9279 38.9468 17.1632 38.9468 17.4086V21.2938C38.9465 21.5313 39.0376 21.7598 39.2012 21.932C39.3648 22.1042 39.5883 22.2069 39.8256 22.2188L49.3535 22.6582L64.6862 27.9078V29.6654H58.7428H58.5346V29.3416C58.5346 29.0963 58.4372 28.861 58.2637 28.6875C58.0902 28.5141 57.8549 28.4166 57.6096 28.4166H52.5912C52.3459 28.4166 52.1106 28.5141 51.9371 28.6875C51.7636 28.861 51.6662 29.0963 51.6662 29.3416V47.8426C51.6722 48.0839 51.7723 48.3133 51.9451 48.4818C52.118 48.6503 52.3498 48.7446 52.5912 48.7445H57.6096C57.851 48.7446 58.0828 48.6503 58.2556 48.4818C58.4285 48.3133 58.5286 48.0839 58.5346 47.8426V46.9175L58.8584 47.4263C59.9581 49.2054 61.609 50.5766 63.5597 51.3311C65.5104 52.0857 67.6542 52.1823 69.6649 51.6063C71.6756 51.0303 73.4431 49.8133 74.6985 48.1403C75.9538 46.4673 76.6283 44.4301 76.6193 42.3385C76.6096 41.6389 76.5322 40.9419 76.388 40.2572V40.0491H85.4303L85.3147 41.2054L85.1066 41.8298C85.06 41.9655 85.0482 42.1108 85.0725 42.2522C85.0967 42.3936 85.1562 42.5267 85.2453 42.6392C85.3246 42.7627 85.4343 42.8637 85.5639 42.9325C85.6935 43.0014 85.8386 43.0357 85.9853 43.0323H97.2246V43.5411C97.4705 45.9424 98.6101 48.1636 100.417 49.7638C102.225 51.3641 104.567 52.2265 106.981 52.1799C109.394 52.1333 111.702 51.1812 113.446 49.5124C115.19 47.8436 116.243 45.5801 116.396 43.1711V43.0092H117.09V48.1663C117.096 48.4076 117.196 48.637 117.369 48.8055C117.542 48.974 117.774 49.0683 118.015 49.0682H123.126C123.365 49.0682 123.595 48.9732 123.764 48.8041C123.933 48.6349 124.028 48.4055 124.028 48.1663V42.8011H127.936C128.081 42.8323 128.231 42.8323 128.376 42.8011L137.51 37.7827C137.657 37.6982 137.779 37.5769 137.864 37.4309C137.949 37.2849 137.995 37.1192 137.996 36.9501V35.7245" fill="#AF1917"/>
<path d="M65.8653 19.2595C65.62 19.2595 65.3847 19.357 65.2112 19.5305C65.0377 19.7039 64.9403 19.9392 64.9403 20.1846V23.6072C64.9192 23.7394 64.927 23.8745 64.9632 24.0033C64.9994 24.1322 65.0631 24.2516 65.15 24.3534C65.2368 24.4552 65.3447 24.5369 65.4662 24.593C65.5877 24.6491 65.7199 24.6781 65.8538 24.6781C65.9876 24.6781 66.1198 24.6491 66.2413 24.593C66.3628 24.5369 66.4707 24.4552 66.5575 24.3534C66.6444 24.2516 66.7081 24.1322 66.7443 24.0033C66.7805 23.8745 66.7883 23.7394 66.7672 23.6072V20.1846C66.7673 19.9432 66.673 19.7113 66.5045 19.5385C66.336 19.3657 66.1066 19.2656 65.8653 19.2595Z" fill="#AF1917"/>
<path d="M59.6676 19.491C59.4262 19.497 59.1969 19.5971 59.0283 19.77C58.8598 19.9428 58.7655 20.1746 58.7656 20.416V22.4742C58.8003 22.6916 58.9113 22.8894 59.0788 23.0322C59.2462 23.175 59.459 23.2535 59.6791 23.2535C59.8992 23.2535 60.112 23.175 60.2795 23.0322C60.4469 22.8894 60.5579 22.6916 60.5926 22.4742V20.416C60.5926 20.1707 60.4951 19.9354 60.3217 19.7619C60.1482 19.5884 59.9129 19.491 59.6676 19.491Z" fill="#AF1917"/>
<path d="M6.87068 8.50581C6.92498 8.26834 6.88344 8.01904 6.75505 7.81202C6.69791 7.70681 6.61874 7.61516 6.52296 7.54332C6.42718 7.47148 6.31702 7.42115 6.20002 7.39576H5.96876C5.80426 7.3953 5.64332 7.44358 5.50624 7.53451L1.38978 9.84712C1.25157 9.92145 1.13578 10.0314 1.05444 10.1656C0.973107 10.2998 0.929192 10.4534 0.927259 10.6103C0.915177 10.7673 0.947875 10.9245 1.02156 11.0637C1.09524 11.2029 1.20688 11.3183 1.34353 11.3966L5.45998 14.1486C5.66299 14.2815 5.91009 14.3293 6.14801 14.2817C6.38593 14.2341 6.59563 14.0949 6.73192 13.8942C6.80077 13.7947 6.84888 13.6823 6.87338 13.5637C6.89789 13.4452 6.89828 13.323 6.87455 13.2043C6.85081 13.0856 6.80342 12.9729 6.73522 12.8729C6.66701 12.7729 6.57938 12.6877 6.47753 12.6223L3.58677 10.7028L6.43128 9.01458C6.53817 8.95648 6.6322 8.87736 6.70771 8.78198C6.78322 8.6866 6.83865 8.57692 6.87068 8.45956" fill="#AF1917"/>
</svg>
