<svg width="19" height="19" viewBox="0 0 19 19" fill="none" xmlns="http://www.w3.org/2000/svg">
<path d="M9.4985 2.14346C11.8958 2.14346 12.1786 2.15173 13.1262 2.19587C13.6952 2.2029 14.2588 2.3074 14.7925 2.50484C15.1796 2.65357 15.5311 2.88193 15.8243 3.17514C16.1175 3.46834 16.3459 3.81985 16.4946 4.20691C16.6921 4.74058 16.7966 5.30414 16.8036 5.87311C16.8477 6.8207 16.856 7.10346 16.856 9.49932C16.856 11.8952 16.8477 12.1793 16.8036 13.1269C16.7966 13.6959 16.6921 14.2594 16.4946 14.7931C16.3459 15.1802 16.1175 15.5317 15.8243 15.8249C15.5311 16.1181 15.1796 16.3464 14.7925 16.4952C14.2588 16.6926 13.6952 16.7971 13.1262 16.8041C12.18 16.8483 11.8958 16.8566 9.4985 16.8566C7.10116 16.8566 6.81839 16.8483 5.87215 16.8041C5.30315 16.7971 4.73957 16.6926 4.20588 16.4952C3.81881 16.3464 3.46728 16.1181 3.17407 15.8249C2.88085 15.5317 2.65249 15.1802 2.50375 14.7931C2.3063 14.2594 2.2018 13.6959 2.19477 13.1269C2.15063 12.1793 2.14236 11.8966 2.14236 9.49932C2.14236 7.10208 2.15063 6.8207 2.19477 5.87311C2.2018 5.30414 2.3063 4.74058 2.50375 4.20691C2.65249 3.81985 2.88085 3.46834 3.17407 3.17514C3.46728 2.88193 3.81881 2.65357 4.20588 2.50484C4.73957 2.3074 5.30315 2.2029 5.87215 2.19587C6.81977 2.15173 7.10254 2.14346 9.4985 2.14346ZM9.4985 0.525528C7.06254 0.525528 6.75633 0.536562 5.79905 0.5807C5.05484 0.594156 4.31832 0.734082 3.62103 0.994493C3.02567 1.22457 2.48498 1.57655 2.03365 2.02786C1.58232 2.47917 1.23032 3.01984 1.00024 3.61518C0.739816 4.31245 0.599884 5.04893 0.586428 5.79311C0.542288 6.75035 0.53125 7.05656 0.53125 9.49242C0.53125 11.9283 0.542288 12.2359 0.586428 13.1931C0.599884 13.9373 0.739816 14.6738 1.00024 15.371C1.23032 15.9664 1.58232 16.5071 2.03365 16.9584C2.48498 17.4097 3.02567 17.7617 3.62103 17.9917C4.31832 18.2521 5.05484 18.3921 5.79905 18.4055C6.75633 18.4497 7.06254 18.4607 9.4985 18.4607C11.9345 18.4607 12.2421 18.4497 13.1993 18.4055C13.9435 18.3921 14.6801 18.2521 15.3774 17.9917C15.9727 17.7617 16.5134 17.4097 16.9647 16.9584C17.4161 16.5071 17.7681 15.9664 17.9981 15.371C18.2586 14.6738 18.3985 13.9373 18.412 13.1931C18.4561 12.2359 18.4671 11.9297 18.4671 9.49242C18.4671 7.05518 18.4561 6.75035 18.412 5.79311C18.3985 5.04893 18.2586 4.31245 17.9981 3.61518C17.7681 3.01984 17.4161 2.47917 16.9647 2.02786C16.5134 1.57655 15.9727 1.22457 15.3774 0.994493C14.6801 0.734082 13.9435 0.594156 13.1993 0.5807C12.2421 0.536562 11.9358 0.525528 9.4985 0.525528Z" fill="white"/>
<path d="M9.4986 4.89243C8.58707 4.89243 7.69602 5.16273 6.93814 5.66916C6.18025 6.17558 5.58957 6.89538 5.24081 7.73751C4.89204 8.57964 4.80086 9.50628 4.97879 10.4002C5.15672 11.2942 5.59578 12.1153 6.24042 12.7597C6.88507 13.4042 7.70634 13.8429 8.60038 14.0206C9.49442 14.1983 10.4211 14.1068 11.2631 13.7578C12.1052 13.4088 12.8249 12.8179 13.3311 12.0599C13.8373 11.3019 14.1073 10.4108 14.1071 9.49932C14.1071 8.89422 13.9878 8.29504 13.7562 7.73602C13.5246 7.177 13.1851 6.66908 12.7572 6.24127C12.3292 5.81346 11.8212 5.47415 11.2621 5.24271C10.703 5.01127 10.1037 4.89224 9.4986 4.89243ZM9.4986 12.491C8.90687 12.491 8.32843 12.3156 7.83643 11.9868C7.34442 11.6581 6.96094 11.1909 6.7345 10.6442C6.50805 10.0975 6.44881 9.496 6.56425 8.91567C6.67969 8.33533 6.96463 7.80225 7.38305 7.38385C7.80146 6.96545 8.33457 6.68052 8.91493 6.56508C9.49529 6.44965 10.0968 6.50889 10.6435 6.73533C11.1902 6.96177 11.6575 7.34522 11.9862 7.83721C12.315 8.3292 12.4905 8.90762 12.4905 9.49932C12.4905 10.2928 12.1752 11.0537 11.6142 11.6148C11.0531 12.1758 10.2921 12.491 9.4986 12.491Z" fill="white"/>
<path d="M14.2892 5.7876C14.8842 5.7876 15.3665 5.3053 15.3665 4.71036C15.3665 4.11542 14.8842 3.63312 14.2892 3.63312C13.6942 3.63312 13.2119 4.11542 13.2119 4.71036C13.2119 5.3053 13.6942 5.7876 14.2892 5.7876Z" fill="white"/>
</svg>
