<svg width="20" height="16" viewBox="0 0 20 16" fill="none" xmlns="http://www.w3.org/2000/svg">
<path d="M17.8178 0.332825L1.20125 6.62687C0.292287 6.88895 0.321251 7.78691 0.992975 8.00623L5.15849 9.30558L6.7516 14.1927C6.94608 14.7265 7.10332 14.9279 7.43436 14.9334C7.76539 14.9389 7.91573 14.8106 8.27711 14.4906C8.69918 14.0947 9.34332 13.4699 10.3612 12.4795L14.6923 15.681C15.4895 16.121 16.0716 15.8934 16.2647 14.9403L18.9806 1.50529C19.2702 0.335584 18.5806 -0.0133952 17.8178 0.332825ZM5.80677 8.99937L15.2702 3.0681C15.7378 2.75498 15.884 3.10396 15.673 3.34397L7.8109 10.4132L7.40677 13.9416L5.80677 8.99937Z" fill="white"/>
</svg>
