<svg width="141" height="80" viewBox="0 0 141 80" fill="none" xmlns="http://www.w3.org/2000/svg">
<path d="M4.24038 70.8606L8.0188 65.8149L9.89627 66.8945C10.2072 67.0732 10.5745 67.1266 10.9234 67.0437C11.2723 66.9608 11.5764 66.748 11.7737 66.4486L12.9472 64.5711L16.9837 59.8774C21.6774 65.2986 22.2876 65.2986 22.8978 65.2986C23.7448 65.2388 24.585 65.1053 25.4089 64.8997L30.2668 67.5281L30.9943 70.8841L4.24038 70.8606ZM32.1443 65.369L26.2537 62.1773C25.9451 62.0095 25.5835 61.9674 25.2446 62.06C24.564 62.2243 23.6957 62.412 23.2028 62.4824C21.3809 60.7001 19.6573 58.8198 18.0398 56.85C17.9099 56.7023 17.7514 56.5825 17.574 56.4978C17.3965 56.4131 17.2037 56.3653 17.0072 56.3572C16.6072 56.3691 16.228 56.5376 15.9511 56.8265L10.835 62.7406L10.6942 62.9049L10.1779 63.7497L8.39429 62.6936C8.0996 62.5231 7.75242 62.4671 7.41907 62.5364C7.08572 62.6057 6.78958 62.7953 6.58722 63.0691L0.391569 71.4239C0.239007 71.6309 0.14711 71.8763 0.126177 72.1326C0.105245 72.3889 0.156103 72.646 0.273054 72.875C0.390005 73.104 0.568427 73.296 0.788323 73.4293C1.00822 73.5626 1.2609 73.6321 1.51805 73.6299H32.7075C32.9149 73.6318 33.12 73.5862 33.3071 73.4968C33.4942 73.4073 33.6584 73.2762 33.7871 73.1136C33.9181 72.9511 34.0113 72.7615 34.06 72.5586C34.1087 72.3556 34.1117 72.1444 34.0687 71.9402L32.8483 66.3078C32.8 66.1121 32.7127 65.9281 32.5918 65.7668C32.4708 65.6055 32.3186 65.4703 32.1443 65.369Z" fill="#AF1917"/>
<path d="M17.8759 64.6875C17.7727 64.5334 17.6401 64.4012 17.4857 64.2983C17.3314 64.1955 17.1583 64.124 16.9763 64.0881C16.7943 64.0521 16.6071 64.0524 16.4252 64.0888C16.2433 64.1252 16.0704 64.1971 15.9163 64.3003C15.7622 64.4036 15.6299 64.5361 15.5271 64.6905C15.4242 64.8448 15.3528 65.0179 15.3168 65.1999C15.2809 65.3819 15.2811 65.5692 15.3175 65.751C15.3539 65.9329 15.4258 66.1058 15.5291 66.2599L17.2423 68.7241C17.3722 68.902 17.5415 69.0475 17.7369 69.1492C17.9323 69.251 18.1485 69.3063 18.3687 69.3108C18.6566 69.3197 18.9386 69.2285 19.1667 69.0527C19.4683 68.8439 19.6747 68.5241 19.7407 68.1633C19.8067 67.8025 19.7269 67.4302 19.5187 67.1283L17.8759 64.6875Z" fill="#AF1917"/>
<path d="M83.5866 48.8701H77.2502C76.9169 48.9138 76.611 49.0771 76.3893 49.3297C76.1676 49.5823 76.0454 49.9069 76.0454 50.243C76.0454 50.5791 76.1676 50.9037 76.3893 51.1563C76.611 51.4089 76.9169 51.5723 77.2502 51.6159H83.5866C83.9199 51.5723 84.2258 51.4089 84.4475 51.1563C84.6692 50.9037 84.7914 50.5791 84.7914 50.243C84.7914 49.9069 84.6692 49.5823 84.4475 49.3297C84.2258 49.0771 83.9199 48.9138 83.5866 48.8701Z" fill="#AF1917"/>
<path d="M49.9327 44.4346C49.6735 44.1781 49.3235 44.0342 48.9588 44.0342C48.594 44.0342 48.2441 44.1781 47.9848 44.4346C47.7297 44.6899 47.5864 45.036 47.5864 45.3968C47.5864 45.7577 47.7297 46.1038 47.9848 46.359L56.1049 54.925C56.232 55.0585 56.3849 55.1647 56.5544 55.2374C56.7238 55.31 56.9062 55.3474 57.0905 55.3474C57.2642 55.3512 57.4369 55.3199 57.5982 55.2554C57.7595 55.1909 57.9061 55.0945 58.0293 54.9719C58.1585 54.8472 58.2612 54.6977 58.3314 54.5324C58.4015 54.367 58.4377 54.1893 58.4377 54.0097C58.4377 53.8301 58.4015 53.6524 58.3314 53.4871C58.2612 53.3218 58.1585 53.1723 58.0293 53.0475L49.9327 44.4346Z" fill="#AF1917"/>
<path d="M113.58 71.2363C113.155 71.241 112.739 71.1191 112.384 70.8862C112.03 70.6533 111.752 70.32 111.588 69.9289C111.423 69.5377 111.379 69.1063 111.461 68.6899C111.542 68.2735 111.746 67.8908 112.046 67.5907C112.346 67.2906 112.729 67.0868 113.145 67.0051C113.562 66.9234 113.993 66.9677 114.384 67.1323C114.776 67.2968 115.109 67.5741 115.342 67.9289C115.575 68.2837 115.696 68.6998 115.692 69.1242C115.692 69.6843 115.469 70.2216 115.073 70.6177C114.677 71.0138 114.14 71.2363 113.58 71.2363ZM113.58 64.1958C112.619 64.1958 111.68 64.4807 110.881 65.0145C110.082 65.5483 109.459 66.307 109.091 67.1947C108.724 68.0824 108.628 69.0591 108.815 70.0015C109.002 70.9438 109.465 71.8095 110.145 72.4888C110.824 73.1682 111.69 73.6309 112.632 73.8184C113.574 74.0058 114.551 73.9096 115.439 73.5419C116.326 73.1742 117.085 72.5516 117.619 71.7527C118.153 70.9538 118.438 70.0146 118.438 69.0538C118.438 67.7653 117.926 66.5297 117.015 65.6187C116.104 64.7076 114.868 64.1958 113.58 64.1958Z" fill="#AF1917"/>
<path d="M66.5254 71.2363C66.0006 71.1811 65.5149 70.9335 65.1618 70.5413C64.8087 70.1491 64.6134 69.6401 64.6134 69.1124C64.6134 68.5847 64.8087 68.0757 65.1618 67.6835C65.5149 67.2914 66.0006 67.0438 66.5254 66.9885C66.8231 66.9572 67.124 66.9888 67.4087 67.0812C67.6934 67.1737 67.9554 67.325 68.1779 67.5252C68.4003 67.7255 68.5782 67.9703 68.7 68.2437C68.8217 68.5171 68.8846 68.8131 68.8846 69.1124C68.8846 69.4117 68.8217 69.7077 68.7 69.9811C68.5782 70.2546 68.4003 70.4994 68.1779 70.6996C67.9554 70.8999 67.6934 71.0511 67.4087 71.1436C67.124 71.2361 66.8231 71.2676 66.5254 71.2363ZM66.5254 64.1958C65.5646 64.1958 64.6254 64.4807 63.8265 65.0145C63.0276 65.5483 62.405 66.307 62.0373 67.1947C61.6696 68.0824 61.5734 69.0591 61.7608 70.0015C61.9483 70.9438 62.4109 71.8095 63.0903 72.4888C63.7697 73.1682 64.6353 73.6309 65.5777 73.8184C66.52 74.0058 67.4968 73.9096 68.3845 73.5419C69.2722 73.1742 70.0309 72.5516 70.5647 71.7527C71.0985 70.9538 71.3834 70.0146 71.3834 69.0538C71.3834 67.7653 70.8716 66.5297 69.9605 65.6187C69.0495 64.7076 67.8138 64.1958 66.5254 64.1958Z" fill="#AF1917"/>
<path d="M137.235 64.3365L131.157 67.6221C130.941 67.738 130.762 67.9109 130.638 68.122C130.513 68.333 130.45 68.5741 130.453 68.8189V75.8595H126.698V69.7107C126.698 69.3497 126.555 69.0035 126.299 68.7483C126.044 68.493 125.698 68.3496 125.337 68.3496H124.116C124.116 65.5487 123.004 62.8625 121.023 60.882C119.043 58.9014 116.357 57.7888 113.556 57.7888C110.755 57.7888 108.069 58.9014 106.088 60.882C104.108 62.8625 102.995 65.5487 102.995 68.3496L77.0624 68.1618C76.9555 66.9833 76.6458 65.8321 76.1471 64.7589H82.2724C82.6133 64.7476 82.9376 64.6087 83.181 64.3696C83.4244 64.1306 83.5691 63.8088 83.5866 63.4682V56.146C83.5894 55.9613 83.5533 55.778 83.4805 55.6081C83.4077 55.4383 83.2999 55.2857 83.1642 55.1603C83.0365 55.0306 82.8823 54.93 82.7123 54.8652C82.5422 54.8004 82.3601 54.773 82.1785 54.7848L76.0767 54.9022L73.0493 52.3441L72.3452 46.5944H79.3858C79.6515 46.6002 79.913 46.5266 80.1367 46.3832C80.3771 46.2217 80.5648 45.9932 80.6765 45.7261L81.3571 43.9425L84.2437 36.5734C84.2437 36.5734 84.2437 36.456 84.2437 36.3856H90.6271L86.661 58.7745C86.6267 58.9731 86.6363 59.1769 86.689 59.3714C86.7417 59.566 86.8363 59.7467 86.966 59.901C87.0967 60.0537 87.2585 60.1768 87.4407 60.2618C87.6229 60.3468 87.8211 60.3918 88.0221 60.3938H93.9127C94.1512 60.3953 94.3857 60.3329 94.5921 60.2133C94.7984 60.0936 94.9689 59.921 95.0861 59.7132L101.329 49.1759H109.144V51.1942C109.141 51.3749 109.173 51.5544 109.24 51.7223C109.307 51.8902 109.407 52.043 109.534 52.1719C109.661 52.3008 109.812 52.4031 109.978 52.473C110.145 52.5429 110.324 52.5788 110.505 52.5788H127.824C128.031 52.5742 128.234 52.5258 128.42 52.4368C128.606 52.3478 128.771 52.2202 128.904 52.0625C129.031 51.8981 129.12 51.7076 129.165 51.5047C129.209 51.3019 129.208 51.0916 129.162 50.8891C128.78 49.3952 128.999 47.8112 129.772 46.477C130.185 46.1205 130.679 45.8701 131.211 45.7474C131.742 45.6247 132.296 45.6335 132.823 45.773C133.564 45.7891 134.29 45.9805 134.943 46.3312C135.596 46.682 136.156 47.1824 136.578 47.7913C136.893 48.7969 137.001 49.8559 136.897 50.9045C136.792 51.9531 136.476 52.9697 135.968 53.893C135.838 54.1526 135.794 54.4462 135.84 54.7326C135.886 55.0189 136.021 55.2835 136.226 55.4889L137.235 56.498V64.3365ZM113.579 76.9625C112.022 76.9671 110.499 76.5094 109.203 75.6473C107.906 74.7852 106.895 73.5576 106.297 72.12C105.699 70.6825 105.541 69.0998 105.844 67.5726C106.146 66.0453 106.896 64.6423 107.997 63.5414C109.097 62.4405 110.5 61.6912 112.028 61.3886C113.555 61.086 115.138 61.2437 116.575 61.8416C118.013 62.4396 119.24 63.4509 120.102 64.7474C120.965 66.0439 121.422 67.5671 121.418 69.124C121.411 71.201 120.584 73.1912 119.115 74.6598C117.646 76.1285 115.656 76.9563 113.579 76.9625ZM66.5251 76.9625C64.9691 76.9625 63.4482 76.5008 62.1548 75.6359C60.8614 74.7709 59.8538 73.5417 59.2594 72.1037C58.6651 70.6658 58.5107 69.0838 58.816 67.5581C59.1213 66.0324 59.8724 64.6316 60.9742 63.533C62.0761 62.4345 63.4791 61.6876 65.0057 61.3869C66.5323 61.0862 68.1138 61.2452 69.55 61.8439C70.9862 62.4425 72.2124 63.4538 73.0734 64.7498C73.9345 66.0458 74.3916 67.5681 74.387 69.124C74.3808 71.2051 73.5497 73.1988 72.076 74.6681C70.6023 76.1374 68.6061 76.9625 66.5251 76.9625ZM57.1377 73.7942H52.444V68.6781C52.444 68.4486 52.3858 68.2228 52.275 68.0217C52.1643 67.8206 52.0044 67.6509 51.8104 67.5282C51.6085 67.4193 51.3827 67.3623 51.1533 67.3623C50.9239 67.3623 50.6981 67.4193 50.4962 67.5282L46.3892 69.4056V65.2987L50.0737 66.3078C50.2778 66.3645 50.4922 66.3728 50.6999 66.332C50.9077 66.2913 51.1031 66.2027 51.2706 66.0731C51.4363 65.9456 51.5709 65.7822 51.6643 65.5953C51.7578 65.4083 51.8078 65.2026 51.8104 64.9936V55.6062C51.8074 55.3202 51.7174 55.0419 51.5523 54.8083L42.5169 41.9711L27.8022 23.8301L28.9522 22.3281C29.1123 22.129 29.2108 21.8875 29.2359 21.6333C29.2609 21.379 29.2112 21.123 29.093 20.8965L28.0604 18.8782C27.9682 18.6901 27.8331 18.5262 27.666 18.3998C27.4988 18.2735 27.3044 18.1881 27.0982 18.1507L25.2442 17.7752L23.2728 12.3305L24.0708 8.22357L26.7931 5.26656L30.0317 8.85722L28.6236 16.0151C28.5765 16.2208 28.5797 16.4348 28.6328 16.6391C28.6859 16.8433 28.7874 17.0318 28.9287 17.1885L31.9562 20.5679L30.6185 20.9669C30.3886 21.0406 30.1816 21.1721 30.0172 21.3488C29.8528 21.5255 29.7366 21.7415 29.6797 21.976C29.6336 22.213 29.6482 22.4577 29.7221 22.6874C29.7959 22.9172 29.9267 23.1246 30.1021 23.2903L60.611 51.0534L69.2474 58.9153C68.3445 58.6707 67.4136 58.5444 66.4781 58.5398C63.6729 58.546 60.9844 59.6631 59.0008 61.6467C57.0172 63.6303 55.9001 66.3188 55.8939 69.124C55.8878 70.7535 56.2657 72.3615 56.9969 73.8177L57.1377 73.7942ZM76.992 36.4091H81.404L80.301 39.2018L78.4705 43.8955H73.0024L76.992 36.4091ZM139.512 54.9022L138.831 54.0808C139.372 52.874 139.666 51.5709 139.694 50.2486C139.722 48.9264 139.485 47.6119 138.995 46.3832C138.396 45.3613 137.548 44.5072 136.531 43.9001C135.513 43.2929 134.359 42.9523 133.175 42.9098C132.21 42.7001 131.208 42.7364 130.261 43.0152C129.314 43.2941 128.452 43.8066 127.754 44.5057C127.179 45.2306 126.752 46.0618 126.499 46.9518C126.245 47.8417 126.169 48.773 126.276 49.6922H111.866V47.7443C111.866 47.3833 111.723 47.0371 111.467 46.7818C111.212 46.5266 110.866 46.3832 110.505 46.3832H100.554C100.318 46.3769 100.084 46.4346 99.8771 46.5503C99.6706 46.6659 99.4991 46.8352 99.3808 47.0403L93.1382 57.5776H89.6414L93.5841 35.3061C93.6183 35.1074 93.6088 34.9037 93.5561 34.7091C93.5034 34.5146 93.4088 34.3338 93.279 34.1796C93.1484 34.0268 92.9865 33.9038 92.8044 33.8188C92.6222 33.7338 92.424 33.6888 92.223 33.6868H76.2175C75.9708 33.6882 75.7291 33.7566 75.5183 33.8848C75.3075 34.0129 75.1355 34.1959 75.0206 34.4143L69.6229 44.4353C69.4861 44.6861 69.4288 44.9726 69.4586 45.2567L70.4443 53.2594C70.4785 53.6065 70.6469 53.9265 70.9137 54.1512L74.739 57.3898C75.0032 57.5905 75.3227 57.7052 75.6543 57.7184L80.8877 57.6011V62.0601H76.7573L33.6928 22.8913L34.7958 22.5393C35.0133 22.4715 35.2102 22.3502 35.3686 22.1866C35.527 22.023 35.6419 21.8222 35.7026 21.6027C35.7633 21.3832 35.768 21.1519 35.7161 20.9302C35.6643 20.7084 35.5577 20.5032 35.406 20.3333L31.4398 15.8743L32.8714 8.83375C32.9083 8.62237 32.898 8.40544 32.8412 8.19852C32.7844 7.9916 32.6825 7.7998 32.5429 7.63687L27.8492 2.42688C27.7205 2.28737 27.5645 2.17579 27.3909 2.09909C27.2173 2.02238 27.0298 1.98218 26.84 1.98098C26.6512 1.9732 26.4629 2.00701 26.2885 2.08C26.1141 2.153 25.9579 2.2634 25.8309 2.40341L24.7748 3.50643L21.9821 0.713692C21.8569 0.582229 21.7066 0.47714 21.5402 0.40461C21.3738 0.33208 21.1945 0.293574 21.013 0.291361C20.8315 0.289147 20.6513 0.32327 20.4832 0.39172C20.3151 0.460171 20.1623 0.561565 20.0339 0.689936C19.9056 0.818308 19.8042 0.971062 19.7357 1.13921C19.6673 1.30735 19.6331 1.48749 19.6354 1.66902C19.6376 1.85055 19.6761 2.02981 19.7486 2.19623C19.8211 2.36266 19.9262 2.5129 20.0577 2.6381L22.8974 5.50124L21.8178 6.65119C21.6331 6.8363 21.5101 7.07403 21.4658 7.33178L20.527 12.2132C20.4684 12.4522 20.4684 12.7018 20.527 12.9407L22.8739 19.4415C22.9563 19.6654 23.0943 19.8648 23.275 20.0208C23.4556 20.1768 23.6729 20.2843 23.9065 20.3333L25.8544 20.7088L26.2064 21.4363L24.9156 23.1025C24.7212 23.3412 24.6151 23.6396 24.6151 23.9474C24.6151 24.2552 24.7212 24.5536 24.9156 24.7923L40.264 43.7078L48.9238 56.0756V63.3039L45.2393 62.2947C45.0351 62.2399 44.821 62.2325 44.6136 62.2732C44.4061 62.3139 44.2107 62.4015 44.0424 62.5294C43.8099 62.7861 43.684 63.1218 43.6903 63.4682V71.4474C43.6939 71.6737 43.7511 71.8959 43.8572 72.0957C43.9632 72.2956 44.1152 72.4675 44.3005 72.5974C44.5042 72.7005 44.7293 72.7542 44.9576 72.7542C45.1859 72.7542 45.411 72.7005 45.6147 72.5974L49.7217 70.7199V75.2023C49.7217 75.3831 49.7577 75.562 49.8275 75.7287C49.8974 75.8954 49.9998 76.0465 50.1287 76.1732C50.2575 76.2999 50.4104 76.3997 50.5782 76.4667C50.7461 76.5337 50.9256 76.5666 51.1064 76.5635H58.6162C58.7484 76.585 58.8831 76.585 59.0152 76.5635C59.9944 77.5954 61.1737 78.4169 62.4811 78.9778C63.7884 79.5387 65.1964 79.8271 66.619 79.8256C69.1242 79.8216 71.5471 78.9309 73.4586 77.3116C75.3701 75.6922 76.6467 73.4485 77.0624 70.978L103.253 71.0954C103.693 73.519 104.964 75.7134 106.847 77.3006C108.731 78.8878 111.109 79.7684 113.572 79.7907C116.035 79.8129 118.429 78.9754 120.341 77.4225C122.252 75.8695 123.563 73.6984 124.046 71.2831V77.4553C124.046 77.8185 124.189 78.1672 124.443 78.4262C124.698 78.6852 125.044 78.8338 125.407 78.8399H131.908C132.271 78.8338 132.617 78.6852 132.872 78.4262C133.127 78.1672 133.269 77.8185 133.269 77.4553V69.6403L139.347 66.3313C139.565 66.2174 139.746 66.045 139.87 65.8334C139.995 65.6219 140.058 65.3797 140.052 65.1344V55.7471C140.051 55.3861 139.908 55.04 139.653 54.7848" fill="#AF1917"/>
</svg>
