<svg width="9" height="9" viewBox="0 0 9 9" fill="none" xmlns="http://www.w3.org/2000/svg">
<g clip-path="url(#clip0)">
<path d="M8.82547 7.15643L7.82773 6.49121L6.94077 5.90001C6.7696 5.78613 6.53955 5.82346 6.41319 5.98567L5.86435 6.69123C5.74646 6.84434 5.53438 6.88833 5.36531 6.79473C4.99291 6.58757 4.55253 6.39253 3.58086 5.41961C2.60918 4.44669 2.41289 4.00756 2.20574 3.63515C2.11213 3.46609 2.15613 3.25401 2.30923 3.13613L3.01479 2.5873C3.17699 2.46095 3.21434 2.2309 3.10045 2.05971L2.52741 1.20007L1.84403 0.174991C1.72772 0.000512443 1.49488 -0.0518698 1.31506 0.0559708L0.526938 0.528782C0.313947 0.65427 0.15738 0.856909 0.0896701 1.09469C-0.125853 1.88047 -0.169305 3.61388 2.60871 6.3919C5.38672 9.16991 7.11998 9.12632 7.90576 8.91078C8.14354 8.84309 8.34618 8.68652 8.47167 8.47351L8.94448 7.6854C9.05233 7.50556 8.99995 7.27274 8.82547 7.15643Z" fill="#AA1D26"/>
<path d="M5.12074 1.3965C6.57693 1.39812 7.75702 2.5782 7.75864 4.03441C7.75864 4.1201 7.82811 4.18958 7.91382 4.18958C7.99951 4.18958 8.06899 4.12012 8.06899 4.03441C8.0672 2.40688 6.74828 1.08796 5.12075 1.08617C5.03506 1.08617 4.96558 1.15563 4.96558 1.24134C4.96556 1.32702 5.03503 1.3965 5.12074 1.3965Z" fill="#AA1D26"/>
<path d="M5.12051 2.32757C6.06274 2.32868 6.82627 3.09222 6.82738 4.03444C6.82738 4.12013 6.89685 4.18961 6.98256 4.18961C7.06825 4.18961 7.13773 4.12015 7.13773 4.03444C7.13645 2.92089 6.23407 2.0185 5.12051 2.01721C5.03482 2.01721 4.96533 2.08668 4.96533 2.17239C4.96533 2.2581 5.0348 2.32757 5.12051 2.32757Z" fill="#AA1D26"/>
<path d="M5.12074 3.2585C5.54902 3.25901 5.89608 3.60607 5.89659 4.03436C5.89659 4.12005 5.96606 4.18954 6.05177 4.18954C6.13746 4.18954 6.20695 4.12007 6.20695 4.03436C6.20626 3.43476 5.72036 2.94885 5.12075 2.94817C5.03506 2.94817 4.96558 3.01763 4.96558 3.10334C4.96556 3.18904 5.03503 3.2585 5.12074 3.2585Z" fill="#AA1D26"/>
</g>
<defs>
<clipPath id="clip0">
<rect width="9" height="9" fill="white"/>
</clipPath>
</defs>
</svg>
