<svg width="17" height="20" viewBox="0 0 17 20" fill="none" xmlns="http://www.w3.org/2000/svg">
<path d="M13.4781 12.5876C13.16 12.5876 13.0004 12.8308 12.9995 13.3172V13.8055H13.954V13.3228C13.954 12.8303 13.794 12.5876 13.4781 12.5876Z" fill="white"/>
<path d="M15.8105 9.91034C15.7221 9.50658 15.5104 9.14026 15.2047 8.86203C14.8991 8.5838 14.5145 8.40741 14.1042 8.35723C12.1455 8.1393 10.1648 8.13793 8.19089 8.13931C6.21702 8.14068 4.23625 8.1393 2.27756 8.35723C1.86746 8.40732 1.48303 8.58351 1.17738 8.86148C0.871734 9.13944 0.659951 9.50545 0.571283 9.90896C0.29541 11.1048 0.29541 12.4096 0.29541 13.6414C0.29541 14.8731 0.29541 16.1779 0.571283 17.3738C0.659535 17.7771 0.870805 18.1432 1.17593 18.4214C1.48106 18.6995 1.86501 18.8762 2.27479 18.9269C4.23349 19.1462 6.21426 19.1462 8.18813 19.1462C10.162 19.1462 12.1428 19.1462 14.1015 18.9269C14.5116 18.8768 14.896 18.7006 15.2016 18.4226C15.5073 18.1447 15.7191 17.7787 15.8077 17.3752C16.0836 16.1793 16.0836 14.8745 16.0836 13.6428C16.0836 12.411 16.0864 11.1062 15.8105 9.91034ZM4.79766 10.9862H3.65416V17.0552H2.59344V10.9862H1.47063V9.99172H4.79766V10.9862ZM7.68052 17.0552H6.72601V16.48C6.34668 16.9159 5.98666 17.1269 5.63492 17.1269C5.32733 17.1269 5.11629 17.0028 5.02111 16.7352C4.95453 16.4801 4.92618 16.2165 4.93698 15.9531V11.7931H5.8901V15.6676C5.88472 15.7913 5.88795 15.9153 5.89977 16.0386C5.92184 16.1862 5.99494 16.2621 6.12184 16.2621C6.31358 16.2621 6.51359 16.1145 6.72601 15.8152V11.7931H7.68052V17.0552ZM11.3055 15.4745C11.3185 15.8306 11.2866 16.187 11.2103 16.5352C11.082 16.9269 10.8269 17.1269 10.4475 17.1269C10.1082 17.1269 9.77991 16.9393 9.46128 16.5448V17.0552H8.50677V9.99172H9.46128V12.2993C9.76888 11.92 10.0958 11.7283 10.4475 11.7283C10.8269 11.7283 11.082 11.9283 11.2103 12.3228C11.288 12.6702 11.32 13.0263 11.3055 13.3821V15.4745ZM14.907 14.5959H12.9994V15.5296C12.9994 16.0165 13.1594 16.2607 13.4863 16.2607C13.7208 16.2607 13.8587 16.1324 13.9125 15.8772C13.9312 15.6621 13.9381 15.4462 13.9332 15.2303H14.907V15.3683C14.907 15.6759 14.896 15.8883 14.8877 15.9834C14.8573 16.1882 14.7809 16.3835 14.6642 16.5545C14.5368 16.7405 14.3637 16.8907 14.1615 16.9907C13.9594 17.0907 13.7349 17.1371 13.5097 17.1255C13.2879 17.1364 13.0668 17.0929 12.8656 16.9989C12.6644 16.905 12.4892 16.7633 12.3552 16.5862C12.1524 16.3227 12.049 15.9076 12.049 15.3448V13.509C12.049 12.9462 12.1414 12.5352 12.3442 12.2676C12.4762 12.0913 12.6492 11.95 12.8482 11.8557C13.0472 11.7615 13.2663 11.7173 13.4863 11.7269C13.7039 11.7175 13.9205 11.7619 14.1168 11.8562C14.3131 11.9506 14.4832 12.0918 14.6118 12.2676C14.8118 12.5338 14.907 12.9448 14.907 13.509V14.5959Z" fill="white"/>
<path d="M9.93545 12.5876C9.84501 12.5931 9.75655 12.6165 9.67513 12.6562C9.59372 12.696 9.52093 12.7514 9.46094 12.8193V16.029C9.52017 16.0981 9.59271 16.1546 9.67422 16.1951C9.75574 16.2356 9.84458 16.2593 9.93545 16.2648C10.2113 16.2648 10.3493 16.029 10.3493 15.5531V13.3062C10.352 12.8303 10.2113 12.5876 9.93545 12.5876Z" fill="white"/>
<path fill-rule="evenodd" clip-rule="evenodd" d="M6.53582 0.0468903H5.45579L4.7261 2.84965L3.96745 0.0468903H2.84326C3.0681 0.70758 3.30259 1.37379 3.53294 2.03586C3.80073 2.77305 4.0187 3.52739 4.18538 4.29379V7.19034H5.25439V4.29379L6.53582 0.0468903ZM9.39386 5.46068V3.59861C9.39386 3.03034 9.29592 2.61517 9.09454 2.3462C8.96066 2.17633 8.79002 2.03902 8.59542 1.94461C8.40083 1.8502 8.18735 1.80115 7.97106 1.80115C7.75476 1.80115 7.54129 1.8502 7.34669 1.94461C7.15209 2.03902 6.98143 2.17633 6.84756 2.3462C6.64204 2.61517 6.54547 3.03586 6.54547 3.59861V5.46068C6.54547 6.0262 6.64204 6.44551 6.84756 6.71172C6.98143 6.8816 7.15209 7.0189 7.34669 7.11331C7.54129 7.20772 7.75476 7.25677 7.97106 7.25677C8.18735 7.25677 8.40083 7.20772 8.59542 7.11331C8.79002 7.0189 8.96066 6.8816 9.09454 6.71172C9.29592 6.44689 9.39386 6.02758 9.39386 5.46068ZM8.42831 5.64275C8.42831 6.13517 8.27934 6.38069 7.96761 6.38069C7.65587 6.38069 7.50827 6.13517 7.50827 5.64275V3.40551C7.50827 2.9131 7.65725 2.66896 7.96761 2.66896C8.27796 2.66896 8.42831 2.9131 8.42831 3.40551V5.64275ZM12.9568 7.18344V1.86482H11.9912V5.93103C11.7774 6.2331 11.5774 6.38206 11.3829 6.38206C11.2533 6.38206 11.1774 6.3062 11.1567 6.15723C11.1415 6.03279 11.1373 5.90724 11.1443 5.78206V1.86482H10.1787V6.07172C10.1675 6.33796 10.1963 6.60439 10.2643 6.86206C10.3594 7.13793 10.5746 7.25793 10.885 7.25793C11.2353 7.25793 11.6022 7.04413 11.9885 6.60413V7.18482L12.9568 7.18344Z" fill="white"/>
</svg>
