<svg width="13" height="9" viewBox="0 0 13 9" fill="none" xmlns="http://www.w3.org/2000/svg">
<path d="M8.61743 4.56663L13.0001 7.33725V1.679L8.61743 4.56663Z" fill="#AA1D26"/>
<path d="M0 1.679V7.33725L4.38262 4.56663L0 1.679Z" fill="#AA1D26"/>
<path d="M12.1875 0.03125H0.812539C0.407102 0.03125 0.0853516 0.3335 0.0244141 0.722688L6.50004 4.98913L12.9757 0.722688C12.9147 0.3335 12.593 0.03125 12.1875 0.03125Z" fill="#AA1D26"/>
<path d="M7.87325 5.05738L6.72356 5.81463C6.65531 5.85931 6.57812 5.88125 6.50012 5.88125C6.42212 5.88125 6.34493 5.85931 6.27668 5.81463L5.127 5.05656L0.026123 8.283C0.0886855 8.66894 0.40881 8.96875 0.812623 8.96875H12.1876C12.5914 8.96875 12.9116 8.66894 12.9741 8.283L7.87325 5.05738Z" fill="#AA1D26"/>
</svg>
