<svg width="66" height="66" viewBox="0 0 66 66" fill="none" xmlns="http://www.w3.org/2000/svg">
<path d="M50.9057 50.8267H23.8293C23.2915 50.8267 22.8555 51.2632 22.8555 51.801C22.8555 52.3388 23.2915 52.7749 23.8293 52.7749H50.9052C51.4435 52.7749 51.8795 52.3388 51.8795 51.801C51.8795 51.2632 51.4435 50.8267 50.9057 50.8267Z" fill="#AA1D26"/>
<path d="M50.9057 43.9849H23.8293C23.2915 43.9849 22.8555 44.4209 22.8555 44.9587C22.8555 45.497 23.2915 45.9331 23.8293 45.9331H50.9052C51.4435 45.9331 51.8795 45.497 51.8795 44.9587C51.8795 44.4209 51.4435 43.9849 50.9057 43.9849Z" fill="#AA1D26"/>
<path d="M22.8555 38.1125C22.8555 38.6508 23.2915 39.0869 23.8293 39.0869H41.0589C41.5972 39.0869 42.0333 38.6508 42.0333 38.1125C42.0333 37.5747 41.5972 37.1387 41.0589 37.1387H23.8293C23.2915 37.1387 22.8555 37.5747 22.8555 38.1125Z" fill="#AA1D26"/>
<path d="M61.1872 12.7788L59.4308 10.8724V4.054C59.4308 1.81879 57.607 0 55.3647 0H11.7939C9.55165 0 7.72783 1.81879 7.72783 4.054V11.7451H5.9463C3.80475 11.7451 2.0625 13.4883 2.0625 15.6309V27.4233C2.0625 29.5659 3.80475 31.3091 5.9463 31.3091H7.72783V58.4827C7.72783 60.7179 9.55165 62.5367 11.7939 62.5367H14.0196C14.2592 64.4859 15.9245 66 17.9381 66H59.8568C62.0366 66 63.8096 64.229 63.8096 62.0522V19.9744C63.8096 16.5307 63.7059 15.5171 61.1872 12.7788ZM61.8211 17.9698H54.5238C53.4185 17.9698 52.5192 17.073 52.5192 15.9713L52.5258 7.50023C53.8068 7.5954 54.1487 7.97406 55.2716 9.22284C55.4579 9.4303 55.6613 9.65588 55.8874 9.90161L57.7495 11.9228C57.756 11.9299 57.7626 11.9374 57.7696 11.9445L59.7536 14.0981C61.3005 15.7799 61.7119 16.4859 61.8211 17.9698ZM9.67603 4.054C9.67603 2.89284 10.6262 1.9482 11.7939 1.9482H55.3647C56.5324 1.9482 57.4826 2.89284 57.4826 4.054V8.75757L57.3205 8.58133C57.0994 8.34215 56.902 8.1221 56.7208 7.92018C55.1195 6.13966 54.4196 5.52383 51.5534 5.52383H51.5529H17.9381C15.7603 5.52383 13.9888 7.29478 13.9888 9.47159V11.7451H9.67603V4.054ZM61.8614 62.0522C61.8614 63.1545 60.9621 64.0518 59.8568 64.0518H17.9381C16.8349 64.0518 15.937 63.155 15.937 62.0522V47.936C15.937 47.3982 15.501 46.9622 14.9627 46.9622C14.4249 46.9622 13.9888 47.3982 13.9888 47.936V60.5885H11.7939C10.6262 60.5885 9.67603 59.6438 9.67603 58.4832V31.3091H13.9888V43.4756C13.9888 44.0134 14.4249 44.4495 14.9627 44.4495C15.501 44.4495 15.937 44.0134 15.937 43.4756V31.3091H20.9936C21.5314 31.3091 21.9674 30.873 21.9674 30.3348C21.9674 29.797 21.5314 29.3609 20.9936 29.3609H5.9463C4.8788 29.3609 4.0107 28.4918 4.0107 27.4233V15.6309C4.0107 14.5624 4.8788 13.6933 5.9463 13.6933H31.6002C32.6692 13.6933 33.5393 14.5624 33.5393 15.6309V27.4233C33.5393 28.4918 32.6692 29.3609 31.6002 29.3609H25.4565C24.9182 29.3609 24.4821 29.797 24.4821 30.3348C24.4821 30.873 24.9182 31.3091 25.4565 31.3091H31.6002C33.7437 31.3091 35.4875 29.5659 35.4875 27.4233V15.6309C35.4875 13.4883 33.7437 11.7451 31.6002 11.7451H15.937V9.47159C15.937 8.36884 16.8349 7.47203 17.9381 7.47203H50.5776L50.571 15.9708C50.571 18.1476 52.3445 19.9185 54.5238 19.9185H61.8614V19.9744V62.0522Z" fill="#AA1D26"/>
<path d="M11.8139 17.3555H9.48047C9.19395 17.3555 8.95024 17.4557 8.74983 17.6566C8.54942 17.857 8.44922 18.1042 8.44922 18.3988V25.2973C8.44922 25.5838 8.54741 25.825 8.74379 26.0214C8.94017 26.2183 9.17381 26.3165 9.44371 26.3165C9.71411 26.3165 9.94725 26.2183 10.1436 26.0214C10.3405 25.825 10.4387 25.5919 10.4387 25.322V23.3214H11.9367C12.8456 23.3214 13.5742 23.0495 14.1226 22.5052C14.671 21.9608 14.9454 21.2468 14.9454 20.3631C14.9454 19.4713 14.6548 18.7467 14.0738 18.1903C13.4922 17.6339 12.7389 17.3555 11.8139 17.3555ZM12.5385 21.2222C12.3008 21.4598 12.0228 21.5782 11.7036 21.5782H10.4387V19.1355H11.7157C12.0515 19.1355 12.3315 19.2563 12.5571 19.4975C12.7822 19.7392 12.8945 20.0318 12.8945 20.3752C12.8945 20.7025 12.7761 20.985 12.5385 21.2222Z" fill="#AA1D26"/>
<path d="M23.1097 19.694C22.8192 19.0601 22.4118 18.5505 21.8881 18.1658C21.1595 17.634 20.2179 17.3682 19.0638 17.3682H17.0128C16.7258 17.3682 16.4846 17.4704 16.2882 17.6748C16.0914 17.8798 15.9932 18.1129 15.9932 18.3747V25.2118C15.9932 25.5064 16.0873 25.7476 16.2757 25.9359C16.4801 26.1162 16.7298 26.2058 17.0249 26.2058H19.2355C20.4304 26.2058 21.3886 25.8825 22.1092 25.236C23.0669 24.3608 23.5458 23.2027 23.5458 21.7626C23.5458 21.0178 23.4002 20.3285 23.1097 19.694ZM20.8564 23.6896C20.4304 24.1725 19.8659 24.4137 19.1614 24.4137H17.9827V19.1723H19.0512C19.8045 19.1723 20.4001 19.4055 20.8382 19.8723C21.2758 20.3385 21.4948 20.9685 21.4948 21.7626C21.4948 22.5647 21.2818 23.2067 20.8564 23.6896Z" fill="#AA1D26"/>
<path d="M25.8333 26.3411C26.1112 26.3411 26.3469 26.2424 26.5392 26.0461C26.7316 25.8497 26.8277 25.6165 26.8277 25.3466V22.7076H28.719C28.9894 22.7076 29.2145 22.62 29.3943 22.4437C29.5746 22.268 29.6647 22.057 29.6647 21.8113C29.6647 21.558 29.5725 21.343 29.3882 21.1673C29.2039 20.9915 28.9809 20.9034 28.719 20.9034H26.8277V19.1722H29.063C29.3167 19.1722 29.5297 19.0826 29.7014 18.9023C29.8737 18.7226 29.9593 18.5136 29.9593 18.2764C29.9593 18.0146 29.8716 17.7955 29.6954 17.6198C29.5192 17.4436 29.3087 17.356 29.063 17.356H25.8453C25.5588 17.356 25.3171 17.4582 25.1207 17.6626C24.9244 17.8676 24.8262 18.1047 24.8262 18.3746V25.3466C24.8262 25.617 24.9284 25.8502 25.1333 26.0466C25.3378 26.2424 25.5709 26.3411 25.8333 26.3411Z" fill="#AA1D26"/>
</svg>
