<svg width="23" height="24" viewBox="0 0 23 24" fill="none" xmlns="http://www.w3.org/2000/svg">
<g clip-path="url(#clip0)">
<path d="M22.5532 18.6823L20.0034 16.9822L17.7368 15.4714C17.2993 15.1804 16.7114 15.2758 16.3885 15.6903L14.9859 17.4934C14.6846 17.8847 14.1427 17.9971 13.7106 17.7579C12.7589 17.2285 11.6335 16.7301 9.15032 14.2437C6.66715 11.7574 6.16552 10.6351 5.63612 9.68342C5.39691 9.25137 5.50935 8.7094 5.90062 8.40815L7.70371 7.00557C8.1182 6.68268 8.21366 6.09479 7.92262 5.6573L6.45818 3.46043L4.71177 0.840793C4.41453 0.394903 3.8195 0.261038 3.35995 0.53663L1.34586 1.74492C0.801549 2.06562 0.401434 2.58347 0.228397 3.19112C-0.322383 5.19924 -0.433429 9.62907 6.66594 16.7284C13.7653 23.8278 18.1947 23.7164 20.2029 23.1656C20.8105 22.9926 21.3284 22.5925 21.6491 22.0481L22.8573 20.0341C23.133 19.5745 22.9991 18.9795 22.5532 18.6823Z" fill="white"/>
<path d="M13.086 3.96252C16.8073 3.96665 19.8231 6.9824 19.8273 10.7038C19.8273 10.9228 20.0048 11.1004 20.2238 11.1004C20.4428 11.1004 20.6204 10.9229 20.6204 10.7038C20.6158 6.5446 17.2452 3.17402 13.086 3.16943C12.867 3.16943 12.6895 3.34696 12.6895 3.566C12.6894 3.78495 12.8669 3.96252 13.086 3.96252Z" fill="white"/>
<path d="M13.086 6.34196C15.4939 6.34479 17.4452 8.29608 17.448 10.704C17.448 10.9229 17.6255 11.1005 17.8446 11.1005C18.0636 11.1005 18.2411 10.923 18.2411 10.704C18.2379 7.85824 15.9318 5.55211 13.086 5.54883C12.867 5.54883 12.6895 5.72636 12.6895 5.94539C12.6895 6.16443 12.867 6.34196 13.086 6.34196Z" fill="white"/>
<path d="M13.086 8.72082C14.1805 8.72212 15.0674 9.60905 15.0687 10.7036C15.0687 10.9226 15.2462 11.1001 15.4653 11.1001C15.6843 11.1001 15.8618 10.9226 15.8618 10.7036C15.8601 9.17125 14.6183 7.92949 13.086 7.92773C12.867 7.92773 12.6895 8.10526 12.6895 8.3243C12.6894 8.54329 12.8669 8.72082 13.086 8.72082Z" fill="white"/>
</g>
<defs>
<clipPath id="clip0">
<rect width="23" height="23" fill="white" transform="translate(0 0.393555)"/>
</clipPath>
</defs>
</svg>
