<svg width="259" height="233" viewBox="0 0 259 233" fill="none" xmlns="http://www.w3.org/2000/svg">
<path d="M255.208 100.414L206.302 16.2483C203.27 11.5412 199.164 7.61553 194.319 4.79172C189.474 1.96791 184.028 0.325982 178.426 0H80.6129C75.0122 0.334539 69.5694 1.98007 64.7261 4.8031C59.8827 7.62613 55.7751 11.5472 52.7363 16.2483L3.83001 100.414C1.31165 105.405 0 110.914 0 116.5C0 122.086 1.31165 127.595 3.83001 132.586L52.7363 216.752C55.7751 221.453 59.8827 225.374 64.7261 228.197C69.5694 231.02 75.0122 232.665 80.6129 233H178.426C184.028 232.674 189.474 231.032 194.319 228.208C199.164 225.384 203.27 221.459 206.302 216.752L255.208 132.586C257.702 127.588 259 122.082 259 116.5C259 110.918 257.702 105.412 255.208 100.414ZM230.918 129.444L191.304 197.362C188.846 201.124 185.533 204.257 181.634 206.505C177.735 208.754 173.359 210.056 168.862 210.307H90.1225C85.6164 210.06 81.2317 208.76 77.3234 206.512C73.415 204.263 70.0928 201.128 67.6256 197.362L28.3375 129.444C26.2732 125.44 25.1964 121.002 25.1964 116.5C25.1964 111.998 26.2732 107.56 28.3375 103.556L67.6256 35.6378C70.0928 31.8716 73.415 28.7372 77.3234 26.4884C81.2317 24.2396 85.6164 22.9395 90.1225 22.6934H168.862C173.359 22.9436 177.735 24.2458 181.634 26.4946C185.533 28.7435 188.846 31.8757 191.304 35.6378L230.701 103.339C232.746 107.388 233.811 111.858 233.811 116.392C233.811 120.925 232.746 125.395 230.701 129.444H230.918Z" fill="#EFEFEF"/>
<path d="M163.437 41.015H95.5412C92.7411 40.892 89.9595 41.5275 87.4881 42.8547C85.0166 44.182 82.9462 46.1522 81.4938 48.559L73 63.8109H94.7789H116.231L96.739 97.7588L97.4468 141L131.531 82.8349L192.675 113.393L204 94.6975L143.291 63.7016H186.196L177.811 49.4336C176.262 46.977 174.148 44.9299 171.646 43.4649C169.145 41.9998 166.329 41.1596 163.437 41.015Z" fill="#EFEFEF"/>
<path d="M100.739 173.311L90.3633 154.621H128.388L141.533 146.146L165 132.292H98.7287L97.8053 117.514V102.031L95.4152 64H73.1437L77.0004 131.694L55.5981 94.4245L46.9067 108.767C45.5864 111.316 44.9324 114.156 45.0055 117.025C44.984 119.82 45.6362 122.578 46.9067 125.066L80.7486 183.688C82.2469 186.108 84.3097 188.128 86.7601 189.576C89.2105 191.024 91.9753 191.855 94.8176 192H111.114L100.739 173.311Z" fill="#EFEFEF"/>
<path d="M177.429 183.69L211.104 125.034C212.411 122.465 213.061 119.609 212.995 116.724C213.023 113.948 212.374 111.206 211.104 108.74L203.212 94.9452L192.402 113.52L181.97 131.062L162.727 98.4755L124.999 78L158.133 135.19L99 173.208L111.81 192L168.781 153.982L147.16 192H165.538C168.005 191.575 170.349 190.61 172.404 189.174C174.459 187.738 176.174 185.866 177.429 183.69Z" fill="#EFEFEF"/>
</svg>
