<svg width="245" height="222" viewBox="0 0 245 222" fill="none" xmlns="http://www.w3.org/2000/svg">
<mask id="path-1-inside-1" fill="white">
<path d="M230.914 124.985L188.777 198.129C186.127 202.174 182.567 205.542 178.384 207.962C174.2 210.382 169.509 211.788 164.685 212.066H80.251C75.423 211.788 70.727 210.383 66.5382 207.963C62.3494 205.543 58.784 202.175 56.127 198.129L13.9899 124.985C11.7979 120.661 10.6554 115.881 10.6554 111.032C10.6554 106.183 11.7979 101.403 13.9899 97.0794L56.127 23.9674C58.7732 19.9059 62.3346 16.5231 66.5246 14.0914C70.7146 11.6596 75.4162 10.2468 80.251 9.96655H164.621C169.463 10.2368 174.172 11.6452 178.369 14.0776C182.566 16.5101 186.131 19.8981 188.777 23.9674L230.914 97.0794C233.077 101.412 234.203 106.189 234.203 111.032C234.203 115.876 233.077 120.653 230.914 124.985ZM241.248 95.7658L195.176 15.6374C192.263 11.1773 188.339 7.46869 183.725 4.81317C179.111 2.15764 173.935 0.630178 168.62 0.35498L76.2196 0.35498C70.9304 0.647288 65.7844 2.18323 61.1985 4.83834C56.6126 7.49346 52.7159 11.1931 49.824 15.6374L3.62364 95.7338C1.24107 100.469 0 105.698 0 111C0 116.303 1.24107 121.531 3.62364 126.267L49.824 206.363C52.7196 210.804 56.6173 214.501 61.2024 217.155C65.7875 219.81 70.9316 221.348 76.2196 221.645H168.62C173.928 221.37 179.097 219.849 183.709 217.205C188.322 214.562 192.25 210.87 195.176 206.427L241.376 126.331C243.759 121.595 245 116.367 245 111.064C245 105.762 243.759 100.533 241.376 95.7979"/>
</mask>
<path d="M231.892 125.549C232.204 125.008 232.018 124.318 231.478 124.007C230.937 123.695 230.247 123.881 229.936 124.421L231.892 125.549ZM188.777 198.129L189.721 198.748L189.739 198.721L189.755 198.693L188.777 198.129ZM178.384 207.962L177.818 206.985L178.384 207.962ZM164.685 212.066V213.195H164.718L164.75 213.193L164.685 212.066ZM80.251 212.066L80.1861 213.193L80.2185 213.195H80.251V212.066ZM66.5382 207.963L65.9734 208.94L66.5382 207.963ZM56.127 198.129L55.1487 198.693L55.1651 198.721L55.1832 198.749L56.127 198.129ZM13.9899 124.985L12.9829 125.496L12.9966 125.522L13.0116 125.549L13.9899 124.985ZM13.9899 97.0794L13.0117 96.5156L12.9966 96.5418L12.9829 96.5688L13.9899 97.0794ZM56.127 23.9674L55.181 23.3511L55.1642 23.3769L55.1488 23.4036L56.127 23.9674ZM66.5246 14.0914L67.0913 15.0678L66.5246 14.0914ZM80.251 9.96655V8.83752H80.2183L80.1856 8.83941L80.251 9.96655ZM164.621 9.96655L164.684 8.83927L164.653 8.83752H164.621V9.96655ZM188.777 23.9674L189.755 23.4036L189.74 23.3774L189.724 23.352L188.777 23.9674ZM230.914 97.0794L231.924 96.5751L231.909 96.5449L231.892 96.5156L230.914 97.0794ZM229.904 124.481C229.625 125.039 229.852 125.717 230.41 125.995C230.968 126.274 231.646 126.047 231.924 125.489L229.904 124.481ZM240.27 96.3286C240.58 96.8691 241.271 97.0554 241.811 96.7446C242.352 96.4338 242.538 95.7436 242.227 95.203L240.27 96.3286ZM195.176 15.6374L196.155 15.0746L196.139 15.0468L196.121 15.0199L195.176 15.6374ZM183.725 4.81317L184.288 3.83461L183.725 4.81317ZM168.62 0.35498L168.679 -0.772541L168.65 -0.774052H168.62V0.35498ZM76.2196 0.35498V-0.774052H76.1885L76.1573 -0.772332L76.2196 0.35498ZM49.824 15.6374L48.8777 15.0216L48.8611 15.047L48.846 15.0733L49.824 15.6374ZM3.62364 95.7338L2.64564 95.1697L2.62955 95.1975L2.61508 95.2263L3.62364 95.7338ZM0 111H-1.12903H0ZM3.62364 126.267L2.61508 126.774L2.62955 126.803L2.64564 126.831L3.62364 126.267ZM49.824 206.363L48.846 206.927L48.8614 206.954L48.8783 206.98L49.824 206.363ZM61.2024 217.155L60.6367 218.132L61.2024 217.155ZM76.2196 221.645L76.1562 222.773L76.1879 222.774H76.2196V221.645ZM168.62 221.645V222.774H168.65L168.679 222.773L168.62 221.645ZM183.709 217.205L183.148 216.226L183.709 217.205ZM195.176 206.427L196.119 207.048L196.137 207.02L196.154 206.991L195.176 206.427ZM241.376 126.331L242.354 126.895L242.37 126.867L242.385 126.838L241.376 126.331ZM242.385 95.2904C242.105 94.7334 241.426 94.509 240.869 94.7893C240.312 95.0695 240.088 95.7483 240.368 96.3053L242.385 95.2904ZM239.924 91.1966C239.613 90.6561 238.923 90.4698 238.382 90.7806C237.841 91.0914 237.655 91.7816 237.966 92.3222L239.924 91.1966ZM233.359 84.3093C233.67 84.8499 234.36 85.0361 234.9 84.7253C235.441 84.4145 235.627 83.7243 235.316 83.1838L233.359 84.3093ZM230.709 75.1709C230.398 74.6304 229.708 74.4441 229.167 74.7549C228.627 75.0657 228.441 75.7559 228.751 76.2965L230.709 75.1709ZM224.144 68.2836C224.455 68.8242 225.145 69.0104 225.686 68.6996C226.226 68.3888 226.413 67.6986 226.102 67.1581L224.144 68.2836ZM221.495 59.1452C221.184 58.6047 220.494 58.4184 219.953 58.7292C219.412 59.0401 219.226 59.7302 219.537 60.2708L221.495 59.1452ZM214.93 52.2579C215.241 52.7985 215.931 52.9848 216.471 52.6739C217.012 52.3631 217.198 51.673 216.887 51.1324L214.93 52.2579ZM212.28 43.1195C211.969 42.579 211.279 42.3927 210.739 42.7036C210.198 43.0144 210.012 43.7045 210.323 44.2451L212.28 43.1195ZM205.715 36.2323C206.026 36.7728 206.716 36.9591 207.257 36.6483C207.797 36.3374 207.984 35.6473 207.673 35.1067L205.715 36.2323ZM203.066 27.0939C202.755 26.5533 202.065 26.3671 201.524 26.6779C200.983 26.9887 200.797 27.6789 201.108 28.2194L203.066 27.0939ZM196.501 20.2066C196.812 20.7471 197.502 20.9334 198.042 20.6226C198.583 20.3118 198.769 19.6216 198.458 19.081L196.501 20.2066ZM193.678 11.72C193.278 11.2415 192.566 11.1777 192.088 11.5775C191.609 11.9773 191.545 12.6893 191.945 13.1678L193.678 11.72ZM186.372 7.89978C186.873 8.27205 187.58 8.16832 187.952 7.66809C188.324 7.16786 188.221 6.46057 187.721 6.0883L186.372 7.89978ZM180.617 2.00002C180.044 1.75454 179.38 2.02021 179.134 2.5934C178.889 3.1666 179.155 3.83026 179.728 4.07574L180.617 2.00002ZM172.377 1.90604C172.992 2.01116 173.575 1.59812 173.68 0.983498C173.786 0.368874 173.373 -0.214591 172.758 -0.319708L172.377 1.90604ZM164 -0.774052C163.377 -0.774052 162.871 -0.268567 162.871 0.35498C162.871 0.978528 163.377 1.48401 164 1.48401V-0.774052ZM154.76 1.48401C155.384 1.48401 155.889 0.978528 155.889 0.35498C155.889 -0.268567 155.384 -0.774052 154.76 -0.774052V1.48401ZM145.52 -0.774052C144.897 -0.774052 144.391 -0.268567 144.391 0.35498C144.391 0.978528 144.897 1.48401 145.52 1.48401V-0.774052ZM136.28 1.48401C136.904 1.48401 137.409 0.978528 137.409 0.35498C137.409 -0.268567 136.904 -0.774052 136.28 -0.774052V1.48401ZM127.04 -0.774052C126.416 -0.774052 125.911 -0.268567 125.911 0.35498C125.911 0.978528 126.416 1.48401 127.04 1.48401V-0.774052ZM117.8 1.48401C118.424 1.48401 118.929 0.978528 118.929 0.35498C118.929 -0.268567 118.424 -0.774052 117.8 -0.774052V1.48401ZM108.56 -0.774052C107.936 -0.774052 107.431 -0.268567 107.431 0.35498C107.431 0.978528 107.936 1.48401 108.56 1.48401V-0.774052ZM99.3198 1.48401C99.9434 1.48401 100.449 0.978528 100.449 0.35498C100.449 -0.268567 99.9434 -0.774052 99.3198 -0.774052V1.48401ZM90.0797 -0.774052C89.4562 -0.774052 88.9507 -0.268567 88.9507 0.35498C88.9507 0.978528 89.4562 1.48401 90.0797 1.48401V-0.774052ZM80.8397 1.48401C81.4632 1.48401 81.9687 0.978528 81.9687 0.35498C81.9687 -0.268567 81.4632 -0.774052 80.8397 -0.774052V1.48401ZM72.0983 -0.307882C71.4841 -0.20076 71.0729 0.38405 71.1801 0.998327C71.2872 1.6126 71.872 2.02373 72.4863 1.91661L72.0983 -0.307882ZM65.1771 4.09829C65.7496 3.85119 66.0134 3.18678 65.7663 2.61428C65.5192 2.04179 64.8548 1.778 64.2823 2.0251L65.1771 4.09829ZM57.2217 6.11322C56.7224 6.48669 56.6203 7.19424 56.9938 7.69357C57.3673 8.1929 58.0748 8.29493 58.5741 7.92146L57.2217 6.11322ZM53.0393 13.1766C53.4382 12.6973 53.373 11.9854 52.8937 11.5865C52.4144 11.1877 51.7025 11.2529 51.3036 11.7322L53.0393 13.1766ZM46.536 19.0781C46.2244 19.6182 46.4097 20.3086 46.9499 20.6202C47.49 20.9317 48.1804 20.7464 48.492 20.2063L46.536 19.0781ZM43.8719 28.216C44.1835 27.6758 43.9982 26.9854 43.4581 26.6738C42.9179 26.3623 42.2275 26.5476 41.916 27.0877L43.8719 28.216ZM37.2959 35.0974C36.9844 35.6375 37.1697 36.3279 37.7098 36.6395C38.2499 36.951 38.9404 36.7657 39.2519 36.2256L37.2959 35.0974ZM34.6319 44.2352C34.9434 43.6951 34.7581 43.0047 34.218 42.6931C33.6779 42.3816 32.9874 42.5669 32.6759 43.107L34.6319 44.2352ZM28.0558 51.1166C27.7443 51.6568 27.9296 52.3472 28.4697 52.6588C29.0099 52.9703 29.7003 52.785 30.0118 52.2449L28.0558 51.1166ZM25.3918 60.2545C25.7034 59.7144 25.5181 59.0239 24.9779 58.7124C24.4378 58.4008 23.7474 58.5861 23.4358 59.1263L25.3918 60.2545ZM18.8158 67.1359C18.5042 67.676 18.6895 68.3665 19.2296 68.678C19.7698 68.9896 20.4602 68.8043 20.7718 68.2642L18.8158 67.1359ZM16.1517 76.2738C16.4633 75.7337 16.278 75.0432 15.7379 74.7317C15.1977 74.4201 14.5073 74.6054 14.1957 75.1456L16.1517 76.2738ZM9.57569 83.1552C9.26414 83.6953 9.44944 84.3858 9.98957 84.6973C10.5297 85.0089 11.2201 84.8236 11.5317 84.2834L9.57569 83.1552ZM6.91166 92.2931C7.22321 91.7529 7.03791 91.0625 6.49778 90.751C5.95764 90.4394 5.26721 90.6247 4.95566 91.1648L6.91166 92.2931ZM0.99368 98.9787C0.780115 99.5645 1.0819 100.213 1.66773 100.426C2.25356 100.64 2.90161 100.338 3.11517 99.7521L0.99368 98.9787ZM1.3517 107.182C1.42419 106.563 0.980892 106.002 0.361572 105.929C-0.257748 105.857 -0.818567 106.3 -0.891052 106.919L1.3517 107.182ZM-0.891052 115.081C-0.818567 115.7 -0.257748 116.143 0.361572 116.071C0.980892 115.998 1.42419 115.438 1.3517 114.818L-0.891052 115.081ZM3.11517 122.248C2.9016 121.662 2.25356 121.361 1.66773 121.574C1.0819 121.788 0.780114 122.436 0.99368 123.022L3.11517 122.248ZM4.95566 130.835C5.26722 131.376 5.95765 131.561 6.49778 131.249C7.03791 130.938 7.22322 130.247 6.91166 129.707L4.95566 130.835ZM11.5317 137.717C11.2201 137.177 10.5297 136.991 9.98958 137.303C9.44944 137.615 9.26414 138.305 9.5757 138.845L11.5317 137.717ZM14.1957 146.855C14.5073 147.395 15.1977 147.58 15.7379 147.269C16.278 146.957 16.4633 146.267 16.1517 145.727L14.1957 146.855ZM20.7718 153.736C20.4602 153.196 19.7698 153.011 19.2297 153.322C18.6895 153.634 18.5042 154.324 18.8158 154.864L20.7718 153.736ZM23.4358 162.874C23.7474 163.414 24.4378 163.599 24.9779 163.288C25.5181 162.976 25.7034 162.286 25.3918 161.746L23.4358 162.874ZM30.0118 169.755C29.7003 169.215 29.0099 169.03 28.4697 169.342C27.9296 169.653 27.7443 170.344 28.0558 170.884L30.0118 169.755ZM32.6759 178.893C32.9874 179.433 33.6779 179.619 34.218 179.307C34.7581 178.996 34.9434 178.305 34.6319 177.765L32.6759 178.893ZM39.2519 185.775C38.9404 185.235 38.2499 185.049 37.7098 185.361C37.1697 185.672 36.9844 186.363 37.2959 186.903L39.2519 185.775ZM41.9159 194.913C42.2275 195.453 42.9179 195.638 43.4581 195.326C43.9982 195.015 44.1835 194.324 43.8719 193.784L41.9159 194.913ZM48.492 201.794C48.1804 201.254 47.49 201.069 46.9499 201.38C46.4097 201.692 46.2244 202.382 46.536 202.922L48.492 201.794ZM51.3065 210.266C51.7057 210.745 52.4176 210.81 52.8966 210.411C53.3756 210.012 53.4403 209.3 53.0411 208.821L51.3065 210.266ZM58.578 214.073C58.0786 213.699 57.3711 213.802 56.9977 214.301C56.6244 214.8 56.7266 215.508 57.226 215.881L58.578 214.073ZM64.2852 219.969C64.8576 220.216 65.5221 219.952 65.7693 219.38C66.0166 218.807 65.753 218.143 65.1805 217.896L64.2852 219.969ZM72.488 220.081C71.8738 219.973 71.2887 220.384 71.1812 220.998C71.0736 221.612 71.4843 222.197 72.0985 222.305L72.488 220.081ZM80.8397 222.774C81.4632 222.774 81.9687 222.269 81.9687 221.645C81.9687 221.022 81.4632 220.516 80.8397 220.516V222.774ZM90.0797 220.516C89.4562 220.516 88.9507 221.022 88.9507 221.645C88.9507 222.269 89.4562 222.774 90.0797 222.774V220.516ZM99.3198 222.774C99.9434 222.774 100.449 222.269 100.449 221.645C100.449 221.022 99.9434 220.516 99.3198 220.516V222.774ZM108.56 220.516C107.936 220.516 107.431 221.022 107.431 221.645C107.431 222.269 107.936 222.774 108.56 222.774V220.516ZM117.8 222.774C118.424 222.774 118.929 222.269 118.929 221.645C118.929 221.022 118.424 220.516 117.8 220.516V222.774ZM127.04 220.516C126.416 220.516 125.911 221.022 125.911 221.645C125.911 222.269 126.416 222.774 127.04 222.774V220.516ZM136.28 222.774C136.904 222.774 137.409 222.269 137.409 221.645C137.409 221.022 136.904 220.516 136.28 220.516V222.774ZM145.52 220.516C144.897 220.516 144.391 221.022 144.391 221.645C144.391 222.269 144.897 222.774 145.52 222.774V220.516ZM154.76 222.774C155.384 222.774 155.889 222.269 155.889 221.645C155.889 221.022 155.384 220.516 154.76 220.516V222.774ZM164 220.516C163.377 220.516 162.871 221.022 162.871 221.645C162.871 222.269 163.377 222.774 164 222.774V220.516ZM172.752 222.321C173.367 222.216 173.78 221.633 173.675 221.018C173.57 220.403 172.987 219.99 172.372 220.095L172.752 222.321ZM179.716 217.934C179.142 218.179 178.876 218.842 179.12 219.416C179.365 219.989 180.028 220.256 180.602 220.011L179.716 217.934ZM187.703 215.942C188.204 215.57 188.309 214.863 187.938 214.362C187.567 213.861 186.86 213.756 186.359 214.127L187.703 215.942ZM191.939 208.881C191.538 209.358 191.6 210.07 192.077 210.472C192.554 210.873 193.266 210.812 193.668 210.335L191.939 208.881ZM198.464 202.986C198.776 202.446 198.59 201.756 198.05 201.444C197.51 201.133 196.82 201.318 196.508 201.858L198.464 202.986ZM201.128 193.848C200.816 194.389 201.002 195.079 201.542 195.391C202.082 195.702 202.772 195.517 203.084 194.977L201.128 193.848ZM207.704 186.967C208.016 186.427 207.83 185.736 207.29 185.425C206.75 185.113 206.06 185.299 205.748 185.839L207.704 186.967ZM210.368 177.829C210.057 178.369 210.242 179.06 210.782 179.371C211.322 179.683 212.013 179.498 212.324 178.957L210.368 177.829ZM216.944 170.948C217.256 170.408 217.07 169.717 216.53 169.406C215.99 169.094 215.3 169.279 214.988 169.82L216.944 170.948ZM219.608 161.81C219.297 162.35 219.482 163.04 220.022 163.352C220.562 163.664 221.253 163.478 221.564 162.938L219.608 161.81ZM226.184 154.928C226.496 154.388 226.31 153.698 225.77 153.386C225.23 153.075 224.54 153.26 224.228 153.8L226.184 154.928ZM228.848 145.791C228.537 146.331 228.722 147.021 229.262 147.333C229.802 147.644 230.493 147.459 230.804 146.919L228.848 145.791ZM235.424 138.909C235.736 138.369 235.551 137.679 235.01 137.367C234.47 137.056 233.78 137.241 233.468 137.781L235.424 138.909ZM238.088 129.771C237.777 130.311 237.962 131.002 238.502 131.313C239.042 131.625 239.733 131.44 240.044 130.9L238.088 129.771ZM244.006 123.086C244.22 122.5 243.918 121.852 243.332 121.638C242.746 121.425 242.098 121.726 241.885 122.312L244.006 123.086ZM243.648 114.882C243.576 115.502 244.019 116.063 244.638 116.135C245.258 116.208 245.819 115.764 245.891 115.145L243.648 114.882ZM245.891 106.984C245.819 106.364 245.258 105.921 244.638 105.993C244.019 106.066 243.576 106.627 243.648 107.246L245.891 106.984ZM241.885 99.8162C242.098 100.402 242.746 100.704 243.332 100.49C243.918 100.277 244.22 99.6286 244.006 99.0428L241.885 99.8162ZM227.829 128.079C227.518 128.619 227.703 129.309 228.244 129.62C228.784 129.932 229.474 129.746 229.786 129.206L227.829 128.079ZM225.572 136.52C225.883 135.98 225.697 135.29 225.157 134.978C224.617 134.667 223.926 134.853 223.615 135.393L225.572 136.52ZM219.402 142.707C219.09 143.248 219.276 143.938 219.816 144.249C220.357 144.561 221.047 144.375 221.358 143.835L219.402 142.707ZM217.144 151.149C217.456 150.609 217.27 149.918 216.73 149.607C216.189 149.296 215.499 149.482 215.188 150.022L217.144 151.149ZM210.974 157.336C210.663 157.877 210.849 158.567 211.389 158.878C211.929 159.189 212.619 159.004 212.931 158.463L210.974 157.336ZM208.717 165.778C209.028 165.237 208.843 164.547 208.302 164.236C207.762 163.925 207.072 164.11 206.76 164.651L208.717 165.778ZM202.547 171.965C202.235 172.505 202.421 173.196 202.961 173.507C203.502 173.818 204.192 173.632 204.503 173.092L202.547 171.965ZM200.29 180.407C200.601 179.866 200.415 179.176 199.875 178.865C199.335 178.553 198.644 178.739 198.333 179.279L200.29 180.407ZM194.119 186.594C193.808 187.134 193.994 187.824 194.534 188.136C195.074 188.447 195.765 188.261 196.076 187.721L194.119 186.594ZM191.862 195.035C192.173 194.495 191.988 193.805 191.447 193.493C190.907 193.182 190.217 193.368 189.906 193.908L191.862 195.035ZM185.762 200.302C185.362 200.781 185.425 201.493 185.904 201.893C186.382 202.293 187.094 202.229 187.494 201.751L185.762 200.302ZM182.071 206.882C182.571 206.509 182.674 205.801 182.301 205.302C181.928 204.802 181.22 204.699 180.721 205.072L182.071 206.882ZM174.715 208.546C174.143 208.794 173.879 209.458 174.126 210.031C174.374 210.603 175.038 210.867 175.611 210.619L174.715 208.546ZM168.462 212.761C169.076 212.652 169.487 212.067 169.378 211.453C169.27 210.839 168.685 210.429 168.071 210.537L168.462 212.761ZM160.463 210.937C159.84 210.937 159.334 211.442 159.334 212.066C159.334 212.689 159.84 213.195 160.463 213.195V210.937ZM152.02 213.195C152.643 213.195 153.149 212.689 153.149 212.066C153.149 211.442 152.643 210.937 152.02 210.937V213.195ZM143.577 210.937C142.953 210.937 142.447 211.442 142.447 212.066C142.447 212.689 142.953 213.195 143.577 213.195V210.937ZM135.133 213.195C135.757 213.195 136.262 212.689 136.262 212.066C136.262 211.442 135.757 210.937 135.133 210.937V213.195ZM126.69 210.937C126.066 210.937 125.561 211.442 125.561 212.066C125.561 212.689 126.066 213.195 126.69 213.195V210.937ZM118.246 213.195C118.87 213.195 119.375 212.689 119.375 212.066C119.375 211.442 118.87 210.937 118.246 210.937V213.195ZM109.803 210.937C109.179 210.937 108.674 211.442 108.674 212.066C108.674 212.689 109.179 213.195 109.803 213.195V210.937ZM101.359 213.195C101.983 213.195 102.489 212.689 102.489 212.066C102.489 211.442 101.983 210.937 101.359 210.937V213.195ZM92.9161 210.937C92.2925 210.937 91.787 211.442 91.787 212.066C91.787 212.689 92.2925 213.195 92.9161 213.195V210.937ZM84.4727 213.195C85.0962 213.195 85.6017 212.689 85.6017 212.066C85.6017 211.442 85.0962 210.937 84.4727 210.937V213.195ZM76.8618 210.537C76.2477 210.429 75.6623 210.839 75.5542 211.453C75.4462 212.067 75.8564 212.653 76.4706 212.761L76.8618 210.537ZM69.3157 210.62C69.8882 210.867 70.5526 210.603 70.7996 210.03C71.0466 209.458 70.7828 208.793 70.2103 208.546L69.3157 210.62ZM64.1968 205.072C63.6968 204.699 62.9894 204.803 62.6168 205.303C62.2442 205.803 62.3475 206.51 62.8475 206.883L64.1968 205.072ZM57.4158 201.752C57.8162 202.23 58.5283 202.293 59.0063 201.892C59.4842 201.492 59.547 200.78 59.1465 200.302L57.4158 201.752ZM54.9984 193.908C54.6872 193.368 53.9968 193.182 53.4565 193.493C52.9162 193.805 52.7305 194.495 53.0418 195.035L54.9984 193.908ZM48.8281 187.721C49.1394 188.261 49.8297 188.447 50.37 188.136C50.9103 187.824 51.096 187.134 50.7847 186.594L48.8281 187.721ZM46.571 179.279C46.2598 178.739 45.5694 178.553 45.0291 178.865C44.4888 179.176 44.3031 179.866 44.6144 180.407L46.571 179.279ZM40.4007 173.092C40.712 173.632 41.4023 173.818 41.9426 173.507C42.4829 173.196 42.6686 172.505 42.3573 171.965L40.4007 173.092ZM38.1436 164.651C37.8323 164.11 37.142 163.925 36.6017 164.236C36.0614 164.547 35.8757 165.237 36.187 165.778L38.1436 164.651ZM31.9733 158.463C32.2845 159.004 32.9749 159.189 33.5152 158.878C34.0555 158.567 34.2412 157.877 33.9299 157.336L31.9733 158.463ZM29.7162 150.022C29.4049 149.482 28.7146 149.296 28.1743 149.607C27.634 149.918 27.4483 150.609 27.7596 151.149L29.7162 150.022ZM23.5459 143.835C23.8571 144.375 24.5475 144.561 25.0878 144.249C25.6281 143.938 25.8138 143.248 25.5025 142.707L23.5459 143.835ZM21.2888 135.393C20.9775 134.853 20.2872 134.667 19.7469 134.978C19.2066 135.29 19.0209 135.98 19.3322 136.52L21.2888 135.393ZM15.1185 129.206C15.4297 129.746 16.1201 129.932 16.6604 129.62C17.2007 129.309 17.3863 128.619 17.0751 128.079L15.1185 129.206ZM13.606 121.279C13.391 120.694 12.7423 120.393 12.157 120.608C11.5716 120.823 11.2713 121.472 11.4863 122.057L13.606 121.279ZM9.74611 114.776C9.81907 115.395 10.3802 115.838 10.9995 115.765C11.6188 115.692 12.0616 115.131 11.9887 114.511L9.74611 114.776ZM11.9887 107.553C12.0616 106.934 11.6188 106.373 10.9995 106.3C10.3802 106.227 9.81907 106.67 9.74611 107.289L11.9887 107.553ZM11.4863 100.007C11.2713 100.592 11.5716 101.241 12.157 101.456C12.7423 101.671 13.391 101.371 13.606 100.785L11.4863 100.007ZM17.075 93.9876C17.3863 93.4473 17.2008 92.757 16.6606 92.4456C16.1203 92.1342 15.4299 92.3198 15.1186 92.86L17.075 93.9876ZM19.3323 85.5488C19.0209 86.0891 19.2065 86.7794 19.7467 87.0908C20.287 87.4022 20.9773 87.2166 21.2887 86.6764L19.3323 85.5488ZM25.5024 79.3652C25.8138 78.8249 25.6282 78.1346 25.088 77.8232C24.5477 77.5118 23.8574 77.6974 23.546 78.2376L25.5024 79.3652ZM27.7597 70.9264C27.4483 71.4667 27.6339 72.157 28.1741 72.4684C28.7144 72.7798 29.4047 72.5942 29.7161 72.054L27.7597 70.9264ZM33.9298 64.7428C34.2412 64.2025 34.0556 63.5122 33.5154 63.2008C32.9751 62.8894 32.2848 63.075 31.9734 63.6152L33.9298 64.7428ZM36.1871 56.304C35.8757 56.8443 36.0613 57.5346 36.6015 57.846C37.1418 58.1574 37.8321 57.9718 38.1435 57.4316L36.1871 56.304ZM42.3572 50.1204C42.6686 49.5801 42.483 48.8898 41.9428 48.5784C41.4025 48.267 40.7122 48.4526 40.4008 48.9928L42.3572 50.1204ZM44.6145 41.6816C44.3031 42.2219 44.4887 42.9122 45.0289 43.2236C45.5692 43.535 46.2595 43.3494 46.5709 42.8092L44.6145 41.6816ZM50.7846 35.498C51.096 34.9577 50.9104 34.2674 50.3702 33.956C49.8299 33.6446 49.1396 33.8302 48.8282 34.3704L50.7846 35.498ZM53.0419 27.0592C52.7305 27.5995 52.9161 28.2898 53.4563 28.6012C53.9966 28.9126 54.6869 28.727 54.9983 28.1868L53.0419 27.0592ZM59.142 21.7805C59.5409 21.3013 59.4759 20.5894 58.9966 20.1904C58.5174 19.7915 57.8055 19.8566 57.4066 20.3358L59.142 21.7805ZM62.8319 15.1824C62.3328 15.5562 62.2312 16.2638 62.605 16.7629C62.9788 17.262 63.6864 17.3635 64.1855 16.9898L62.8319 15.1824ZM70.1999 13.499C70.7721 13.251 71.0349 12.5862 70.787 12.0141C70.539 11.4419 69.8742 11.1791 69.3021 11.4271L70.1999 13.499ZM76.4649 9.2745C75.8509 9.38302 75.4411 9.96877 75.5496 10.5828C75.6581 11.1968 76.2439 11.6066 76.8579 11.4981L76.4649 9.2745ZM84.4695 11.0956C85.093 11.0956 85.5985 10.5901 85.5985 9.96655C85.5985 9.343 85.093 8.83752 84.4695 8.83752V11.0956ZM92.9065 8.83752C92.2829 8.83752 91.7775 9.343 91.7775 9.96655C91.7775 10.5901 92.2829 11.0956 92.9065 11.0956V8.83752ZM101.343 11.0956C101.967 11.0956 102.473 10.5901 102.473 9.96655C102.473 9.343 101.967 8.83752 101.343 8.83752V11.0956ZM109.78 8.83752C109.157 8.83752 108.651 9.343 108.651 9.96655C108.651 10.5901 109.157 11.0956 109.78 11.0956V8.83752ZM118.217 11.0956C118.841 11.0956 119.347 10.5901 119.347 9.96655C119.347 9.343 118.841 8.83752 118.217 8.83752V11.0956ZM126.655 8.83752C126.031 8.83752 125.525 9.343 125.525 9.96655C125.525 10.5901 126.031 11.0956 126.655 11.0956V8.83752ZM135.092 11.0956C135.715 11.0956 136.221 10.5901 136.221 9.96655C136.221 9.343 135.715 8.83752 135.092 8.83752V11.0956ZM143.529 8.83752C142.905 8.83752 142.399 9.343 142.399 9.96655C142.399 10.5901 142.905 11.0956 143.529 11.0956V8.83752ZM151.966 11.0956C152.589 11.0956 153.095 10.5901 153.095 9.96655C153.095 9.343 152.589 8.83752 151.966 8.83752V11.0956ZM160.403 8.83752C159.779 8.83752 159.273 9.343 159.273 9.96655C159.273 10.5901 159.779 11.0956 160.403 11.0956V8.83752ZM168.021 11.492C168.635 11.5995 169.221 11.1887 169.328 10.5744C169.435 9.96022 169.025 9.37519 168.41 9.26773L168.021 11.492ZM175.585 11.4134C175.013 11.166 174.348 11.4295 174.101 12.0018C173.854 12.5742 174.117 13.2388 174.69 13.4861L175.585 11.4134ZM180.713 16.9775C181.212 17.3512 181.92 17.2495 182.293 16.7503C182.667 16.2511 182.565 15.5435 182.066 15.1698L180.713 16.9775ZM187.497 20.331C187.099 19.8516 186.387 19.7861 185.907 20.1847C185.428 20.5834 185.363 21.2953 185.761 21.7747L187.497 20.331ZM189.906 28.1868C190.217 28.727 190.907 28.9126 191.448 28.6012C191.988 28.2898 192.173 27.5995 191.862 27.0592L189.906 28.1868ZM196.076 34.3704C195.764 33.8302 195.074 33.6446 194.534 33.956C193.994 34.2674 193.808 34.9577 194.119 35.498L196.076 34.3704ZM198.333 42.8092C198.644 43.3494 199.335 43.535 199.875 43.2236C200.415 42.9122 200.601 42.2219 200.289 41.6816L198.333 42.8092ZM204.503 48.9928C204.192 48.4526 203.501 48.267 202.961 48.5784C202.421 48.8898 202.235 49.5801 202.547 50.1204L204.503 48.9928ZM206.76 57.4316C207.072 57.9718 207.762 58.1574 208.302 57.846C208.843 57.5346 209.028 56.8443 208.717 56.304L206.76 57.4316ZM212.931 63.6152C212.619 63.075 211.929 62.8894 211.389 63.2008C210.848 63.5122 210.663 64.2025 210.974 64.7428L212.931 63.6152ZM215.188 72.054C215.499 72.5942 216.19 72.7798 216.73 72.4684C217.27 72.157 217.456 71.4667 217.144 70.9264L215.188 72.054ZM221.358 78.2376C221.047 77.6974 220.356 77.5118 219.816 77.8232C219.276 78.1346 219.09 78.8249 219.402 79.3652L221.358 78.2376ZM223.615 86.6764C223.927 87.2166 224.617 87.4022 225.157 87.0908C225.698 86.7794 225.883 86.0891 225.572 85.5488L223.615 86.6764ZM229.785 92.86C229.474 92.3198 228.784 92.1342 228.243 92.4456C227.703 92.757 227.518 93.4473 227.829 93.9876L229.785 92.86ZM231.277 100.785C231.489 101.371 232.136 101.675 232.723 101.463C233.309 101.25 233.612 100.603 233.4 100.017L231.277 100.785ZM235.115 107.294C235.043 106.675 234.483 106.231 233.863 106.303C233.244 106.375 232.8 106.935 232.872 107.555L235.115 107.294ZM232.872 114.51C232.8 115.129 233.244 115.69 233.863 115.762C234.483 115.834 235.043 115.39 235.115 114.77L232.872 114.51ZM233.4 122.048C233.612 121.461 233.309 120.814 232.723 120.602C232.136 120.39 231.489 120.693 231.277 121.279L233.4 122.048ZM242.227 95.203L239.924 91.1966L237.966 92.3222L240.27 96.3286L242.227 95.203ZM235.316 83.1838L230.709 75.1709L228.751 76.2965L233.359 84.3093L235.316 83.1838ZM226.102 67.1581L221.495 59.1452L219.537 60.2708L224.144 68.2836L226.102 67.1581ZM216.887 51.1324L212.28 43.1195L210.323 44.2451L214.93 52.2579L216.887 51.1324ZM207.673 35.1067L203.066 27.0939L201.108 28.2194L205.715 36.2323L207.673 35.1067ZM198.458 19.081L196.155 15.0746L194.197 16.2002L196.501 20.2066L198.458 19.081ZM196.121 15.0199C195.37 13.87 194.554 12.7684 193.678 11.72L191.945 13.1678C192.765 14.1485 193.528 15.179 194.231 16.2548L196.121 15.0199ZM187.721 6.0883C186.624 5.27249 185.478 4.51964 184.288 3.83461L183.162 5.79173C184.275 6.43249 185.347 7.13668 186.372 7.89978L187.721 6.0883ZM184.288 3.83461C183.098 3.14983 181.872 2.53764 180.617 2.00002L179.728 4.07574C180.902 4.57859 182.049 5.15121 183.162 5.79173L184.288 3.83461ZM172.758 -0.319708C171.412 -0.549946 170.05 -0.701556 168.679 -0.772541L168.562 1.4825C169.844 1.5489 171.118 1.6907 172.377 1.90604L172.758 -0.319708ZM168.62 -0.774052H164V1.48401H168.62V-0.774052ZM154.76 -0.774052H145.52V1.48401H154.76V-0.774052ZM136.28 -0.774052H127.04V1.48401H136.28V-0.774052ZM117.8 -0.774052H108.56V1.48401H117.8V-0.774052ZM99.3198 -0.774052H90.0797V1.48401H99.3198V-0.774052ZM80.8397 -0.774052H76.2196V1.48401H80.8397V-0.774052ZM76.1573 -0.772332C74.7929 -0.696925 73.4377 -0.541442 72.0983 -0.307882L72.4863 1.91661C73.7387 1.6982 75.006 1.55281 76.2819 1.48229L76.1573 -0.772332ZM64.2823 2.0251C63.0342 2.5638 61.8155 3.17652 60.6328 3.86126L61.7642 5.81542C62.8703 5.17506 64.01 4.60207 65.1771 4.09829L64.2823 2.0251ZM60.6328 3.86126C59.4497 4.54626 58.311 5.29852 57.2217 6.11322L58.5741 7.92146C59.5928 7.15954 60.6578 6.45603 61.7642 5.81542L60.6328 3.86126ZM51.3036 11.7322C50.4337 12.7775 49.6234 13.8756 48.8777 15.0216L50.7703 16.2531C51.4678 15.1813 52.2257 14.1543 53.0393 13.1766L51.3036 11.7322ZM48.846 15.0733L46.536 19.0781L48.492 20.2063L50.802 16.2015L48.846 15.0733ZM41.916 27.0877L37.2959 35.0974L39.2519 36.2256L43.8719 28.216L41.916 27.0877ZM32.6759 43.107L28.0558 51.1166L30.0118 52.2449L34.6319 44.2352L32.6759 43.107ZM23.4358 59.1263L18.8158 67.1359L20.7718 68.2642L25.3918 60.2545L23.4358 59.1263ZM14.1957 75.1456L9.57569 83.1552L11.5317 84.2834L16.1517 76.2738L14.1957 75.1456ZM4.95566 91.1648L2.64564 95.1697L4.60164 96.2979L6.91166 92.2931L4.95566 91.1648ZM2.61508 95.2263C2.00059 96.4476 1.45959 97.7006 0.99368 98.9787L3.11517 99.7521C3.5511 98.5563 4.05728 97.3839 4.63221 96.2412L2.61508 95.2263ZM-0.891052 106.919C-1.04917 108.27 -1.12903 109.633 -1.12903 111H1.12903C1.12903 109.721 1.20375 108.446 1.3517 107.182L-0.891052 106.919ZM-1.12903 111C-1.12903 112.367 -1.04917 113.73 -0.891052 115.081L1.3517 114.818C1.20375 113.554 1.12903 112.279 1.12903 111H-1.12903ZM0.99368 123.022C1.45959 124.3 2.00059 125.553 2.61508 126.774L4.63221 125.759C4.05727 124.616 3.5511 123.444 3.11517 122.248L0.99368 123.022ZM2.64564 126.831L4.95566 130.835L6.91166 129.707L4.60164 125.702L2.64564 126.831ZM9.5757 138.845L14.1957 146.855L16.1517 145.727L11.5317 137.717L9.5757 138.845ZM18.8158 154.864L23.4358 162.874L25.3918 161.746L20.7718 153.736L18.8158 154.864ZM28.0558 170.884L32.6759 178.893L34.6319 177.765L30.0118 169.755L28.0558 170.884ZM37.2959 186.903L41.9159 194.913L43.8719 193.784L39.2519 185.775L37.2959 186.903ZM46.536 202.922L48.846 206.927L50.802 205.799L48.492 201.794L46.536 202.922ZM48.8783 206.98C49.6249 208.125 50.436 209.222 51.3065 210.266L53.0411 208.821C52.2268 207.844 51.4681 206.817 50.7697 205.746L48.8783 206.98ZM57.226 215.881C58.3153 216.696 59.4538 217.447 60.6367 218.132L61.7681 216.178C60.6618 215.538 59.5968 214.834 58.578 214.073L57.226 215.881ZM60.6367 218.132C61.8191 218.817 63.0375 219.43 64.2852 219.969L65.1805 217.896C64.0136 217.392 62.874 216.818 61.7681 216.178L60.6367 218.132ZM72.0985 222.305C73.4374 222.539 74.7922 222.696 76.1562 222.773L76.283 220.518C75.0073 220.446 73.7402 220.3 72.488 220.081L72.0985 222.305ZM76.2196 222.774H80.8397V220.516H76.2196V222.774ZM90.0797 222.774H99.3198V220.516H90.0797V222.774ZM108.56 222.774H117.8V220.516H108.56V222.774ZM127.04 222.774H136.28V220.516H127.04V222.774ZM145.52 222.774H154.76V220.516H145.52V222.774ZM164 222.774H168.62V220.516H164V222.774ZM168.679 222.773C170.048 222.702 171.408 222.55 172.752 222.321L172.372 220.095C171.115 220.31 169.842 220.451 168.562 220.518L168.679 222.773ZM180.602 220.011C181.856 219.476 183.081 218.867 184.271 218.185L183.148 216.226C182.035 216.863 180.889 217.434 179.716 217.934L180.602 220.011ZM184.271 218.185C185.461 217.503 186.606 216.754 187.703 215.942L186.359 214.127C185.333 214.887 184.261 215.588 183.148 216.226L184.271 218.185ZM193.668 210.335C194.546 209.291 195.365 208.193 196.119 207.048L194.233 205.806C193.527 206.878 192.761 207.904 191.939 208.881L193.668 210.335ZM196.154 206.991L198.464 202.986L196.508 201.858L194.198 205.863L196.154 206.991ZM203.084 194.977L207.704 186.967L205.748 185.839L201.128 193.848L203.084 194.977ZM212.324 178.957L216.944 170.948L214.988 169.82L210.368 177.829L212.324 178.957ZM221.564 162.938L226.184 154.928L224.228 153.8L219.608 161.81L221.564 162.938ZM230.804 146.919L235.424 138.909L233.468 137.781L228.848 145.791L230.804 146.919ZM240.044 130.9L242.354 126.895L240.398 125.766L238.088 129.771L240.044 130.9ZM242.385 126.838C242.999 125.617 243.54 124.364 244.006 123.086L241.885 122.312C241.449 123.508 240.943 124.68 240.368 125.823L242.385 126.838ZM245.891 115.145C246.049 113.794 246.129 112.431 246.129 111.064H243.871C243.871 112.344 243.796 113.618 243.648 114.882L245.891 115.145ZM246.129 111.064C246.129 109.697 246.049 108.335 245.891 106.984L243.648 107.246C243.796 108.51 243.871 109.785 243.871 111.064H246.129ZM244.006 99.0428C243.54 97.7647 242.999 96.5117 242.385 95.2904L240.368 96.3053C240.943 97.448 241.449 98.6204 241.885 99.8162L244.006 99.0428ZM229.936 124.421L227.829 128.079L229.786 129.206L231.892 125.549L229.936 124.421ZM223.615 135.393L219.402 142.707L221.358 143.835L225.572 136.52L223.615 135.393ZM215.188 150.022L210.974 157.336L212.931 158.463L217.144 151.149L215.188 150.022ZM206.76 164.651L202.547 171.965L204.503 173.092L208.717 165.778L206.76 164.651ZM198.333 179.279L194.119 186.594L196.076 187.721L200.29 180.407L198.333 179.279ZM189.906 193.908L187.799 197.565L189.755 198.693L191.862 195.035L189.906 193.908ZM187.833 197.51C187.195 198.483 186.504 199.415 185.762 200.302L187.494 201.751C188.292 200.796 189.036 199.794 189.721 198.748L187.833 197.51ZM180.721 205.072C179.794 205.764 178.825 206.403 177.818 206.985L178.949 208.94C180.032 208.313 181.074 207.626 182.071 206.882L180.721 205.072ZM177.818 206.985C176.813 207.567 175.776 208.088 174.715 208.546L175.611 210.619C176.752 210.126 177.867 209.566 178.949 208.94L177.818 206.985ZM168.071 210.537C166.932 210.737 165.78 210.872 164.62 210.939L164.75 213.193C165.998 213.121 167.237 212.976 168.462 212.761L168.071 210.537ZM164.685 210.937H160.463V213.195H164.685V210.937ZM152.02 210.937H143.577V213.195H152.02V210.937ZM135.133 210.937H126.69V213.195H135.133V210.937ZM118.246 210.937H109.803V213.195H118.246V210.937ZM101.359 210.937H92.9161V213.195H101.359V210.937ZM84.4727 210.937H80.251V213.195H84.4727V210.937ZM80.3159 210.939C79.1547 210.872 78.0015 210.737 76.8618 210.537L76.4706 212.761C77.6965 212.976 78.937 213.121 80.1861 213.193L80.3159 210.939ZM70.2103 208.546C69.1478 208.088 68.1102 207.567 67.103 206.985L65.9734 208.94C67.0568 209.566 68.1729 210.127 69.3157 210.62L70.2103 208.546ZM67.103 206.985C66.0954 206.403 65.1252 205.764 64.1968 205.072L62.8475 206.883C63.8461 207.627 64.8896 208.314 65.9734 208.94L67.103 206.985ZM59.1465 200.302C58.4029 199.414 57.7096 198.482 57.0707 197.509L55.1832 198.749C55.8703 199.795 56.616 200.798 57.4158 201.752L59.1465 200.302ZM57.1053 197.565L54.9984 193.908L53.0418 195.035L55.1487 198.693L57.1053 197.565ZM50.7847 186.594L46.571 179.279L44.6144 180.407L48.8281 187.721L50.7847 186.594ZM42.3573 171.965L38.1436 164.651L36.187 165.778L40.4007 173.092L42.3573 171.965ZM33.9299 157.336L29.7162 150.022L27.7596 151.149L31.9733 158.463L33.9299 157.336ZM25.5025 142.707L21.2888 135.393L19.3322 136.52L23.5459 143.835L25.5025 142.707ZM17.0751 128.079L14.9682 124.421L13.0116 125.549L15.1185 129.206L17.0751 128.079ZM14.9969 124.474C14.4698 123.435 14.0057 122.368 13.606 121.279L11.4863 122.057C11.9164 123.229 12.4158 124.377 12.9829 125.496L14.9969 124.474ZM11.9887 114.511C11.853 113.36 11.7844 112.198 11.7844 111.032H9.52636C9.52636 112.286 9.60011 113.536 9.74611 114.776L11.9887 114.511ZM11.7844 111.032C11.7844 109.866 11.853 108.705 11.9887 107.553L9.74611 107.289C9.60011 108.528 9.52636 109.778 9.52636 111.032H11.7844ZM13.606 100.785C14.0057 99.6967 14.4698 98.6296 14.9969 97.59L12.9829 96.5688C12.4158 97.6875 11.9164 98.8357 11.4863 100.007L13.606 100.785ZM14.9681 97.6432L17.075 93.9876L15.1186 92.86L13.0117 96.5156L14.9681 97.6432ZM21.2887 86.6764L25.5024 79.3652L23.546 78.2376L19.3323 85.5488L21.2887 86.6764ZM29.7161 72.054L33.9298 64.7428L31.9734 63.6152L27.7597 70.9264L29.7161 72.054ZM38.1435 57.4316L42.3572 50.1204L40.4008 48.9928L36.1871 56.304L38.1435 57.4316ZM46.5709 42.8092L50.7846 35.498L48.8282 34.3704L44.6145 41.6816L46.5709 42.8092ZM54.9983 28.1868L57.1052 24.5312L55.1488 23.4036L53.0419 27.0592L54.9983 28.1868ZM57.0729 24.5837C57.7092 23.6072 58.4003 22.6715 59.142 21.7805L57.4066 20.3358C56.6087 21.2942 55.8653 22.3007 55.181 23.3511L57.0729 24.5837ZM64.1855 16.9898C65.1135 16.2947 66.0835 15.6527 67.0913 15.0678L65.9579 13.1149C64.8737 13.7441 63.8302 14.4347 62.8319 15.1824L64.1855 16.9898ZM67.0913 15.0678C68.0987 14.4832 69.1368 13.9596 70.1999 13.499L69.3021 11.4271C68.1584 11.9227 67.0416 12.4859 65.9579 13.1149L67.0913 15.0678ZM76.8579 11.4981C77.9989 11.2965 79.1536 11.1611 80.3163 11.0937L80.1856 8.83941C78.9348 8.91191 77.6925 9.05755 76.4649 9.2745L76.8579 11.4981ZM80.251 11.0956H84.4695V8.83752H80.251V11.0956ZM92.9065 11.0956H101.343V8.83752H92.9065V11.0956ZM109.78 11.0956H118.217V8.83752H109.78V11.0956ZM126.655 11.0956H135.092V8.83752H126.655V11.0956ZM143.529 11.0956H151.966V8.83752H143.529V11.0956ZM160.403 11.0956H164.621V8.83752H160.403V11.0956ZM164.558 11.0938C165.722 11.1588 166.879 11.2921 168.021 11.492L168.41 9.26773C167.181 9.05264 165.937 8.9092 164.684 8.83927L164.558 11.0938ZM174.69 13.4861C175.754 13.9463 176.794 14.4697 177.803 15.0545L178.935 13.1008C177.85 12.4716 176.731 11.9086 175.585 11.4134L174.69 13.4861ZM177.803 15.0545C178.812 15.6395 179.784 16.2818 180.713 16.9775L182.066 15.1698C181.066 14.4214 180.021 13.7302 178.935 13.1008L177.803 15.0545ZM185.761 21.7747C186.503 22.6671 187.194 23.6045 187.83 24.5828L189.724 23.352C189.039 22.2996 188.296 21.2911 187.497 20.331L185.761 21.7747ZM187.799 24.5312L189.906 28.1868L191.862 27.0592L189.755 23.4036L187.799 24.5312ZM194.119 35.498L198.333 42.8092L200.289 41.6816L196.076 34.3704L194.119 35.498ZM202.547 50.1204L206.76 57.4316L208.717 56.304L204.503 48.9928L202.547 50.1204ZM210.974 64.7428L215.188 72.054L217.144 70.9264L212.931 63.6152L210.974 64.7428ZM219.402 79.3652L223.615 86.6764L225.572 85.5488L221.358 78.2376L219.402 79.3652ZM227.829 93.9876L229.936 97.6432L231.892 96.5156L229.785 92.86L227.829 93.9876ZM229.904 97.5837C230.424 98.626 230.882 99.695 231.277 100.785L233.4 100.017C232.976 98.8448 232.484 97.6956 231.924 96.5751L229.904 97.5837ZM232.872 107.555C233.006 108.706 233.074 109.867 233.074 111.032H235.332C235.332 109.78 235.259 108.532 235.115 107.294L232.872 107.555ZM233.074 111.032C233.074 112.197 233.006 113.358 232.872 114.51L235.115 114.77C235.259 113.533 235.332 112.285 235.332 111.032H233.074ZM231.277 121.279C230.882 122.369 230.424 123.438 229.904 124.481L231.924 125.489C232.484 124.369 232.976 123.22 233.4 122.048L231.277 121.279ZM232.871 126.112C233.493 125.032 233.122 123.651 232.041 123.028C230.961 122.406 229.58 122.777 228.957 123.858L232.871 126.112ZM188.777 198.129L190.666 199.366L190.701 199.312L190.734 199.256L188.777 198.129ZM178.384 207.962L177.253 206.008L178.384 207.962ZM164.685 212.066V214.324H164.75L164.815 214.32L164.685 212.066ZM80.251 212.066L80.1211 214.32L80.186 214.324H80.251V212.066ZM66.5382 207.963L65.4086 209.918L66.5382 207.963ZM56.127 198.129L54.1703 199.256L54.2033 199.313L54.2395 199.368L56.127 198.129ZM13.9899 124.985L11.9759 126.006L12.0032 126.06L12.0333 126.112L13.9899 124.985ZM13.9899 97.0794L12.0335 95.9519L12.0033 96.0043L11.9759 96.0583L13.9899 97.0794ZM56.127 23.9674L54.235 22.7347L54.2014 22.7864L54.1706 22.8399L56.127 23.9674ZM66.5246 14.0914L67.6581 16.0443L66.5246 14.0914ZM80.251 9.96655V7.70848H80.1856L80.1203 7.71227L80.251 9.96655ZM164.621 9.96655L164.747 7.71199L164.684 7.70848H164.621V9.96655ZM188.777 23.9674L190.733 22.8399L190.703 22.7874L190.67 22.7366L188.777 23.9674ZM230.914 97.0794L232.934 96.0709L232.904 96.0104L232.87 95.9519L230.914 97.0794ZM228.894 123.976C228.337 125.092 228.79 126.448 229.906 127.005C231.021 127.562 232.377 127.109 232.934 125.994L228.894 123.976ZM239.291 96.8914C239.912 97.9725 241.293 98.345 242.374 97.7234C243.455 97.1017 243.828 95.7214 243.206 94.6403L239.291 96.8914ZM195.176 15.6374L197.134 14.5118L197.102 14.4562L197.066 14.4025L195.176 15.6374ZM183.725 4.81317L184.851 2.85605L183.725 4.81317ZM168.62 0.35498L168.737 -1.90006L168.679 -1.90308H168.62V0.35498ZM76.2196 0.35498V-1.90308H76.1573L76.095 -1.89964L76.2196 0.35498ZM49.824 15.6374L47.9313 14.4058L47.8983 14.4566L47.868 14.5091L49.824 15.6374ZM3.62364 95.7338L1.66764 94.6055L1.63546 94.6613L1.60651 94.7189L3.62364 95.7338ZM0 111H-2.25806H0ZM3.62364 126.267L1.60651 127.281L1.63546 127.339L1.66764 127.395L3.62364 126.267ZM49.824 206.363L47.868 207.491L47.8988 207.545L47.9325 207.596L49.824 206.363ZM61.2024 217.155L60.071 219.109L61.2024 217.155ZM76.2196 221.645L76.0929 223.9L76.1562 223.903H76.2196V221.645ZM168.62 221.645V223.903H168.679L168.737 223.9L168.62 221.645ZM183.709 217.205L182.587 215.246L183.709 217.205ZM195.176 206.427L197.062 207.669L197.099 207.613L197.132 207.555L195.176 206.427ZM241.376 126.331L243.332 127.459L243.365 127.403L243.393 127.346L241.376 126.331ZM243.393 94.7829C242.833 93.6689 241.475 93.2202 240.361 93.7807C239.247 94.3412 238.799 95.6987 239.359 96.8128L243.393 94.7829ZM240.902 90.6338C240.281 89.5527 238.9 89.1802 237.819 89.8018C236.738 90.4235 236.366 91.8038 236.987 92.8849L240.902 90.6338ZM232.38 84.8721C233.002 85.9532 234.382 86.3257 235.463 85.7041C236.544 85.0825 236.917 83.7021 236.295 82.621L232.38 84.8721ZM231.688 74.6082C231.066 73.527 229.686 73.1545 228.605 73.7762C227.524 74.3978 227.151 75.7781 227.773 76.8593L231.688 74.6082ZM223.165 68.8464C223.787 69.9275 225.167 70.3 226.249 69.6784C227.33 69.0568 227.702 67.6764 227.081 66.5953L223.165 68.8464ZM222.473 58.5825C221.852 57.5013 220.471 57.1288 219.39 57.7505C218.309 58.3721 217.937 59.7524 218.558 60.8336L222.473 58.5825ZM213.951 52.8207C214.573 53.9018 215.953 54.2743 217.034 53.6527C218.115 53.0311 218.488 51.6507 217.866 50.5696L213.951 52.8207ZM213.259 42.5568C212.637 41.4757 211.257 41.1032 210.176 41.7248C209.095 42.3464 208.722 43.7268 209.344 44.8079L213.259 42.5568ZM204.737 36.795C205.358 37.8762 206.738 38.2486 207.82 37.627C208.901 37.0054 209.273 35.625 208.652 34.5439L204.737 36.795ZM204.044 26.5311C203.423 25.45 202.042 25.0775 200.961 25.6991C199.88 26.3207 199.508 27.7011 200.129 28.7822L204.044 26.5311ZM195.522 20.7694C196.144 21.8505 197.524 22.223 198.605 21.6013C199.686 20.9797 200.059 19.5994 199.437 18.5182L195.522 20.7694ZM194.544 10.9961C193.745 10.039 192.321 9.91144 191.364 10.711C190.407 11.5106 190.279 12.9347 191.079 13.8917L194.544 10.9961ZM185.698 8.80552C186.699 9.55006 188.113 9.3426 188.858 8.34214C189.602 7.34169 189.395 5.92709 188.395 5.18256L185.698 8.80552ZM181.061 0.962161C179.915 0.471204 178.588 1.00254 178.097 2.14892C177.606 3.29531 178.137 4.62264 179.283 5.1136L181.061 0.962161ZM172.187 3.01891C173.416 3.22915 174.583 2.40308 174.793 1.17383C175.004 -0.0554163 174.177 -1.22235 172.948 -1.43258L172.187 3.01891ZM164 -1.90308C162.753 -1.90308 161.742 -0.892114 161.742 0.35498C161.742 1.60208 162.753 2.61304 164 2.61304V-1.90308ZM154.76 2.61304C156.007 2.61304 157.018 1.60208 157.018 0.35498C157.018 -0.892114 156.007 -1.90308 154.76 -1.90308V2.61304ZM145.52 -1.90308C144.273 -1.90308 143.262 -0.892114 143.262 0.35498C143.262 1.60208 144.273 2.61304 145.52 2.61304V-1.90308ZM136.28 2.61304C137.527 2.61304 138.538 1.60208 138.538 0.35498C138.538 -0.892114 137.527 -1.90308 136.28 -1.90308V2.61304ZM127.04 -1.90308C125.793 -1.90308 124.782 -0.892114 124.782 0.35498C124.782 1.60208 125.793 2.61304 127.04 2.61304V-1.90308ZM117.8 2.61304C119.047 2.61304 120.058 1.60208 120.058 0.35498C120.058 -0.892114 119.047 -1.90308 117.8 -1.90308V2.61304ZM108.56 -1.90308C107.313 -1.90308 106.302 -0.892114 106.302 0.35498C106.302 1.60208 107.313 2.61304 108.56 2.61304V-1.90308ZM99.3198 2.61304C100.567 2.61304 101.578 1.60208 101.578 0.35498C101.578 -0.892114 100.567 -1.90308 99.3198 -1.90308V2.61304ZM90.0797 -1.90308C88.8326 -1.90308 87.8217 -0.892114 87.8217 0.35498C87.8217 1.60208 88.8326 2.61304 90.0797 2.61304V-1.90308ZM80.8397 2.61304C82.0868 2.61304 83.0977 1.60208 83.0977 0.35498C83.0977 -0.892114 82.0868 -1.90308 80.8397 -1.90308V2.61304ZM71.9044 -1.42013C70.6758 -1.20588 69.8536 -0.0362645 70.0678 1.19229C70.2821 2.42084 71.4517 3.2431 72.6802 3.02886L71.9044 -1.42013ZM65.6246 5.13489C66.7695 4.64069 67.2971 3.31186 66.8029 2.16687C66.3087 1.02187 64.9799 0.494302 63.8349 0.988504L65.6246 5.13489ZM56.5455 5.2091C55.5468 5.95604 55.3427 7.37113 56.0897 8.3698C56.8366 9.36846 58.2517 9.57252 59.2504 8.82559L56.5455 5.2091ZM53.9071 13.8988C54.7049 12.9402 54.5745 11.5164 53.6159 10.7187C52.6573 9.92097 51.2335 10.0514 50.4358 11.01L53.9071 13.8988ZM45.558 18.514C44.9349 19.5942 45.3055 20.9751 46.3857 21.5982C47.466 22.2213 48.8469 21.8507 49.47 20.7704L45.558 18.514ZM44.8499 28.7801C45.4731 27.6998 45.1025 26.3189 44.0222 25.6958C42.9419 25.0727 41.5611 25.4433 40.938 26.5236L44.8499 28.7801ZM36.3179 34.5332C35.6948 35.6135 36.0654 36.9944 37.1457 37.6175C38.2259 38.2406 39.6068 37.87 40.2299 36.7897L36.3179 34.5332ZM35.6099 44.7994C36.233 43.7191 35.8624 42.3382 34.7821 41.7151C33.7018 41.092 32.321 41.4626 31.6979 42.5429L35.6099 44.7994ZM27.0778 50.5525C26.4547 51.6328 26.8253 53.0136 27.9056 53.6368C28.9859 54.2599 30.3667 53.8893 30.9898 52.809L27.0778 50.5525ZM26.3698 60.8186C26.9929 59.7384 26.6223 58.3575 25.542 57.7344C24.4618 57.1113 23.0809 57.4819 22.4578 58.5622L26.3698 60.8186ZM17.8378 66.5718C17.2147 67.6521 17.5853 69.0329 18.6655 69.656C19.7458 70.2791 21.1267 69.9085 21.7498 68.8283L17.8378 66.5718ZM17.1297 76.8379C17.7528 75.7576 17.3822 74.3768 16.302 73.7537C15.2217 73.1306 13.8408 73.5012 13.2177 74.5814L17.1297 76.8379ZM8.59769 82.5911C7.97459 83.6713 8.34519 85.0522 9.42545 85.6753C10.5057 86.2984 11.8866 85.9278 12.5097 84.8476L8.59769 82.5911ZM7.88966 92.8572C8.51277 91.7769 8.14217 90.3961 7.0619 89.773C5.98163 89.1498 4.60077 89.5205 3.97766 90.6007L7.88966 92.8572ZM-0.0670648 98.592C-0.494197 99.7637 0.109368 101.06 1.28104 101.487C2.4527 101.914 3.74878 101.31 4.17592 100.139L-0.0670648 98.592ZM2.47308 107.313C2.61805 106.075 1.73146 104.953 0.492819 104.808C-0.745821 104.663 -1.86746 105.55 -2.01243 106.788L2.47308 107.313ZM-2.01243 115.212C-1.86746 116.451 -0.745821 117.337 0.492819 117.192C1.73146 117.047 2.61805 115.926 2.47308 114.687L-2.01243 115.212ZM4.17592 121.862C3.74878 120.69 2.4527 120.086 1.28103 120.513C0.109368 120.941 -0.494197 122.237 -0.0670652 123.408L4.17592 121.862ZM3.97766 131.4C4.60077 132.48 5.98163 132.85 7.0619 132.227C8.14217 131.604 8.51277 130.223 7.88966 129.143L3.97766 131.4ZM12.5097 137.153C11.8866 136.072 10.5057 135.702 9.42546 136.325C8.34519 136.948 7.97459 138.329 8.5977 139.409L12.5097 137.153ZM13.2177 147.419C13.8408 148.499 15.2217 148.87 16.302 148.247C17.3822 147.624 17.7528 146.243 17.1297 145.162L13.2177 147.419ZM21.7498 153.172C21.1267 152.092 19.7458 151.721 18.6655 152.344C17.5853 152.967 17.2147 154.348 17.8378 155.428L21.7498 153.172ZM22.4578 163.438C23.0809 164.518 24.4618 164.889 25.542 164.266C26.6223 163.643 26.9929 162.262 26.3698 161.182L22.4578 163.438ZM30.9898 169.191C30.3667 168.111 28.9859 167.74 27.9056 168.364C26.8253 168.987 26.4547 170.368 27.0778 171.448L30.9898 169.191ZM31.6979 179.457C32.321 180.538 33.7018 180.908 34.7821 180.285C35.8624 179.662 36.233 178.281 35.6099 177.201L31.6979 179.457ZM40.2299 185.211C39.6068 184.13 38.2259 183.76 37.1457 184.383C36.0654 185.006 35.6948 186.387 36.3179 187.467L40.2299 185.211ZM40.938 195.477C41.5611 196.557 42.9419 196.928 44.0222 196.304C45.1025 195.681 45.4731 194.3 44.8499 193.22L40.938 195.477ZM49.47 201.23C48.8469 200.15 47.466 199.779 46.3857 200.402C45.3055 201.025 44.9349 202.406 45.558 203.486L49.47 201.23ZM50.4391 210.989C51.2376 211.947 52.6614 212.077 53.6194 211.278C54.5774 210.48 54.7068 209.056 53.9084 208.098L50.4391 210.989ZM59.254 213.168C58.2552 212.422 56.8401 212.626 56.0934 213.625C55.3468 214.624 55.5512 216.039 56.55 216.786L59.254 213.168ZM63.8375 221.005C64.9824 221.499 66.3114 220.972 66.8058 219.827C67.3003 218.682 66.7731 217.354 65.6282 216.859L63.8375 221.005ZM72.6828 218.968C71.4544 218.753 70.2842 219.575 70.0691 220.803C69.8539 222.032 70.6753 223.202 71.9037 223.417L72.6828 218.968ZM80.8397 223.903C82.0868 223.903 83.0977 222.892 83.0977 221.645C83.0977 220.398 82.0868 219.387 80.8397 219.387V223.903ZM90.0797 219.387C88.8326 219.387 87.8217 220.398 87.8217 221.645C87.8217 222.892 88.8326 223.903 90.0797 223.903V219.387ZM99.3198 223.903C100.567 223.903 101.578 222.892 101.578 221.645C101.578 220.398 100.567 219.387 99.3198 219.387V223.903ZM108.56 219.387C107.313 219.387 106.302 220.398 106.302 221.645C106.302 222.892 107.313 223.903 108.56 223.903V219.387ZM117.8 223.903C119.047 223.903 120.058 222.892 120.058 221.645C120.058 220.398 119.047 219.387 117.8 219.387V223.903ZM127.04 219.387C125.793 219.387 124.782 220.398 124.782 221.645C124.782 222.892 125.793 223.903 127.04 223.903V219.387ZM136.28 223.903C137.527 223.903 138.538 222.892 138.538 221.645C138.538 220.398 137.527 219.387 136.28 219.387V223.903ZM145.52 219.387C144.273 219.387 143.262 220.398 143.262 221.645C143.262 222.892 144.273 223.903 145.52 223.903V219.387ZM154.76 223.903C156.007 223.903 157.018 222.892 157.018 221.645C157.018 220.398 156.007 219.387 154.76 219.387V223.903ZM164 219.387C162.753 219.387 161.742 220.398 161.742 221.645C161.742 222.892 162.753 223.903 164 223.903V219.387ZM172.942 223.434C174.172 223.224 174.998 222.058 174.788 220.828C174.578 219.599 173.412 218.772 172.182 218.982L172.942 223.434ZM179.273 216.896C178.126 217.385 177.592 218.712 178.082 219.859C178.571 221.006 179.898 221.539 181.045 221.05L179.273 216.896ZM188.375 216.849C189.377 216.107 189.588 214.693 188.846 213.69C188.103 212.688 186.689 212.477 185.687 213.22L188.375 216.849ZM191.075 208.154C190.273 209.109 190.396 210.533 191.35 211.336C192.304 212.139 193.729 212.016 194.532 211.061L191.075 208.154ZM199.442 203.55C200.065 202.47 199.694 201.089 198.614 200.466C197.534 199.843 196.153 200.214 195.53 201.294L199.442 203.55ZM200.15 193.284C199.527 194.365 199.898 195.745 200.978 196.369C202.058 196.992 203.439 196.621 204.062 195.541L200.15 193.284ZM208.682 187.531C209.305 186.451 208.935 185.07 207.854 184.447C206.774 183.824 205.393 184.194 204.77 185.275L208.682 187.531ZM209.39 177.265C208.767 178.345 209.138 179.726 210.218 180.349C211.298 180.972 212.679 180.602 213.302 179.521L209.39 177.265ZM217.922 171.512C218.545 170.432 218.175 169.051 217.094 168.428C216.014 167.805 214.633 168.175 214.01 169.255L217.922 171.512ZM218.63 161.246C218.007 162.326 218.378 163.707 219.458 164.33C220.538 164.953 221.919 164.582 222.542 163.502L218.63 161.246ZM227.162 155.493C227.785 154.412 227.415 153.031 226.334 152.408C225.254 151.785 223.873 152.156 223.25 153.236L227.162 155.493ZM227.87 145.226C227.247 146.307 227.618 147.688 228.698 148.311C229.778 148.934 231.159 148.563 231.782 147.483L227.87 145.226ZM236.402 139.473C237.025 138.393 236.655 137.012 235.575 136.389C234.494 135.766 233.113 136.137 232.49 137.217L236.402 139.473ZM237.11 129.207C236.487 130.287 236.858 131.668 237.938 132.291C239.018 132.915 240.399 132.544 241.022 131.464L237.11 129.207ZM245.067 123.472C245.494 122.301 244.891 121.005 243.719 120.577C242.547 120.15 241.251 120.754 240.824 121.926L245.067 123.472ZM242.527 114.751C242.382 115.99 243.269 117.111 244.507 117.256C245.746 117.401 246.867 116.515 247.012 115.276L242.527 114.751ZM247.012 106.852C246.867 105.614 245.746 104.727 244.507 104.872C243.269 105.017 242.382 106.139 242.527 107.377L247.012 106.852ZM240.824 100.203C241.251 101.375 242.547 101.978 243.719 101.551C244.891 101.124 245.494 99.8277 245.067 98.6561L240.824 100.203ZM226.851 127.515C226.228 128.596 226.599 129.976 227.68 130.599C228.761 131.221 230.141 130.85 230.764 129.769L226.851 127.515ZM226.55 137.084C227.173 136.003 226.801 134.622 225.721 134C224.64 133.377 223.259 133.749 222.637 134.829L226.55 137.084ZM218.423 142.144C217.801 143.224 218.172 144.605 219.253 145.228C220.333 145.85 221.714 145.479 222.336 144.398L218.423 142.144ZM218.123 151.713C218.745 150.632 218.374 149.251 217.293 148.629C216.213 148.006 214.832 148.378 214.209 149.458L218.123 151.713ZM209.996 156.773C209.373 157.853 209.745 159.234 210.825 159.856C211.906 160.479 213.286 160.108 213.909 159.027L209.996 156.773ZM209.695 166.341C210.318 165.261 209.946 163.88 208.866 163.258C207.785 162.635 206.405 163.006 205.782 164.087L209.695 166.341ZM201.568 171.401C200.946 172.482 201.317 173.863 202.398 174.485C203.478 175.108 204.859 174.736 205.482 173.656L201.568 171.401ZM201.268 180.97C201.89 179.89 201.519 178.509 200.438 177.886C199.358 177.264 197.977 177.635 197.355 178.716L201.268 180.97ZM193.141 186.03C192.518 187.111 192.89 188.492 193.97 189.114C195.051 189.737 196.432 189.365 197.054 188.285L193.141 186.03ZM192.84 195.599C193.463 194.518 193.092 193.138 192.011 192.515C190.93 191.893 189.55 192.264 188.927 193.345L192.84 195.599ZM184.896 199.578C184.096 200.535 184.223 201.959 185.179 202.759C186.136 203.559 187.56 203.432 188.36 202.475L184.896 199.578ZM182.746 207.787C183.746 207.041 183.951 205.626 183.205 204.626C182.46 203.627 181.045 203.421 180.045 204.167L182.746 207.787ZM174.267 207.51C173.122 208.004 172.595 209.333 173.09 210.478C173.584 211.623 174.913 212.15 176.058 211.656L174.267 207.51ZM168.658 213.873C169.886 213.656 170.707 212.485 170.49 211.257C170.274 210.029 169.103 209.209 167.875 209.425L168.658 213.873ZM160.463 209.808C159.216 209.808 158.205 210.819 158.205 212.066C158.205 213.313 159.216 214.324 160.463 214.324V209.808ZM152.02 214.324C153.267 214.324 154.278 213.313 154.278 212.066C154.278 210.819 153.267 209.808 152.02 209.808V214.324ZM143.577 209.808C142.329 209.808 141.318 210.819 141.318 212.066C141.318 213.313 142.329 214.324 143.577 214.324V209.808ZM135.133 214.324C136.38 214.324 137.391 213.313 137.391 212.066C137.391 210.819 136.38 209.808 135.133 209.808V214.324ZM126.69 209.808C125.443 209.808 124.432 210.819 124.432 212.066C124.432 213.313 125.443 214.324 126.69 214.324V209.808ZM118.246 214.324C119.493 214.324 120.504 213.313 120.504 212.066C120.504 210.819 119.493 209.808 118.246 209.808V214.324ZM109.803 209.808C108.556 209.808 107.545 210.819 107.545 212.066C107.545 213.313 108.556 214.324 109.803 214.324V209.808ZM101.359 214.324C102.607 214.324 103.618 213.313 103.618 212.066C103.618 210.819 102.607 209.808 101.359 209.808V214.324ZM92.9161 209.808C91.669 209.808 90.658 210.819 90.658 212.066C90.658 213.313 91.669 214.324 92.9161 214.324V209.808ZM84.4727 214.324C85.7198 214.324 86.7307 213.313 86.7307 212.066C86.7307 210.819 85.7198 209.808 84.4727 209.808V214.324ZM77.0575 209.425C75.8292 209.209 74.6584 210.029 74.4423 211.257C74.2262 212.486 75.0467 213.656 76.2749 213.873L77.0575 209.425ZM68.8684 211.656C70.0135 212.15 71.3422 211.623 71.8363 210.478C72.3303 209.332 71.8026 208.004 70.6575 207.51L68.8684 211.656ZM64.8714 204.167C63.8714 203.422 62.4567 203.628 61.7115 204.628C60.9663 205.628 61.1729 207.043 62.1729 207.788L64.8714 204.167ZM56.5504 202.477C57.3513 203.433 58.7755 203.559 59.7314 202.758C60.6873 201.957 60.8129 200.532 60.0119 199.577L56.5504 202.477ZM55.9767 193.345C55.3542 192.264 53.9735 191.893 52.8929 192.515C51.8123 193.138 51.441 194.518 52.0635 195.599L55.9767 193.345ZM47.8498 188.285C48.4723 189.365 49.853 189.737 50.9336 189.114C52.0142 188.492 52.3855 187.111 51.763 186.03L47.8498 188.285ZM47.5493 178.716C46.9268 177.635 45.5461 177.264 44.4655 177.886C43.3849 178.509 43.0136 179.89 43.6361 180.97L47.5493 178.716ZM39.4224 173.656C40.0449 174.736 41.4256 175.108 42.5062 174.485C43.5868 173.863 43.9581 172.482 43.3356 171.401L39.4224 173.656ZM39.1219 164.087C38.4994 163.006 37.1187 162.635 36.0381 163.258C34.9575 163.88 34.5862 165.261 35.2087 166.341L39.1219 164.087ZM30.995 159.027C31.6175 160.108 32.9982 160.479 34.0788 159.856C35.1594 159.234 35.5307 157.853 34.9082 156.773L30.995 159.027ZM30.6945 149.458C30.072 148.378 28.6913 148.006 27.6107 148.629C26.5301 149.251 26.1588 150.632 26.7813 151.713L30.6945 149.458ZM22.5676 144.398C23.1901 145.479 24.5708 145.85 25.6514 145.228C26.732 144.605 27.1033 143.224 26.4808 142.144L22.5676 144.398ZM22.2671 134.829C21.6446 133.749 20.2639 133.377 19.1833 134C18.1027 134.622 17.7314 136.003 18.3539 137.084L22.2671 134.829ZM14.1402 129.769C14.7627 130.85 16.1433 131.221 17.224 130.599C18.3046 129.976 18.6759 128.596 18.0534 127.515L14.1402 129.769ZM14.6658 120.89C14.236 119.719 12.9385 119.119 11.7678 119.548C10.5971 119.978 9.99657 121.276 10.4264 122.446L14.6658 120.89ZM8.62483 114.908C8.77076 116.146 9.89308 117.032 11.1316 116.886C12.3701 116.74 13.2559 115.618 13.1099 114.379L8.62483 114.908ZM13.1099 107.685C13.2559 106.447 12.3701 105.324 11.1316 105.178C9.89308 105.032 8.77076 105.918 8.62483 107.157L13.1099 107.685ZM10.4264 99.618C9.99657 100.789 10.5971 102.086 11.7678 102.516C12.9385 102.946 14.236 102.345 14.6658 101.175L10.4264 99.618ZM18.0532 94.5513C18.6759 93.4708 18.3048 92.0901 17.2243 91.4674C16.1438 90.8447 14.7631 91.2158 14.1404 92.2962L18.0532 94.5513ZM18.3541 84.9851C17.7314 86.0655 18.1025 87.4463 19.1829 88.069C20.2634 88.6917 21.6442 88.3206 22.2669 87.2401L18.3541 84.9851ZM26.4806 79.9289C27.1033 78.8484 26.7322 77.4677 25.6517 76.845C24.5712 76.2223 23.1905 76.5934 22.5678 77.6739L26.4806 79.9289ZM26.7815 70.3626C26.1588 71.4431 26.5299 72.8239 27.6103 73.4466C28.6908 74.0693 30.0716 73.6982 30.6943 72.6177L26.7815 70.3626ZM34.908 65.3065C35.5307 64.226 35.1596 62.8453 34.0791 62.2226C32.9986 61.5999 31.6179 61.971 30.9952 63.0515L34.908 65.3065ZM35.2089 55.7403C34.5862 56.8207 34.9573 58.2015 36.0378 58.8242C37.1182 59.4469 38.499 59.0758 39.1217 57.9953L35.2089 55.7403ZM43.3354 50.6841C43.9581 49.6037 43.587 48.2229 42.5065 47.6002C41.4261 46.9775 40.0453 47.3486 39.4226 48.4291L43.3354 50.6841ZM43.6363 41.1179C43.0136 42.1983 43.3847 43.5791 44.4652 44.2018C45.5457 44.8245 46.9264 44.4534 47.5491 43.3729L43.6363 41.1179ZM51.7628 36.0617C52.3855 34.9813 52.0144 33.6005 50.934 32.9778C49.8535 32.3551 48.4727 32.7262 47.85 33.8067L51.7628 36.0617ZM52.0637 26.4955C51.441 27.5759 51.8121 28.9567 52.8926 29.5794C53.9731 30.2021 55.3538 29.831 55.9765 28.7505L52.0637 26.4955ZM60.0097 22.5029C60.8076 21.5444 60.6774 20.1206 59.719 19.3227C58.7606 18.5248 57.3368 18.655 56.5389 19.6134L60.0097 22.5029ZM62.1551 14.2787C61.1569 15.0263 60.9537 16.4415 61.7013 17.4397C62.4489 18.4378 63.8641 18.641 64.8623 17.8934L62.1551 14.2787ZM70.6489 14.5349C71.7931 14.039 72.3188 12.7094 71.8229 11.5652C71.327 10.4209 69.9974 9.89525 68.8532 10.3911L70.6489 14.5349ZM76.2684 8.1627C75.0404 8.37974 74.2208 9.55123 74.4378 10.7793C74.6548 12.0074 75.8263 12.827 77.0544 12.6099L76.2684 8.1627ZM84.4695 12.2246C85.7166 12.2246 86.7275 11.2136 86.7275 9.96655C86.7275 8.71945 85.7166 7.70848 84.4695 7.70848V12.2246ZM92.9065 7.70848C91.6594 7.70848 90.6484 8.71945 90.6484 9.96655C90.6484 11.2136 91.6594 12.2246 92.9065 12.2246V7.70848ZM101.343 12.2246C102.591 12.2246 103.602 11.2136 103.602 9.96655C103.602 8.71945 102.591 7.70848 101.343 7.70848V12.2246ZM109.78 7.70848C108.533 7.70848 107.522 8.71945 107.522 9.96655C107.522 11.2136 108.533 12.2246 109.78 12.2246V7.70848ZM118.217 12.2246C119.465 12.2246 120.476 11.2136 120.476 9.96655C120.476 8.71945 119.465 7.70848 118.217 7.70848V12.2246ZM126.655 7.70848C125.407 7.70848 124.396 8.71945 124.396 9.96655C124.396 11.2136 125.407 12.2246 126.655 12.2246V7.70848ZM135.092 12.2246C136.339 12.2246 137.35 11.2136 137.35 9.96655C137.35 8.71945 136.339 7.70848 135.092 7.70848V12.2246ZM143.529 7.70848C142.281 7.70848 141.27 8.71945 141.27 9.96655C141.27 11.2136 142.281 12.2246 143.529 12.2246V7.70848ZM151.966 12.2246C153.213 12.2246 154.224 11.2136 154.224 9.96655C154.224 8.71945 153.213 7.70848 151.966 7.70848V12.2246ZM160.403 7.70848C159.155 7.70848 158.144 8.71945 158.144 9.96655C158.144 11.2136 159.155 12.2246 160.403 12.2246V7.70848ZM167.827 12.6042C169.055 12.8191 170.225 11.9974 170.44 10.769C170.655 9.54056 169.833 8.37049 168.605 8.15559L167.827 12.6042ZM176.033 10.377C174.889 9.88225 173.559 10.4092 173.065 11.5539C172.57 12.6987 173.097 14.0278 174.242 14.5225L176.033 10.377ZM180.036 17.8813C181.035 18.6287 182.45 18.4252 183.197 17.4269C183.945 16.4286 183.741 15.0134 182.743 14.266L180.036 17.8813ZM188.366 19.6092C187.568 18.6503 186.145 18.5193 185.186 19.3166C184.227 20.1139 184.096 21.5377 184.893 22.4966L188.366 19.6092ZM188.927 28.7505C189.55 29.831 190.931 30.2021 192.011 29.5794C193.092 28.9567 193.463 27.5759 192.84 26.4955L188.927 28.7505ZM197.054 33.8067C196.431 32.7262 195.051 32.3551 193.97 32.9778C192.89 33.6005 192.518 34.9813 193.141 36.0617L197.054 33.8067ZM197.355 43.3729C197.978 44.4534 199.358 44.8245 200.439 44.2018C201.519 43.5791 201.89 42.1983 201.268 41.1179L197.355 43.3729ZM205.481 48.4291C204.859 47.3486 203.478 46.9775 202.397 47.6002C201.317 48.2229 200.946 49.6036 201.569 50.6841L205.481 48.4291ZM205.782 57.9953C206.405 59.0758 207.786 59.4469 208.866 58.8242C209.947 58.2015 210.318 56.8207 209.695 55.7403L205.782 57.9953ZM213.909 63.0515C213.286 61.971 211.905 61.5999 210.825 62.2226C209.744 62.8453 209.373 64.2261 209.996 65.3065L213.909 63.0515ZM214.21 72.6177C214.832 73.6982 216.213 74.0693 217.294 73.4466C218.374 72.8239 218.745 71.4431 218.122 70.3626L214.21 72.6177ZM222.336 77.6739C221.713 76.5934 220.333 76.2223 219.252 76.845C218.172 77.4677 217.801 78.8484 218.423 79.9289L222.336 77.6739ZM222.637 87.2401C223.26 88.3206 224.641 88.6917 225.721 88.069C226.802 87.4463 227.173 86.0655 226.55 84.985L222.637 87.2401ZM230.764 92.2962C230.141 91.2158 228.76 90.8447 227.68 91.4674C226.599 92.0901 226.228 93.4708 226.851 94.5513L230.764 92.2962ZM230.215 101.169C230.639 102.342 231.934 102.949 233.107 102.524C234.279 102.1 234.886 100.805 234.462 99.6325L230.215 101.169ZM236.237 107.164C236.093 105.925 234.972 105.037 233.733 105.181C232.494 105.325 231.607 106.446 231.751 107.685L236.237 107.164ZM231.751 114.379C231.607 115.618 232.494 116.739 233.733 116.883C234.972 117.027 236.093 116.14 236.237 114.901L231.751 114.379ZM234.462 122.432C234.886 121.259 234.279 119.965 233.107 119.54C231.934 119.116 230.639 119.722 230.215 120.895L234.462 122.432ZM243.206 94.6403L240.902 90.6338L236.987 92.8849L239.291 96.8914L243.206 94.6403ZM236.295 82.621L231.688 74.6082L227.773 76.8593L232.38 84.8721L236.295 82.621ZM227.081 66.5953L222.473 58.5825L218.558 60.8336L223.165 68.8464L227.081 66.5953ZM217.866 50.5696L213.259 42.5568L209.344 44.8079L213.951 52.8207L217.866 50.5696ZM208.652 34.5439L204.044 26.5311L200.129 28.7822L204.737 36.795L208.652 34.5439ZM199.437 18.5182L197.134 14.5118L193.218 16.7629L195.522 20.7694L199.437 18.5182ZM197.066 14.4025C196.291 13.2155 195.449 12.0783 194.544 10.9961L191.079 13.8917C191.87 14.8386 192.607 15.8336 193.285 16.8722L197.066 14.4025ZM188.395 5.18256C187.263 4.34039 186.08 3.56322 184.851 2.85605L182.599 6.77029C183.674 7.38891 184.708 8.06878 185.698 8.80552L188.395 5.18256ZM184.851 2.85605C183.623 2.14915 182.357 1.51716 181.061 0.962161L179.283 5.1136C180.417 5.59907 181.524 6.15189 182.599 6.77029L184.851 2.85605ZM172.948 -1.43258C171.558 -1.67027 170.152 -1.82678 168.737 -1.90006L168.504 2.61002C169.742 2.67412 170.971 2.81102 172.187 3.01891L172.948 -1.43258ZM168.62 -1.90308H164V2.61304H168.62V-1.90308ZM154.76 -1.90308H145.52V2.61304H154.76V-1.90308ZM136.28 -1.90308H127.04V2.61304H136.28V-1.90308ZM117.8 -1.90308H108.56V2.61304H117.8V-1.90308ZM99.3198 -1.90308H90.0797V2.61304H99.3198V-1.90308ZM80.8397 -1.90308H76.2196V2.61304H80.8397V-1.90308ZM76.095 -1.89964C74.6863 -1.82179 73.2871 -1.66126 71.9044 -1.42013L72.6802 3.02886C73.8892 2.81803 75.1126 2.67767 76.3442 2.6096L76.095 -1.89964ZM63.8349 0.988504C62.5463 1.54467 61.2881 2.17725 60.0671 2.88418L62.3299 6.79251C63.3976 6.17433 64.4979 5.6212 65.6246 5.13489L63.8349 0.988504ZM60.0671 2.88418C58.8456 3.59137 57.67 4.36801 56.5455 5.2091L59.2504 8.82559C60.2338 8.09006 61.2618 7.41092 62.3299 6.79251L60.0671 2.88418ZM50.4358 11.01C49.5377 12.0892 48.7011 13.2228 47.9313 14.4058L51.7167 16.8689C52.39 15.8341 53.1217 14.8426 53.9071 13.8988L50.4358 11.01ZM47.868 14.5091L45.558 18.514L49.47 20.7704L51.78 16.7656L47.868 14.5091ZM40.938 26.5236L36.3179 34.5332L40.2299 36.7897L44.8499 28.7801L40.938 26.5236ZM31.6979 42.5429L27.0778 50.5525L30.9898 52.809L35.6099 44.7994L31.6979 42.5429ZM22.4578 58.5622L17.8378 66.5718L21.7498 68.8283L26.3698 60.8186L22.4578 58.5622ZM13.2177 74.5814L8.59769 82.5911L12.5097 84.8476L17.1297 76.8379L13.2177 74.5814ZM3.97766 90.6007L1.66764 94.6055L5.57964 96.862L7.88966 92.8572L3.97766 90.6007ZM1.60651 94.7189C0.972252 95.9795 0.413841 97.2728 -0.0670648 98.592L4.17592 100.139C4.59685 98.9841 5.08562 97.8521 5.64077 96.7487L1.60651 94.7189ZM-2.01243 106.788C-2.17564 108.183 -2.25806 109.589 -2.25806 111H2.25806C2.25806 109.765 2.33022 108.534 2.47308 107.313L-2.01243 106.788ZM-2.25806 111C-2.25806 112.411 -2.17564 113.818 -2.01243 115.212L2.47308 114.687C2.33022 113.466 2.25806 112.235 2.25806 111H-2.25806ZM-0.0670652 123.408C0.413841 124.727 0.972252 126.021 1.60651 127.281L5.64077 125.252C5.08562 124.148 4.59685 123.016 4.17592 121.862L-0.0670652 123.408ZM1.66764 127.395L3.97766 131.4L7.88966 129.143L5.57964 125.138L1.66764 127.395ZM8.5977 139.409L13.2177 147.419L17.1297 145.162L12.5097 137.153L8.5977 139.409ZM17.8378 155.428L22.4578 163.438L26.3698 161.182L21.7498 153.172L17.8378 155.428ZM27.0778 171.448L31.6979 179.457L35.6099 177.201L30.9898 169.191L27.0778 171.448ZM36.3179 187.467L40.938 195.477L44.8499 193.22L40.2299 185.211L36.3179 187.467ZM45.558 203.486L47.868 207.491L51.78 205.235L49.47 201.23L45.558 203.486ZM47.9325 207.596C48.7032 208.778 49.5405 209.911 50.4391 210.989L53.9084 208.098C53.1223 207.155 52.3898 206.164 51.7155 205.13L47.9325 207.596ZM56.55 216.786C57.6745 217.626 58.8499 218.402 60.071 219.109L62.3338 215.201C61.2657 214.583 60.2376 213.904 59.254 213.168L56.55 216.786ZM60.071 219.109C61.2916 219.816 62.5494 220.449 63.8375 221.005L65.6282 216.859C64.5016 216.372 63.4015 215.819 62.3338 215.201L60.071 219.109ZM71.9037 223.417C73.286 223.659 74.6846 223.821 76.0929 223.9L76.3464 219.391C75.1148 219.322 73.8916 219.18 72.6828 218.968L71.9037 223.417ZM76.2196 223.903H80.8397V219.387H76.2196V223.903ZM90.0797 223.903H99.3198V219.387H90.0797V223.903ZM108.56 223.903H117.8V219.387H108.56V223.903ZM127.04 223.903H136.28V219.387H127.04V223.903ZM145.52 223.903H154.76V219.387H145.52V223.903ZM164 223.903H168.62V219.387H164V223.903ZM168.737 223.9C170.151 223.827 171.554 223.671 172.942 223.434L172.182 218.982C170.968 219.189 169.74 219.326 168.503 219.39L168.737 223.9ZM181.045 221.05C182.34 220.497 183.604 219.868 184.832 219.165L182.587 215.246C181.512 215.862 180.406 216.412 179.273 216.896L181.045 221.05ZM184.832 219.165C186.06 218.461 187.243 217.687 188.375 216.849L185.687 213.22C184.696 213.953 183.661 214.63 182.587 215.246L184.832 219.165ZM194.532 211.061C195.438 209.984 196.283 208.851 197.062 207.669L193.29 205.185C192.609 206.22 191.869 207.211 191.075 208.154L194.532 211.061ZM197.132 207.555L199.442 203.55L195.53 201.294L193.22 205.299L197.132 207.555ZM204.062 195.541L208.682 187.531L204.77 185.275L200.15 193.284L204.062 195.541ZM213.302 179.521L217.922 171.512L214.01 169.255L209.39 177.265L213.302 179.521ZM222.542 163.502L227.162 155.493L223.25 153.236L218.63 161.246L222.542 163.502ZM231.782 147.483L236.402 139.473L232.49 137.217L227.87 145.226L231.782 147.483ZM241.022 131.464L243.332 127.459L239.42 125.202L237.11 129.207L241.022 131.464ZM243.393 127.346C244.028 126.085 244.586 124.792 245.067 123.472L240.824 121.926C240.403 123.08 239.914 124.212 239.359 125.316L243.393 127.346ZM247.012 115.276C247.176 113.882 247.258 112.475 247.258 111.064H242.742C242.742 112.3 242.67 113.531 242.527 114.751L247.012 115.276ZM247.258 111.064C247.258 109.653 247.176 108.247 247.012 106.852L242.527 107.377C242.67 108.598 242.742 109.829 242.742 111.064H247.258ZM245.067 98.6561C244.586 97.3369 244.028 96.0435 243.393 94.7829L239.359 96.8128C239.914 97.9161 240.403 99.0482 240.824 100.203L245.067 98.6561ZM228.957 123.858L226.851 127.515L230.764 129.769L232.871 126.112L228.957 123.858ZM222.637 134.829L218.423 142.144L222.336 144.398L226.55 137.084L222.637 134.829ZM214.209 149.458L209.996 156.773L213.909 159.027L218.123 151.713L214.209 149.458ZM205.782 164.087L201.568 171.401L205.482 173.656L209.695 166.341L205.782 164.087ZM197.355 178.716L193.141 186.03L197.054 188.285L201.268 180.97L197.355 178.716ZM188.927 193.345L186.82 197.002L190.734 199.256L192.84 195.599L188.927 193.345ZM186.888 196.892C186.275 197.827 185.61 198.724 184.896 199.578L188.36 202.475C189.186 201.487 189.956 200.449 190.666 199.366L186.888 196.892ZM180.045 204.167C179.153 204.833 178.221 205.448 177.253 206.008L179.514 209.917C180.635 209.269 181.714 208.557 182.746 207.787L180.045 204.167ZM177.253 206.008C176.285 206.568 175.288 207.069 174.267 207.51L176.058 211.656C177.24 211.145 178.394 210.565 179.514 209.917L177.253 206.008ZM167.875 209.425C166.779 209.618 165.671 209.747 164.555 209.811L164.815 214.32C166.107 214.246 167.39 214.096 168.658 213.873L167.875 209.425ZM164.685 209.808H160.463V214.324H164.685V209.808ZM152.02 209.808H143.577V214.324H152.02V209.808ZM135.133 209.808H126.69V214.324H135.133V209.808ZM118.246 209.808H109.803V214.324H118.246V209.808ZM101.359 209.808H92.9161V214.324H101.359V209.808ZM84.4727 209.808H80.251V214.324H84.4727V209.808ZM80.3808 209.811C79.2636 209.747 78.154 209.618 77.0575 209.425L76.2749 213.873C77.544 214.096 78.8282 214.246 80.1211 214.32L80.3808 209.811ZM70.6575 207.51C69.6353 207.069 68.6369 206.567 67.6677 206.007L65.4086 209.918C66.5301 210.566 67.6854 211.146 68.8684 211.656L70.6575 207.51ZM67.6677 206.007C66.6982 205.447 65.7648 204.833 64.8714 204.167L62.1729 207.788C63.2066 208.558 64.2868 209.27 65.4086 209.918L67.6677 206.007ZM60.0119 199.577C59.2964 198.723 58.6292 197.826 58.0144 196.89L54.2395 199.368C54.9507 200.451 55.7226 201.489 56.5504 202.477L60.0119 199.577ZM58.0836 197.002L55.9767 193.345L52.0635 195.599L54.1703 199.256L58.0836 197.002ZM51.763 186.03L47.5493 178.716L43.6361 180.97L47.8498 188.285L51.763 186.03ZM43.3356 171.401L39.1219 164.087L35.2087 166.341L39.4224 173.656L43.3356 171.401ZM34.9082 156.773L30.6945 149.458L26.7813 151.713L30.995 159.027L34.9082 156.773ZM26.4808 142.144L22.2671 134.829L18.3539 137.084L22.5676 144.398L26.4808 142.144ZM18.0534 127.515L15.9465 123.858L12.0333 126.112L14.1402 129.769L18.0534 127.515ZM16.0039 123.964C15.4968 122.964 15.0504 121.937 14.6658 120.89L10.4264 122.446C10.8717 123.659 11.3887 124.848 11.9759 126.006L16.0039 123.964ZM13.1099 114.379C12.9794 113.271 12.9135 112.154 12.9135 111.032H8.39732C8.39732 112.331 8.47368 113.625 8.62483 114.908L13.1099 114.379ZM12.9135 111.032C12.9135 109.911 12.9794 108.793 13.1099 107.685L8.62483 107.157C8.47368 108.44 8.39732 109.734 8.39732 111.032H12.9135ZM14.6658 101.175C15.0504 100.127 15.4968 99.1007 16.0039 98.1005L11.9759 96.0583C11.3887 97.2165 10.8717 98.4052 10.4264 99.618L14.6658 101.175ZM15.9463 98.2069L18.0532 94.5513L14.1404 92.2962L12.0335 95.9519L15.9463 98.2069ZM22.2669 87.2401L26.4806 79.9289L22.5678 77.6739L18.3541 84.9851L22.2669 87.2401ZM30.6943 72.6177L34.908 65.3065L30.9952 63.0515L26.7815 70.3626L30.6943 72.6177ZM39.1217 57.9953L43.3354 50.6841L39.4226 48.4291L35.2089 55.7403L39.1217 57.9953ZM47.5491 43.3729L51.7628 36.0617L47.85 33.8067L43.6363 41.1179L47.5491 43.3729ZM55.9765 28.7505L58.0834 25.0949L54.1706 22.8399L52.0637 26.4955L55.9765 28.7505ZM58.0189 25.2001C58.6311 24.2605 59.296 23.3601 60.0097 22.5029L56.5389 19.6134C55.713 20.6055 54.9434 21.6475 54.235 22.7347L58.0189 25.2001ZM64.8623 17.8934C65.7551 17.2247 66.6884 16.6071 67.6581 16.0443L65.3912 12.1384C64.2688 12.7897 63.1885 13.5047 62.1551 14.2787L64.8623 17.8934ZM67.6581 16.0443C68.6273 15.4818 69.6261 14.9781 70.6489 14.5349L68.8532 10.3911C67.6692 10.9042 66.5131 11.4873 65.3912 12.1384L67.6581 16.0443ZM77.0544 12.6099C78.1521 12.4159 79.263 12.2857 80.3816 12.2208L80.1203 7.71227C78.8253 7.78732 77.5393 7.9381 76.2684 8.1627L77.0544 12.6099ZM80.251 12.2246H84.4695V7.70848H80.251V12.2246ZM92.9065 12.2246H101.343V7.70848H92.9065V12.2246ZM109.78 12.2246H118.217V7.70848H109.78V12.2246ZM126.655 12.2246H135.092V7.70848H126.655V12.2246ZM143.529 12.2246H151.966V7.70848H143.529V12.2246ZM160.403 12.2246H164.621V7.70848H160.403V12.2246ZM164.495 12.2211C165.615 12.2836 166.727 12.4119 167.827 12.6042L168.605 8.15559C167.332 7.9329 166.044 7.7844 164.747 7.71199L164.495 12.2211ZM174.242 14.5225C175.266 14.9652 176.266 15.4687 177.237 16.0313L179.501 12.124C178.378 11.4726 177.219 10.8897 176.033 10.377L174.242 14.5225ZM177.237 16.0313C178.208 16.5941 179.142 17.2121 180.036 17.8813L182.743 14.266C181.708 13.4912 180.626 12.7756 179.501 12.124L177.237 16.0313ZM184.893 22.4966C185.607 23.3551 186.272 24.257 186.884 25.1982L190.67 22.7366C189.962 21.6471 189.192 20.6031 188.366 19.6092L184.893 22.4966ZM186.821 25.0949L188.927 28.7505L192.84 26.4955L190.733 22.8399L186.821 25.0949ZM193.141 36.0617L197.355 43.3729L201.268 41.1179L197.054 33.8067L193.141 36.0617ZM201.569 50.6841L205.782 57.9953L209.695 55.7403L205.481 48.4291L201.569 50.6841ZM209.996 65.3065L214.21 72.6177L218.122 70.3626L213.909 63.0515L209.996 65.3065ZM218.423 79.9289L222.637 87.2401L226.55 84.985L222.336 77.6739L218.423 79.9289ZM226.851 94.5513L228.958 98.2069L232.87 95.9519L230.764 92.2962L226.851 94.5513ZM228.894 98.0879C229.395 99.0911 229.835 100.12 230.215 101.169L234.462 99.6325C234.023 98.4198 233.513 97.2305 232.934 96.0709L228.894 98.0879ZM231.751 107.685C231.88 108.793 231.945 109.911 231.945 111.032H236.461C236.461 109.736 236.386 108.444 236.237 107.164L231.751 107.685ZM231.945 111.032C231.945 112.154 231.88 113.271 231.751 114.379L236.237 114.901C236.386 113.62 236.461 112.328 236.461 111.032H231.945ZM230.215 120.895C229.835 121.944 229.395 122.973 228.894 123.976L232.934 125.994C233.513 124.834 234.023 123.645 234.462 122.432L230.215 120.895Z" fill="#AA1D26" mask="url(#path-1-inside-1)"/>
</svg>
