<svg width="225" height="204" viewBox="0 0 225 204" fill="none" xmlns="http://www.w3.org/2000/svg">
<path d="M211.811 114.892L173.16 182.321C170.729 186.05 167.464 189.155 163.626 191.386C159.789 193.617 155.486 194.913 151.061 195.169H73.612C69.1834 194.913 64.8759 193.617 61.0336 191.386C57.1914 189.156 53.9209 186.051 51.4837 182.321L12.8326 114.892C10.8218 110.906 9.77389 106.5 9.77389 102.03C9.77389 97.5595 10.8218 93.1526 12.8326 89.1669L51.4837 21.7675C53.911 18.0233 57.1778 14.9048 61.0212 12.6631C64.8646 10.4213 69.1772 9.1189 73.612 8.86058H151.002C155.443 9.10974 159.763 10.4081 163.613 12.6505C167.463 14.8928 170.733 18.0162 173.16 21.7675L211.811 89.1669C213.795 93.1608 214.828 97.5645 214.828 102.03C214.828 106.495 213.795 110.898 211.811 114.892ZM221.29 87.956L179.029 14.0883C176.357 9.97671 172.758 6.55788 168.526 4.10985C164.293 1.66181 159.546 0.253695 154.671 0L69.9142 0C65.0631 0.271791 60.3436 1.6887 56.1375 4.13615C51.9313 6.5836 48.3565 9.99289 45.7022 14.0883L3.32387 87.9265C1.1384 92.2918 0 97.1119 0 102C0 106.888 1.1384 111.708 3.32387 116.074L45.7022 189.912C48.3617 194.002 51.9377 197.408 56.1428 199.855C60.3479 202.301 65.0647 203.721 69.9142 204H154.671C159.539 203.746 164.28 202.344 168.512 199.907C172.743 197.47 176.346 194.066 179.029 189.971L221.408 116.133C223.593 111.767 224.732 106.947 224.732 102.059C224.732 97.1709 223.593 92.3509 221.408 87.9855" fill="#AF1917"/>
</svg>
