<svg width="190" height="53" viewBox="0 0 190 53" fill="none" xmlns="http://www.w3.org/2000/svg">
<g clip-path="url(#clip0)">
<path d="M126.449 36.4221V42.4123H128.114V36.4221H129.619V42.4123H131.31V36.4221H132.815V43.8174H124.931V36.4221H126.449Z" fill="#AA1D26"/>
<path d="M135.714 41.907L135.221 43.7928H133.629L135.714 36.3974H137.725L139.835 43.7928H138.182L137.664 41.907H135.714ZM137.429 40.6744L137.01 39.1091C136.886 38.6777 136.763 38.123 136.664 37.6916C136.553 38.123 136.454 38.69 136.343 39.1091L135.949 40.6744H137.429Z" fill="#AA1D26"/>
<path d="M144.35 43.7682L143.734 42.4493C143.475 41.9316 143.314 41.5495 143.129 41.1305C142.993 41.5495 142.821 41.9316 142.611 42.4493L142.043 43.7682H140.279L142.253 40.0705L140.353 36.3728H142.117L142.722 37.7163C142.919 38.16 143.067 38.5298 143.228 38.9488C143.388 38.4805 143.524 38.16 143.684 37.7163L144.264 36.3728H146.016L144.104 39.9595L146.115 43.7188L144.35 43.7682Z" fill="#AA1D26"/>
<path d="M148.36 37.8272H146.534V36.4221H151.753V37.8272H149.903V43.7681H148.36V37.8272Z" fill="#AA1D26"/>
<path d="M158.465 40.0212C158.465 42.4863 157.108 43.8914 155.121 43.8914C153.135 43.8914 151.926 42.2521 151.926 40.1937C151.926 38.1354 153.221 36.3481 155.232 36.3481C157.243 36.3481 158.465 37.9998 158.465 40.0212ZM153.53 40.1198C153.53 41.5619 154.147 42.5849 155.183 42.5849C156.219 42.5849 156.812 41.5126 156.812 40.1198C156.812 38.727 156.232 37.6547 155.171 37.6547C154.11 37.6547 153.554 38.69 153.554 40.1198H153.53Z" fill="#AA1D26"/>
<path d="M164.461 43.5709C163.907 43.8018 163.309 43.9111 162.709 43.8914C162.222 43.9207 161.734 43.8438 161.28 43.6663C160.825 43.4887 160.415 43.2146 160.077 42.8629C159.739 42.5112 159.482 42.0904 159.323 41.6295C159.164 41.1686 159.107 40.6787 159.156 40.1937C159.114 39.6884 159.179 39.1799 159.348 38.7016C159.516 38.2233 159.784 37.786 160.133 37.4182C160.483 37.0505 160.906 36.7607 161.375 36.5678C161.845 36.3749 162.35 36.2832 162.857 36.2988C163.429 36.2794 163.999 36.3889 164.523 36.6193L164.214 37.9381C163.806 37.7591 163.365 37.6668 162.919 37.667C162.361 37.7801 161.859 38.0825 161.499 38.5227C161.139 38.963 160.942 39.5142 160.942 40.0828C160.942 40.6514 161.139 41.2026 161.499 41.6429C161.859 42.0831 162.361 42.3855 162.919 42.4986C163.342 42.4929 163.76 42.4093 164.153 42.2521L164.461 43.5709Z" fill="#AA1D26"/>
<path d="M166.966 37.8272H165.14V36.4221H170.371V37.8272H168.508V43.7681H166.966V37.8272Z" fill="#AA1D26"/>
<path d="M171.185 36.5207C171.87 36.4103 172.564 36.3608 173.258 36.3728C174.001 36.3126 174.742 36.5227 175.343 36.9644C175.578 37.1795 175.764 37.443 175.887 37.7366C176.011 38.0302 176.069 38.347 176.058 38.6654C176.086 39.3026 175.864 39.9255 175.442 40.4033C175.143 40.6723 174.794 40.8795 174.415 41.0128C174.036 41.1461 173.634 41.2029 173.233 41.1798C173.057 41.1942 172.879 41.1942 172.703 41.1798V43.8051H171.185V36.5207ZM172.727 39.8609C172.899 39.8826 173.073 39.8826 173.245 39.8609C173.417 39.8854 173.592 39.871 173.757 39.819C173.923 39.767 174.074 39.6786 174.201 39.5604C174.328 39.4421 174.426 39.297 174.489 39.1357C174.552 38.9745 174.578 38.8011 174.566 38.6284C174.566 37.9505 174.134 37.5561 173.332 37.5561C173.119 37.5262 172.903 37.5262 172.69 37.5561L172.727 39.8609Z" fill="#AA1D26"/>
<path d="M183.227 40.0212C183.227 42.4863 181.882 43.8914 179.895 43.8914C177.909 43.8914 176.7 42.2521 176.7 40.1937C176.7 38.1354 177.995 36.3481 180.006 36.3481C182.017 36.3481 183.227 37.9998 183.227 40.0212ZM178.292 40.1198C178.292 41.5619 178.921 42.5849 179.957 42.5849C180.993 42.5849 181.586 41.5126 181.586 40.1198C181.586 38.727 181.006 37.6547 179.945 37.6547C178.884 37.6547 178.316 38.69 178.316 40.1198H178.292Z" fill="#AA1D26"/>
<path d="M185.657 36.4221V38.6037C185.657 39.8363 185.657 40.9456 185.571 41.9316C185.928 41.0688 186.385 40.0951 186.804 39.3186L188.273 36.4221H189.839V43.8174H188.433V41.5988C188.433 40.4649 188.433 39.4665 188.544 38.5051C188.212 39.4034 187.825 40.2802 187.384 41.1305L186.002 43.7681H184.25V36.3728L185.657 36.4221ZM186.595 34.7335C186.595 35.1649 186.718 35.4114 187.039 35.4114C187.36 35.4114 187.483 35.1772 187.52 34.7335H188.544C188.549 34.9271 188.513 35.1195 188.436 35.2974C188.359 35.4752 188.245 35.6343 188.1 35.7634C187.956 35.8925 187.785 35.9885 187.599 36.0448C187.414 36.1011 187.218 36.1163 187.026 36.0893C186.838 36.1128 186.646 36.0949 186.464 36.0366C186.283 35.9784 186.117 35.8814 185.977 35.7522C185.837 35.6231 185.727 35.465 185.655 35.2891C185.583 35.1131 185.55 34.9235 185.558 34.7335H186.595Z" fill="#AA1D26"/>
<path d="M57.9871 22.753L46.8832 3.59907C46.1947 2.52787 45.2624 1.63449 44.1625 0.991866C43.0625 0.349241 41.826 -0.0244173 40.5539 -0.0986023H18.3462C17.0745 -0.0224699 15.8388 0.35201 14.7391 0.994457C13.6395 1.6369 12.7069 2.52923 12.0169 3.59907L0.913039 22.753C0.34126 23.8888 0.043457 25.1424 0.043457 26.4137C0.043457 27.685 0.34126 28.9387 0.913039 30.0744L12.0169 49.2284C12.7069 50.2982 13.6395 51.1906 14.7391 51.833C15.8388 52.4754 17.0745 52.8499 18.3462 52.9261H40.5539C41.826 52.8519 43.0625 52.4782 44.1625 51.8356C45.2624 51.193 46.1947 50.2996 46.8832 49.2284L57.9871 30.0744C58.5532 28.937 58.8479 27.684 58.8479 26.4137C58.8479 25.1434 58.5532 23.8904 57.9871 22.753ZM52.4721 29.3595L43.478 44.8158C42.9197 45.672 42.1676 46.3848 41.2823 46.8966C40.3971 47.4083 39.4037 47.7047 38.3825 47.7616H20.5052C19.4822 47.7056 18.4866 47.4098 17.5993 46.898C16.7119 46.3862 15.9576 45.6729 15.3975 44.8158L6.47732 29.3595C6.00864 28.4482 5.76416 27.4383 5.76416 26.4137C5.76416 25.3891 6.00864 24.3793 6.47732 23.4679L15.3975 8.01163C15.9576 7.15453 16.7119 6.44123 17.5993 5.92946C18.4866 5.41769 19.4822 5.12183 20.5052 5.06582H38.3825C39.4037 5.12275 40.3971 5.4191 41.2823 5.93088C42.1676 6.44265 42.9197 7.15547 43.478 8.01163L52.4228 23.4186C52.8871 24.3401 53.1289 25.3574 53.1289 26.3891C53.1289 27.4207 52.8871 28.438 52.4228 29.3595H52.4721Z" fill="#AA1D26"/>
<path d="M37.0746 9.39208H21.6896C21.0551 9.36436 20.4248 9.50763 19.8648 9.80688C19.3047 10.1061 18.8356 10.5504 18.5065 11.093L16.5818 14.5319H21.5169H26.3779L21.961 22.186L22.1214 31.9356L29.8448 18.8212L43.7 25.7112L46.2662 21.4958L32.5097 14.5072H42.2318L40.3318 11.2902C39.9808 10.7363 39.5017 10.2748 38.9349 9.94445C38.368 9.61412 37.7301 9.42468 37.0746 9.39208Z" fill="#AA1D26"/>
<path d="M22.9727 39.2939L20.6162 35.0539H29.2526L32.2383 33.1312L37.5681 29.9881H22.5162L22.3065 26.6356V23.1228L21.7636 14.4949H16.7052L17.5811 29.8526L12.7201 21.3972L10.7461 24.6512C10.4462 25.2292 10.2976 25.8737 10.3142 26.5246C10.3094 27.1585 10.4575 27.7843 10.7461 28.3488L18.4324 41.6481C18.7727 42.1972 19.2413 42.6555 19.7978 42.984C20.3543 43.3124 20.9823 43.5011 21.6279 43.5339H25.3292L22.9727 39.2939Z" fill="#AA1D26"/>
<path d="M40.3441 41.6605L48.0305 28.3488C48.3289 27.7658 48.4773 27.1177 48.4623 26.463C48.4686 25.8329 48.3204 25.2108 48.0305 24.6512L46.2292 21.5205L43.7616 25.7358L41.3805 29.717L36.9882 22.3216L28.3766 17.6749L35.9395 30.6537L22.4421 39.2816L25.3662 43.5463L38.3701 34.9184L33.435 43.5463H37.6298C38.1929 43.4498 38.7279 43.2309 39.1969 42.905C39.666 42.5792 40.0576 42.1543 40.3441 41.6605Z" fill="#AA1D26"/>
<path d="M87.2025 9.26883H80.7992L75.6297 16.6642C75.0745 17.4653 74.5317 18.2665 74.0258 19.1293V9.26883H68.8193V31.6521H74.0258V24.343L75.9628 21.9888L81.6012 31.6521H87.5973L79.6271 18.8088L87.2025 9.26883Z" fill="#AA1D26"/>
<path d="M95.0001 9.26884L88.0293 31.6521H93.3715L95.0001 25.8837H101.576L103.34 31.6274H108.942L101.81 9.24419L95.0001 9.26884ZM95.802 22.186L97.1592 17.4407C97.5293 16.1342 97.8748 14.4456 98.2202 13.1144H98.2942C98.6273 14.4456 99.0345 16.0972 99.4416 17.4407L100.873 22.186H95.802Z" fill="#AA1D26"/>
<path d="M125.782 17.8721H117.232V9.26883H112.075V31.6521H117.232V22.2846H125.782V31.6521H130.952V9.26883H125.782V17.8721Z" fill="#AA1D26"/>
<path d="M140.686 22.186H149.113V18.0693H140.686V13.4225H149.631V9.26883H135.517V31.6521H150.1V27.5107H140.686V22.186Z" fill="#AA1D26"/>
<path d="M172.518 9.26883H166.114L160.945 16.6642C160.402 17.4653 159.859 18.2665 159.353 19.1293V9.26883H154.208V31.6521H159.353V24.343L161.278 21.9888L166.916 31.6521H172.937L164.992 18.8088L172.518 9.26883Z" fill="#AA1D26"/>
<path d="M186.212 13.0898C187.448 13.08 188.678 13.2715 189.852 13.6567V9.33046C188.583 9.05668 187.288 8.9244 185.99 8.93604C179.056 8.93604 173.48 13.1514 173.48 20.7932C173.48 27.1779 177.563 32.0219 185.484 32.0219C186.954 32.0274 188.419 31.8661 189.852 31.5411V27.3135C188.674 27.6382 187.458 27.804 186.237 27.8065C181.635 27.8065 178.921 24.9716 178.921 20.4851C178.896 15.5179 182.128 13.0898 186.212 13.0898Z" fill="#AA1D26"/>
</g>
<defs>
<clipPath id="clip0">
<rect width="190" height="53" fill="white"/>
</clipPath>
</defs>
</svg>
