<svg width="190" height="53" viewBox="0 0 190 53" fill="none" xmlns="http://www.w3.org/2000/svg">
<g clip-path="url(#clip0)">
<path d="M126.449 36.4219V42.4121H128.114V36.4219H129.619V42.4121H131.31V36.4219H132.815V43.8172H124.931V36.4219H126.449Z" fill="white"/>
<path d="M135.714 41.907L135.221 43.7928H133.629L135.714 36.3975H137.725L139.835 43.7928H138.182L137.664 41.907H135.714ZM137.429 40.6744L137.01 39.1091C136.886 38.6777 136.763 38.123 136.664 37.6917C136.553 38.123 136.454 38.69 136.343 39.1091L135.949 40.6744H137.429Z" fill="white"/>
<path d="M144.35 43.7679L143.734 42.4491C143.475 41.9314 143.314 41.5493 143.129 41.1302C142.993 41.5493 142.821 41.9314 142.611 42.4491L142.043 43.7679H140.279L142.253 40.0702L140.353 36.3726H142.117L142.722 37.716C142.919 38.1598 143.067 38.5295 143.228 38.9486C143.388 38.4802 143.524 38.1598 143.684 37.716L144.264 36.3726H146.016L144.104 39.9593L146.115 43.7186L144.35 43.7679Z" fill="white"/>
<path d="M148.36 37.827H146.534V36.4219H151.753V37.827H149.903V43.7679H148.36V37.827Z" fill="white"/>
<path d="M158.465 40.0212C158.465 42.4863 157.108 43.8914 155.121 43.8914C153.135 43.8914 151.926 42.2521 151.926 40.1937C151.926 38.1354 153.221 36.3481 155.232 36.3481C157.243 36.3481 158.465 37.9998 158.465 40.0212ZM153.53 40.1198C153.53 41.5619 154.147 42.5849 155.183 42.5849C156.219 42.5849 156.812 41.5126 156.812 40.1198C156.812 38.727 156.232 37.6547 155.171 37.6547C154.11 37.6547 153.554 38.69 153.554 40.1198H153.53Z" fill="white"/>
<path d="M164.461 43.5707C163.907 43.8016 163.309 43.9109 162.709 43.8912C162.222 43.9204 161.734 43.8436 161.28 43.666C160.825 43.4884 160.415 43.2143 160.077 42.8626C159.739 42.511 159.482 42.0901 159.323 41.6293C159.164 41.1684 159.107 40.6785 159.156 40.1935C159.114 39.6882 159.179 39.1797 159.348 38.7014C159.516 38.2231 159.784 37.7857 160.133 37.418C160.483 37.0502 160.906 36.7604 161.375 36.5675C161.845 36.3746 162.35 36.283 162.857 36.2986C163.429 36.2791 163.999 36.3886 164.523 36.6191L164.214 37.9379C163.806 37.7589 163.365 37.6665 162.919 37.6667C162.361 37.7799 161.859 38.0822 161.499 38.5225C161.139 38.9628 160.942 39.5139 160.942 40.0826C160.942 40.6512 161.139 41.2023 161.499 41.6426C161.859 42.0829 162.361 42.3852 162.919 42.4984C163.342 42.4926 163.76 42.4091 164.153 42.2519L164.461 43.5707Z" fill="white"/>
<path d="M166.966 37.827H165.14V36.4219H170.371V37.827H168.508V43.7679H166.966V37.827Z" fill="white"/>
<path d="M171.185 36.5208C171.87 36.4103 172.564 36.3609 173.258 36.3729C174.001 36.3127 174.742 36.5228 175.343 36.9645C175.578 37.1796 175.764 37.4431 175.887 37.7367C176.011 38.0303 176.069 38.3471 176.058 38.6655C176.086 39.3027 175.864 39.9256 175.442 40.4034C175.143 40.6724 174.794 40.8796 174.415 41.0129C174.036 41.1462 173.634 41.203 173.233 41.1799C173.057 41.1943 172.879 41.1943 172.703 41.1799V43.8052H171.185V36.5208ZM172.727 39.861C172.899 39.8827 173.073 39.8827 173.245 39.861C173.417 39.8854 173.592 39.8711 173.757 39.8191C173.923 39.7671 174.074 39.6787 174.201 39.5605C174.328 39.4422 174.426 39.2971 174.489 39.1358C174.552 38.9745 174.578 38.8012 174.566 38.6285C174.566 37.9506 174.134 37.5561 173.332 37.5561C173.119 37.5263 172.903 37.5263 172.69 37.5561L172.727 39.861Z" fill="white"/>
<path d="M183.227 40.0212C183.227 42.4863 181.882 43.8914 179.895 43.8914C177.909 43.8914 176.7 42.2521 176.7 40.1937C176.7 38.1354 177.995 36.3481 180.006 36.3481C182.017 36.3481 183.227 37.9998 183.227 40.0212ZM178.292 40.1198C178.292 41.5619 178.921 42.5849 179.957 42.5849C180.993 42.5849 181.586 41.5126 181.586 40.1198C181.586 38.727 181.006 37.6547 179.945 37.6547C178.884 37.6547 178.316 38.69 178.316 40.1198H178.292Z" fill="white"/>
<path d="M185.657 36.422V38.6036C185.657 39.8362 185.657 40.9455 185.571 41.9315C185.928 41.0687 186.385 40.095 186.804 39.3185L188.273 36.422H189.839V43.8174H188.433V41.5987C188.433 40.4648 188.433 39.4664 188.544 38.505C188.212 39.4033 187.825 40.2801 187.384 41.1304L186.002 43.7681H184.25V36.3727L185.657 36.422ZM186.595 34.7334C186.595 35.1648 186.718 35.4113 187.039 35.4113C187.36 35.4113 187.483 35.1771 187.52 34.7334H188.544C188.549 34.927 188.513 35.1194 188.436 35.2973C188.359 35.4752 188.245 35.6342 188.1 35.7633C187.956 35.8924 187.785 35.9884 187.599 36.0447C187.414 36.101 187.218 36.1162 187.026 36.0892C186.838 36.1127 186.646 36.0948 186.464 36.0365C186.283 35.9783 186.117 35.8813 185.977 35.7521C185.837 35.623 185.727 35.465 185.655 35.289C185.583 35.113 185.55 34.9234 185.558 34.7334H186.595Z" fill="white"/>
<path d="M57.9871 22.753L46.8832 3.59904C46.1947 2.52784 45.2624 1.63446 44.1625 0.991836C43.0625 0.349211 41.826 -0.0244478 40.5539 -0.0986328H18.3462C17.0745 -0.0225005 15.8388 0.351979 14.7391 0.994426C13.6395 1.63687 12.7069 2.5292 12.0169 3.59904L0.913039 22.753C0.34126 23.8887 0.043457 25.1424 0.043457 26.4137C0.043457 27.685 0.34126 28.9387 0.913039 30.0744L12.0169 49.2283C12.7069 50.2982 13.6395 51.1905 14.7391 51.833C15.8388 52.4754 17.0745 52.8499 18.3462 52.926H40.5539C41.826 52.8518 43.0625 52.4782 44.1625 51.8356C45.2624 51.1929 46.1947 50.2996 46.8832 49.2283L57.9871 30.0744C58.5532 28.937 58.8479 27.684 58.8479 26.4137C58.8479 25.1434 58.5532 23.8904 57.9871 22.753ZM52.4721 29.3595L43.478 44.8158C42.9197 45.6719 42.1676 46.3848 41.2823 46.8965C40.3971 47.4083 39.4037 47.7047 38.3825 47.7616H20.5052C19.4822 47.7056 18.4866 47.4097 17.5993 46.898C16.7119 46.3862 15.9576 45.6729 15.3975 44.8158L6.47732 29.3595C6.00864 28.4481 5.76416 27.4383 5.76416 26.4137C5.76416 25.3891 6.00864 24.3792 6.47732 23.4679L15.3975 8.0116C15.9576 7.1545 16.7119 6.4412 17.5993 5.92943C18.4866 5.41766 19.4822 5.1218 20.5052 5.06579H38.3825C39.4037 5.12272 40.3971 5.41907 41.2823 5.93085C42.1676 6.44262 42.9197 7.15544 43.478 8.0116L52.4228 23.4186C52.8871 24.3401 53.1289 25.3574 53.1289 26.389C53.1289 27.4207 52.8871 28.438 52.4228 29.3595H52.4721Z" fill="white"/>
<path d="M37.0746 9.39205H21.6896C21.0551 9.36432 20.4248 9.5076 19.8648 9.80685C19.3047 10.1061 18.8356 10.5503 18.5065 11.093L16.5818 14.5318H21.5169H26.3779L21.961 22.186L22.1214 31.9355L29.8448 18.8211L43.7 25.7111L46.2662 21.4958L32.5097 14.5072H42.2318L40.3318 11.2902C39.9808 10.7363 39.5017 10.2747 38.9349 9.94442C38.368 9.61409 37.7301 9.42465 37.0746 9.39205Z" fill="white"/>
<path d="M22.9727 39.2942L20.6162 35.0542H29.2526L32.2383 33.1314L37.5681 29.9884H22.5162L22.3065 26.6358V23.123L21.7636 14.4951H16.7052L17.5811 29.8528L12.7201 21.3974L10.7461 24.6514C10.4462 25.2295 10.2976 25.874 10.3142 26.5249C10.3094 27.1588 10.4575 27.7845 10.7461 28.3491L18.4324 41.6484C18.7727 42.1974 19.2413 42.6558 19.7978 42.9842C20.3543 43.3127 20.9823 43.5014 21.6279 43.5342H25.3292L22.9727 39.2942Z" fill="white"/>
<path d="M40.3441 41.6604L48.0305 28.3488C48.3289 27.7657 48.4773 27.1176 48.4623 26.4629C48.4686 25.8328 48.3204 25.2107 48.0305 24.6511L46.2292 21.5204L43.7616 25.7357L41.3805 29.7169L36.9882 22.3215L28.3766 17.6748L35.9395 30.6536L22.4421 39.2816L25.3662 43.5462L38.3701 34.9183L33.435 43.5462H37.6298C38.1929 43.4497 38.7279 43.2308 39.1969 42.905C39.666 42.5791 40.0576 42.1542 40.3441 41.6604Z" fill="white"/>
<path d="M87.2025 9.26904H80.7992L75.6297 16.6644C75.0745 17.4656 74.5317 18.2667 74.0258 19.1295V9.26904H68.8193V31.6523H74.0258V24.3432L75.9628 21.989L81.6012 31.6523H87.5973L79.6271 18.809L87.2025 9.26904Z" fill="white"/>
<path d="M95.0001 9.26879L88.0293 31.652H93.3715L95.0001 25.8837H101.576L103.34 31.6274H108.942L101.81 9.24414L95.0001 9.26879ZM95.802 22.186L97.1592 17.4407C97.5293 16.1341 97.8748 14.4455 98.2202 13.1144H98.2942C98.6273 14.4455 99.0345 16.0972 99.4416 17.4407L100.873 22.186H95.802Z" fill="white"/>
<path d="M125.782 17.8723H117.232V9.26904H112.075V31.6523H117.232V22.2849H125.782V31.6523H130.952V9.26904H125.782V17.8723Z" fill="white"/>
<path d="M140.686 22.1863H149.113V18.0695H140.686V13.4228H149.631V9.26904H135.517V31.6523H150.1V27.5109H140.686V22.1863Z" fill="white"/>
<path d="M172.518 9.26904H166.114L160.945 16.6644C160.402 17.4656 159.859 18.2667 159.353 19.1295V9.26904H154.208V31.6523H159.353V24.3432L161.278 21.989L166.916 31.6523H172.937L164.992 18.809L172.518 9.26904Z" fill="white"/>
<path d="M186.212 13.09C187.448 13.0802 188.678 13.2717 189.852 13.657V9.33067C188.583 9.0569 187.288 8.92462 185.99 8.93625C179.056 8.93625 173.48 13.1516 173.48 20.7935C173.48 27.1781 177.563 32.0221 185.484 32.0221C186.954 32.0276 188.419 31.8664 189.852 31.5414V27.3137C188.674 27.6384 187.458 27.8042 186.237 27.8067C181.635 27.8067 178.921 24.9718 178.921 20.4853C178.896 15.5181 182.128 13.09 186.212 13.09Z" fill="white"/>
</g>
<defs>
<clipPath id="clip0">
<rect width="190" height="53" fill="white"/>
</clipPath>
</defs>
</svg>
